XOPQminYOPQmin.ufo
<glyph name="exclam" format="1">
  <advance width="475"/>
  <unicode hex="0021"/>
  <outline>
    <contour>
      <point x="221" y="443" type="line"/>
      <point x="254" y="443" type="line"/>
      <point x="264" y="1456" type="line"/>
      <point x="210" y="1456" type="line"/>
    </contour>
    <contour>
      <point x="189" y="45" type="qcurve" smooth="yes"/>
      <point x="189" y="12"/>
      <point x="211" y="-24"/>
      <point x="237" y="-24" type="qcurve" smooth="yes"/>
      <point x="263" y="-24"/>
      <point x="286" y="13"/>
      <point x="286" y="45" type="qcurve" smooth="yes"/>
      <point x="286" y="78"/>
      <point x="262" y="115"/>
      <point x="237" y="115" type="qcurve" smooth="yes"/>
      <point x="211" y="115"/>
      <point x="189" y="79"/>
    </contour>
  </outline>
</glyph>
<glyph name="quotedbl" format="1">
  <advance width="555"/>
  <unicode hex="0022"/>
  <outline>
    <contour>
      <point x="109" y="1072" type="line"/>
      <point x="140" y="1072" type="line"/>
      <point x="150" y="1411" type="line"/>
      <point x="150" y="1502" type="line"/>
      <point x="100" y="1502" type="line"/>
      <point x="100" y="1400" type="line"/>
    </contour>
    <contour>
      <point x="414" y="1072" type="line"/>
      <point x="445" y="1072" type="line"/>
      <point x="455" y="1411" type="line"/>
      <point x="455" y="1502" type="line"/>
      <point x="405" y="1502" type="line"/>
      <point x="405" y="1408" type="line"/>
    </contour>
  </outline>
</glyph>
<glyph name="numbersign" format="1">
  <advance width="1222"/>
  <unicode hex="0023"/>
  <outline>
    <contour>
      <point x="212" y="-32" type="line"/>
      <point x="221" y="-32" type="line"/>
      <point x="581" y="1478" type="line"/>
      <point x="572" y="1478" type="line"/>
    </contour>
    <contour>
      <point x="643" y="-32" type="line"/>
      <point x="652" y="-32" type="line"/>
      <point x="1012" y="1478" type="line"/>
      <point x="1003" y="1478" type="line"/>
    </contour>
    <contour>
      <point x="129" y="974" type="line"/>
      <point x="1158" y="974" type="line"/>
      <point x="1158" y="1010" type="line"/>
      <point x="129" y="1010" type="line"/>
    </contour>
    <contour>
      <point x="64" y="445" type="line"/>
      <point x="1095" y="445" type="line"/>
      <point x="1095" y="481" type="line"/>
      <point x="64" y="481" type="line"/>
    </contour>
  </outline>
</glyph>
<glyph name="dollar" format="1">
  <advance width="898"/>
  <unicode hex="0024"/>
  <outline>
    <contour>
      <point x="77" y="381" type="line"/>
      <point x="77" y="190"/>
      <point x="279" y="0"/>
      <point x="455" y="0" type="qcurve" smooth="yes"/>
      <point x="624" y="0"/>
      <point x="813" y="198"/>
      <point x="813" y="368" type="qcurve" smooth="yes"/>
      <point x="813" y="536"/>
      <point x="648" y="720"/>
      <point x="460" y="783" type="qcurve" smooth="yes"/>
      <point x="308" y="835"/>
      <point x="145" y="985"/>
      <point x="145" y="1105" type="qcurve" smooth="yes"/>
      <point x="145" y="1232"/>
      <point x="292" y="1399"/>
      <point x="438" y="1399" type="qcurve" smooth="yes"/>
      <point x="586" y="1399"/>
      <point x="747" y="1227"/>
      <point x="747" y="1083" type="qcurve"/>
      <point x="747" y="1124" type="line"/>
      <point x="792" y="1124" type="line"/>
      <point x="792" y="1084" type="line"/>
      <point x="792" y="1233"/>
      <point x="620" y="1456"/>
      <point x="445" y="1456" type="qcurve" smooth="yes"/>
      <point x="287" y="1456"/>
      <point x="103" y="1243"/>
      <point x="103" y="1092" type="qcurve" smooth="yes"/>
      <point x="103" y="946"/>
      <point x="255" y="775"/>
      <point x="436" y="712" type="qcurve" smooth="yes"/>
      <point x="614" y="648"/>
      <point x="771" y="493"/>
      <point x="771" y="355" type="qcurve" smooth="yes"/>
      <point x="771" y="221"/>
      <point x="595" y="52"/>
      <point x="446" y="52" type="qcurve" smooth="yes"/>
      <point x="303" y="52"/>
      <point x="123" y="224"/>
      <point x="123" y="386" type="qcurve"/>
      <point x="123" y="337" type="line"/>
      <point x="77" y="337" type="line"/>
    </contour>
    <contour>
      <point x="449" y="802" type="line"/>
      <point x="457" y="802" type="line"/>
      <point x="457" y="1572" type="line"/>
      <point x="439" y="1572" type="line"/>
      <point x="439" y="1455" type="line"/>
      <point x="449" y="1454" type="line"/>
    </contour>
    <contour>
      <point x="439" y="-170" type="line"/>
      <point x="457" y="-170" type="line"/>
      <point x="457" y="-5" type="line"/>
      <point x="449" y="-5" type="line"/>
      <point x="449" y="657" type="line"/>
      <point x="439" y="657" type="line"/>
    </contour>
  </outline>
</glyph>
<glyph name="percent" format="1">
  <advance width="1428"/>
  <unicode hex="0025"/>
  <outline>
    <contour>
      <point x="64" y="1002" type="line" smooth="yes"/>
      <point x="64" y="885"/>
      <point x="187" y="720"/>
      <point x="295" y="720" type="qcurve" smooth="yes"/>
      <point x="403" y="720"/>
      <point x="523" y="885"/>
      <point x="523" y="1002" type="qcurve" smooth="yes"/>
      <point x="523" y="1203" type="line" smooth="yes"/>
      <point x="523" y="1322"/>
      <point x="403" y="1487"/>
      <point x="293" y="1487" type="qcurve" smooth="yes"/>
      <point x="186" y="1487"/>
      <point x="64" y="1321"/>
      <point x="64" y="1203" type="qcurve" smooth="yes"/>
    </contour>
    <contour>
      <point x="104" y="1007" type="qcurve" smooth="yes"/>
      <point x="104" y="1198" type="line" smooth="yes"/>
      <point x="104" y="1271"/>
      <point x="187" y="1428"/>
      <point x="293" y="1428" type="qcurve" smooth="yes"/>
      <point x="400" y="1428"/>
      <point x="484" y="1271"/>
      <point x="484" y="1198" type="qcurve" smooth="yes"/>
      <point x="484" y="1007" type="line" smooth="yes"/>
      <point x="484" y="935"/>
      <point x="403" y="779"/>
      <point x="295" y="779" type="qcurve" smooth="yes"/>
      <point x="188" y="779"/>
      <point x="104" y="935"/>
    </contour>
    <contour>
      <point x="1074" y="1448" type="line"/>
      <point x="1064" y="1464" type="line"/>
      <point x="347" y="-12" type="line"/>
      <point x="358" y="-27" type="line"/>
    </contour>
    <contour>
      <point x="905" y="257" type="line" smooth="yes"/>
      <point x="905" y="140"/>
      <point x="1028" y="-25"/>
      <point x="1136" y="-25" type="qcurve" smooth="yes"/>
      <point x="1244" y="-25"/>
      <point x="1364" y="140"/>
      <point x="1364" y="257" type="qcurve" smooth="yes"/>
      <point x="1364" y="459" type="line" smooth="yes"/>
      <point x="1364" y="577"/>
      <point x="1244" y="743"/>
      <point x="1134" y="743" type="qcurve" smooth="yes"/>
      <point x="1027" y="743"/>
      <point x="905" y="577"/>
      <point x="905" y="459" type="qcurve" smooth="yes"/>
    </contour>
    <contour>
      <point x="944" y="262" type="qcurve" smooth="yes"/>
      <point x="944" y="453" type="line" smooth="yes"/>
      <point x="944" y="527"/>
      <point x="1027" y="683"/>
      <point x="1134" y="683" type="qcurve" smooth="yes"/>
      <point x="1241" y="683"/>
      <point x="1325" y="527"/>
      <point x="1325" y="453" type="qcurve" smooth="yes"/>
      <point x="1325" y="262" type="line" smooth="yes"/>
      <point x="1325" y="190"/>
      <point x="1243" y="34"/>
      <point x="1136" y="34" type="qcurve" smooth="yes"/>
      <point x="1028" y="34"/>
      <point x="944" y="190"/>
    </contour>
  </outline>
</glyph>
<glyph name="ampersand" format="1">
  <advance width="1005"/>
  <unicode hex="0026"/>
  <outline>
    <contour>
      <point x="102" y="366" type="qcurve" smooth="yes"/>
      <point x="102" y="195"/>
      <point x="286" y="-22"/>
      <point x="447" y="-22" type="qcurve" smooth="yes"/>
      <point x="529" y="-22"/>
      <point x="695" y="58"/>
      <point x="751" y="135" type="qcurve"/>
      <point x="752" y="137"/>
      <point x="760" y="163"/>
      <point x="775" y="181" type="qcurve" smooth="yes"/>
      <point x="845" y="271"/>
      <point x="911" y="514"/>
      <point x="911" y="611" type="qcurve"/>
      <point x="879" y="611" type="line"/>
      <point x="879" y="388"/>
      <point x="613" y="29"/>
      <point x="447" y="29" type="qcurve" smooth="yes"/>
      <point x="300" y="29"/>
      <point x="150" y="232"/>
      <point x="150" y="366" type="qcurve" smooth="yes"/>
      <point x="150" y="407"/>
      <point x="201" y="580"/>
      <point x="306" y="678" type="qcurve" smooth="yes"/>
      <point x="552" y="910" type="line" smooth="yes"/>
      <point x="619" y="972"/>
      <point x="698" y="1107"/>
      <point x="698" y="1203" type="qcurve" smooth="yes"/>
      <point x="698" y="1315"/>
      <point x="571" y="1478"/>
      <point x="458" y="1478" type="qcurve" smooth="yes"/>
      <point x="341" y="1478"/>
      <point x="203" y="1313"/>
      <point x="203" y="1154" type="qcurve" smooth="yes"/>
      <point x="203" y="1050"/>
      <point x="316" y="847"/>
      <point x="410" y="708" type="qcurve" smooth="yes"/>
      <point x="875" y="0" type="line"/>
      <point x="924" y="0" type="line"/>
      <point x="411" y="798" type="line" smooth="yes"/>
      <point x="345" y="893"/>
      <point x="252" y="1073"/>
      <point x="252" y="1160" type="qcurve" smooth="yes"/>
      <point x="252" y="1261"/>
      <point x="356" y="1428"/>
      <point x="457" y="1428" type="qcurve" smooth="yes"/>
      <point x="553" y="1428"/>
      <point x="662" y="1288"/>
      <point x="662" y="1203" type="qcurve" smooth="yes"/>
      <point x="662" y="1106"/>
      <point x="585" y="987"/>
      <point x="525" y="932" type="qcurve" smooth="yes"/>
      <point x="341" y="768" type="line" smooth="yes"/>
      <point x="232" y="672"/>
      <point x="102" y="494"/>
    </contour>
  </outline>
</glyph>
<glyph name="quotesingle" format="1">
  <advance width="266"/>
  <unicode hex="0027"/>
  <outline>
    <contour>
      <point x="117" y="1072" type="line"/>
      <point x="149" y="1072" type="line"/>
      <point x="166" y="1411" type="line"/>
      <point x="166" y="1502" type="line"/>
      <point x="100" y="1502" type="line"/>
      <point x="100" y="1401" type="line"/>
    </contour>
  </outline>
</glyph>
<glyph name="parenleft" format="1">
  <advance width="510"/>
  <unicode hex="0028"/>
  <outline>
    <contour>
      <point x="474" y="-425" type="qcurve"/>
      <point x="474" y="-374" type="line"/>
      <point x="389" y="-298"/>
      <point x="181" y="106"/>
      <point x="181" y="504" type="qcurve" smooth="yes"/>
      <point x="181" y="530" type="line" smooth="yes"/>
      <point x="181" y="919"/>
      <point x="389" y="1328"/>
      <point x="474" y="1397" type="qcurve"/>
      <point x="474" y="1449" type="line"/>
      <point x="444" y="1423"/>
      <point x="124" y="976"/>
      <point x="124" y="528" type="qcurve" smooth="yes"/>
      <point x="124" y="517" type="line" smooth="yes"/>
      <point x="124" y="66"/>
      <point x="444" y="-399"/>
    </contour>
  </outline>
</glyph>
<glyph name="parenright" format="1">
  <advance width="510"/>
  <unicode hex="0029"/>
  <outline>
    <contour>
      <point x="124" y="-425" type="line"/>
      <point x="154" y="-399"/>
      <point x="474" y="66"/>
      <point x="474" y="517" type="qcurve" smooth="yes"/>
      <point x="474" y="528" type="line" smooth="yes"/>
      <point x="474" y="976"/>
      <point x="154" y="1423"/>
      <point x="124" y="1449" type="qcurve"/>
      <point x="124" y="1397" type="line"/>
      <point x="208" y="1328"/>
      <point x="417" y="919"/>
      <point x="417" y="530" type="qcurve" smooth="yes"/>
      <point x="417" y="504" type="line" smooth="yes"/>
      <point x="417" y="106"/>
      <point x="209" y="-298"/>
      <point x="124" y="-374" type="qcurve"/>
    </contour>
  </outline>
</glyph>
<glyph name="asterisk" format="1">
  <advance width="798"/>
  <unicode hex="002A"/>
  <outline>
    <contour>
      <point x="88" y="1150" type="line"/>
      <point x="391" y="1056" type="line"/>
      <point x="178" y="708" type="line"/>
      <point x="219" y="654" type="line"/>
      <point x="378" y="1052" type="line"/>
      <point x="543" y="646" type="line"/>
      <point x="584" y="701" type="line"/>
      <point x="371" y="1046" type="line"/>
      <point x="681" y="1138" type="line"/>
      <point x="667" y="1233" type="line"/>
      <point x="381" y="1053" type="line"/>
      <point x="412" y="1525" type="line"/>
      <point x="360" y="1525" type="line"/>
      <point x="389" y="1058" type="line"/>
      <point x="102" y="1241" type="line"/>
    </contour>
  </outline>
</glyph>
<glyph name="plus" format="1">
  <advance width="876"/>
  <unicode hex="002B"/>
  <outline>
    <contour>
      <point x="86" y="658" type="line"/>
      <point x="790" y="658" type="line"/>
      <point x="790" y="724" type="line"/>
      <point x="86" y="724" type="line"/>
    </contour>
    <contour>
      <point x="412" y="162" type="line"/>
      <point x="464" y="162" type="line"/>
      <point x="464" y="1223" type="line"/>
      <point x="412" y="1223" type="line"/>
    </contour>
  </outline>
</glyph>
<glyph name="comma" format="1">
  <advance width="443"/>
  <unicode hex="002C"/>
  <outline>
    <contour>
      <point x="135" y="-288" type="qcurve"/>
      <point x="147" y="-309" type="line"/>
      <point x="178" y="-271"/>
      <point x="242" y="-68"/>
      <point x="242" y="20" type="qcurve" smooth="yes"/>
      <point x="242" y="126" type="line"/>
      <point x="192" y="126" type="line"/>
      <point x="192" y="16" type="line" smooth="yes"/>
      <point x="192" y="-84"/>
      <point x="145" y="-257"/>
    </contour>
  </outline>
</glyph>
<glyph name="hyphen" format="1">
  <advance width="435"/>
  <unicode hex="002D"/>
  <outline>
    <contour>
      <point x="38" y="604" type="line"/>
      <point x="397" y="604" type="line"/>
      <point x="397" y="677" type="line"/>
      <point x="38" y="677" type="line"/>
    </contour>
  </outline>
</glyph>
<glyph name="period" format="1">
  <advance width="434"/>
  <unicode hex="002E"/>
  <outline>
    <contour>
      <point x="161" y="53" type="qcurve" smooth="yes"/>
      <point x="161" y="20"/>
      <point x="186" y="-24"/>
      <point x="217" y="-24" type="qcurve" smooth="yes"/>
      <point x="248" y="-24"/>
      <point x="273" y="20"/>
      <point x="273" y="53" type="qcurve" smooth="yes"/>
      <point x="273" y="87"/>
      <point x="248" y="132"/>
      <point x="217" y="132" type="qcurve" smooth="yes"/>
      <point x="186" y="132"/>
      <point x="161" y="87"/>
    </contour>
  </outline>
</glyph>
<glyph name="slash" format="1">
  <advance width="373"/>
  <unicode hex="002F"/>
  <outline>
    <contour>
      <point x="-69" y="-135" type="line"/>
      <point x="-34" y="-135" type="line"/>
      <point x="442" y="1456" type="line"/>
      <point x="408" y="1456" type="line"/>
    </contour>
  </outline>
</glyph>
<glyph name="zero" format="1">
  <advance width="878"/>
  <unicode hex="0030"/>
  <outline>
    <contour>
      <point x="110" y="440" type="line" smooth="yes"/>
      <point x="110" y="201"/>
      <point x="296" y="-30"/>
      <point x="440" y="-30" type="qcurve" smooth="yes"/>
      <point x="583" y="-30"/>
      <point x="768" y="201"/>
      <point x="768" y="440" type="qcurve" smooth="yes"/>
      <point x="768" y="1007" type="line" smooth="yes"/>
      <point x="768" y="1246"/>
      <point x="583" y="1479"/>
      <point x="438" y="1479" type="qcurve" smooth="yes"/>
      <point x="296" y="1479"/>
      <point x="110" y="1246"/>
      <point x="110" y="1007" type="qcurve" smooth="yes"/>
    </contour>
    <contour>
      <point x="165" y="357" type="qcurve" smooth="yes"/>
      <point x="165" y="1088" type="line" smooth="yes"/>
      <point x="165" y="1224"/>
      <point x="280" y="1426"/>
      <point x="438" y="1426" type="qcurve" smooth="yes"/>
      <point x="596" y="1426"/>
      <point x="713" y="1229"/>
      <point x="713" y="1088" type="qcurve" smooth="yes"/>
      <point x="713" y="357" type="line" smooth="yes"/>
      <point x="713" y="214"/>
      <point x="599" y="20"/>
      <point x="440" y="20" type="qcurve" smooth="yes"/>
      <point x="281" y="20"/>
      <point x="165" y="208"/>
    </contour>
  </outline>
</glyph>
<glyph name="five" format="1">
  <advance width="895"/>
  <unicode hex="0035"/>
  <outline>
    <contour>
      <point x="101" y="373" type="line"/>
      <point x="101" y="370" type="line" smooth="yes"/>
      <point x="101" y="156"/>
      <point x="329" y="-30"/>
      <point x="459" y="-30" type="qcurve" smooth="yes"/>
      <point x="599" y="-30"/>
      <point x="791" y="234"/>
      <point x="791" y="443" type="qcurve" smooth="yes"/>
      <point x="791" y="662"/>
      <point x="607" y="923"/>
      <point x="469" y="923" type="qcurve" smooth="yes"/>
      <point x="366" y="923"/>
      <point x="222" y="858"/>
      <point x="199" y="832" type="qcurve"/>
      <point x="257" y="1385" type="line"/>
      <point x="736" y="1385" type="line"/>
      <point x="736" y="1456" type="line"/>
      <point x="209" y="1456" type="line"/>
      <point x="139" y="764" type="line"/>
      <point x="188" y="733" type="line"/>
      <point x="232" y="782"/>
      <point x="365" y="859"/>
      <point x="454" y="859" type="qcurve" smooth="yes"/>
      <point x="574" y="859"/>
      <point x="739" y="661"/>
      <point x="739" y="441" type="qcurve" smooth="yes"/>
      <point x="739" y="231"/>
      <point x="571" y="18"/>
      <point x="444" y="18" type="qcurve" smooth="yes"/>
      <point x="317" y="18"/>
      <point x="155" y="153"/>
      <point x="155" y="286" type="qcurve" smooth="yes"/>
      <point x="155" y="373" type="line"/>
    </contour>
  </outline>
</glyph>
<glyph name="nine" format="1">
  <advance width="898"/>
  <unicode hex="0039"/>
  <outline>
    <contour>
      <point x="65" y="995" type="qcurve" smooth="yes"/>
      <point x="65" y="782"/>
      <point x="261" y="577"/>
      <point x="414" y="577" type="qcurve" smooth="yes"/>
      <point x="549" y="577"/>
      <point x="734" y="760"/>
      <point x="773" y="895" type="qcurve"/>
      <point x="774" y="1022" type="line"/>
      <point x="754" y="1024" type="line"/>
      <point x="728" y="835"/>
      <point x="539" y="629"/>
      <point x="414" y="629" type="qcurve" smooth="yes"/>
      <point x="295" y="629"/>
      <point x="122" y="831"/>
      <point x="122" y="1025" type="qcurve" smooth="yes"/>
      <point x="122" y="1220"/>
      <point x="290" y="1427"/>
      <point x="418" y="1427" type="qcurve" smooth="yes"/>
      <point x="551" y="1427"/>
      <point x="743" y="1167"/>
      <point x="743" y="854" type="qcurve" smooth="yes"/>
      <point x="743" y="801" type="line" smooth="yes"/>
      <point x="743" y="359"/>
      <point x="437" y="28"/>
      <point x="212" y="28" type="qcurve" smooth="yes"/>
      <point x="189" y="28" type="line"/>
      <point x="189" y="-30" type="line"/>
      <point x="200" y="-30" type="line" smooth="yes"/>
      <point x="474" y="-30"/>
      <point x="801" y="389"/>
      <point x="801" y="791" type="qcurve" smooth="yes"/>
      <point x="801" y="820" type="line" smooth="yes"/>
      <point x="801" y="1209"/>
      <point x="580" y="1478"/>
      <point x="414" y="1478" type="qcurve" smooth="yes"/>
      <point x="248" y="1478"/>
      <point x="65" y="1214"/>
    </contour>
  </outline>
</glyph>
<glyph name="colon" format="1">
  <advance width="456"/>
  <unicode hex="003A"/>
  <outline>
    <contour>
      <point x="176" y="47" type="qcurve" smooth="yes"/>
      <point x="176" y="16"/>
      <point x="198" y="-24"/>
      <point x="227" y="-24" type="qcurve" smooth="yes"/>
      <point x="256" y="-24"/>
      <point x="279" y="17"/>
      <point x="279" y="47" type="qcurve" smooth="yes"/>
      <point x="279" y="80"/>
      <point x="256" y="121"/>
      <point x="227" y="121" type="qcurve" smooth="yes"/>
      <point x="198" y="121"/>
      <point x="176" y="80"/>
    </contour>
    <contour>
      <point x="177" y="997" type="qcurve" smooth="yes"/>
      <point x="177" y="966"/>
      <point x="199" y="925"/>
      <point x="228" y="925" type="qcurve" smooth="yes"/>
      <point x="257" y="925"/>
      <point x="280" y="966"/>
      <point x="280" y="997" type="qcurve" smooth="yes"/>
      <point x="280" y="1029"/>
      <point x="257" y="1070"/>
      <point x="228" y="1070" type="qcurve" smooth="yes"/>
      <point x="199" y="1070"/>
      <point x="177" y="1029"/>
    </contour>
  </outline>
</glyph>
<glyph name="semicolon" format="1">
  <advance width="458"/>
  <unicode hex="003B"/>
  <outline>
    <contour>
      <point x="178" y="997" type="qcurve" smooth="yes"/>
      <point x="178" y="966"/>
      <point x="201" y="925"/>
      <point x="230" y="925" type="qcurve" smooth="yes"/>
      <point x="259" y="925"/>
      <point x="282" y="966"/>
      <point x="282" y="997" type="qcurve" smooth="yes"/>
      <point x="282" y="1029"/>
      <point x="259" y="1070"/>
      <point x="230" y="1070" type="qcurve" smooth="yes"/>
      <point x="201" y="1070"/>
      <point x="178" y="1029"/>
    </contour>
    <contour>
      <point x="155" y="-288" type="qcurve"/>
      <point x="167" y="-309" type="line"/>
      <point x="198" y="-271"/>
      <point x="262" y="-68"/>
      <point x="262" y="20" type="qcurve" smooth="yes"/>
      <point x="262" y="126" type="line"/>
      <point x="212" y="126" type="line"/>
      <point x="212" y="16" type="line" smooth="yes"/>
      <point x="212" y="-84"/>
      <point x="165" y="-257"/>
    </contour>
  </outline>
</glyph>
<glyph name="less" format="1">
  <advance width="912"/>
  <unicode hex="003C"/>
  <outline>
    <contour>
      <point x="732" y="251" type="line"/>
      <point x="732" y="329" type="line"/>
      <point x="166" y="658" type="line"/>
      <point x="732" y="992" type="line"/>
      <point x="732" y="1070" type="line"/>
      <point x="172" y="704" type="line"/>
      <point x="172" y="619" type="line"/>
    </contour>
  </outline>
</glyph>
<glyph name="equal" format="1">
  <advance width="902"/>
  <unicode hex="003D"/>
  <outline>
    <contour>
      <point x="153" y="876" type="line"/>
      <point x="749" y="876" type="line"/>
      <point x="749" y="944" type="line"/>
      <point x="153" y="944" type="line"/>
    </contour>
    <contour>
      <point x="153" y="422" type="line"/>
      <point x="749" y="422" type="line"/>
      <point x="749" y="490" type="line"/>
      <point x="153" y="490" type="line"/>
    </contour>
  </outline>
</glyph>
<glyph name="greater" format="1">
  <advance width="912"/>
  <unicode hex="003E"/>
  <outline>
    <contour>
      <point x="180" y="251" type="line"/>
      <point x="740" y="619" type="line"/>
      <point x="740" y="704" type="line"/>
      <point x="180" y="1070" type="line"/>
      <point x="180" y="992" type="line"/>
      <point x="746" y="658" type="line"/>
      <point x="180" y="329" type="line"/>
    </contour>
  </outline>
</glyph>
<glyph name="question" format="1">
  <advance width="737"/>
  <unicode hex="003F"/>
  <outline>
    <contour>
      <point x="348" y="442" type="line"/>
      <point x="348" y="387" type="line"/>
      <point x="348" y="470"/>
      <point x="390" y="639"/>
      <point x="473" y="733" type="qcurve" smooth="yes"/>
      <point x="530" y="798"/>
      <point x="641" y="996"/>
      <point x="641" y="1125" type="qcurve" smooth="yes"/>
      <point x="641" y="1291"/>
      <point x="493" y="1478"/>
      <point x="355" y="1478" type="qcurve" smooth="yes"/>
      <point x="216" y="1478"/>
      <point x="60" y="1302"/>
      <point x="60" y="1147" type="qcurve"/>
      <point x="60" y="1182" type="line"/>
      <point x="108" y="1182" type="line"/>
      <point x="108" y="1147" type="line"/>
      <point x="108" y="1271"/>
      <point x="246" y="1416"/>
      <point x="355" y="1416" type="qcurve" smooth="yes"/>
      <point x="467" y="1416"/>
      <point x="592" y="1262"/>
      <point x="592" y="1130" type="qcurve" smooth="yes"/>
      <point x="592" y="1005"/>
      <point x="492" y="838"/>
      <point x="419" y="744" type="qcurve" smooth="yes"/>
      <point x="345" y="655"/>
      <point x="299" y="518"/>
      <point x="299" y="391" type="qcurve"/>
      <point x="299" y="442" type="line"/>
    </contour>
    <contour>
      <point x="283" y="45" type="qcurve" smooth="yes"/>
      <point x="283" y="13"/>
      <point x="306" y="-24"/>
      <point x="331" y="-24" type="qcurve" smooth="yes"/>
      <point x="356" y="-24"/>
      <point x="379" y="13"/>
      <point x="379" y="45" type="qcurve" smooth="yes"/>
      <point x="379" y="78"/>
      <point x="356" y="114"/>
      <point x="331" y="114" type="qcurve" smooth="yes"/>
      <point x="306" y="114"/>
      <point x="283" y="78"/>
    </contour>
  </outline>
</glyph>
<glyph name="at" format="1">
  <advance width="1771"/>
  <unicode hex="0040"/>
  <outline>
    <contour>
      <point x="546" y="425" type="qcurve" smooth="yes"/>
      <point x="533" y="229"/>
      <point x="657" y="-1"/>
      <point x="753" y="-1" type="qcurve" smooth="yes"/>
      <point x="800" y="-1"/>
      <point x="896" y="81"/>
      <point x="989" y="275" type="qcurve"/>
      <point x="1056" y="86"/>
      <point x="1169" y="-1"/>
      <point x="1235" y="-1" type="qcurve" smooth="yes"/>
      <point x="1392" y="-1"/>
      <point x="1605" y="351"/>
      <point x="1605" y="643" type="qcurve" smooth="yes"/>
      <point x="1605" y="1000"/>
      <point x="1200" y="1486"/>
      <point x="897" y="1486" type="qcurve" smooth="yes"/>
      <point x="601" y="1486"/>
      <point x="116" y="879"/>
      <point x="116" y="459" type="qcurve" smooth="yes"/>
      <point x="116" y="23"/>
      <point x="534" y="-488"/>
      <point x="833" y="-488" type="qcurve" smooth="yes"/>
      <point x="905" y="-488"/>
      <point x="1068" y="-445"/>
      <point x="1094" y="-420" type="qcurve"/>
      <point x="1094" y="-389" type="line"/>
      <point x="1118" y="-374"/>
      <point x="917" y="-434"/>
      <point x="836" y="-434" type="qcurve" smooth="yes"/>
      <point x="542" y="-434"/>
      <point x="164" y="43"/>
      <point x="164" y="459" type="qcurve" smooth="yes"/>
      <point x="164" y="872"/>
      <point x="604" y="1437"/>
      <point x="894" y="1437" type="qcurve" smooth="yes"/>
      <point x="1212" y="1437"/>
      <point x="1579" y="939"/>
      <point x="1579" y="643" type="qcurve" smooth="yes"/>
      <point x="1579" y="334"/>
      <point x="1382" y="34"/>
      <point x="1253" y="34" type="qcurve" smooth="yes"/>
      <point x="1196" y="34"/>
      <point x="1060" y="134"/>
      <point x="1073" y="325" type="qcurve"/>
      <point x="1162" y="893" type="line"/>
      <point x="1141" y="893" type="line"/>
      <point x="1085" y="948"/>
      <point x="977" y="1008"/>
      <point x="899" y="1008" type="qcurve" smooth="yes"/>
      <point x="793" y="1008"/>
      <point x="564" y="687"/>
    </contour>
    <contour>
      <point x="605" y="417" type="qcurve" smooth="yes"/>
      <point x="623" y="668"/>
      <point x="791" y="971"/>
      <point x="912" y="971" type="qcurve" smooth="yes"/>
      <point x="961" y="971"/>
      <point x="1049" y="943"/>
      <point x="1118" y="900" type="qcurve"/>
      <point x="1029" y="353" type="line"/>
      <point x="992" y="191"/>
      <point x="861" y="54"/>
      <point x="792" y="54" type="qcurve" smooth="yes"/>
      <point x="686" y="54"/>
      <point x="593" y="254"/>
    </contour>
  </outline>
</glyph>
<glyph name="A" format="1">
  <advance width="1065"/>
  <unicode hex="0041"/>
  <outline>
    <contour>
      <point x="0" y="0" type="line"/>
      <point x="70" y="0" type="line"/>
      <point x="507" y="1194" type="line" smooth="yes"/>
      <point x="517" y="1222"/>
      <point x="537" y="1278"/>
      <point x="541" y="1300" type="qcurve"/>
      <point x="539" y="1300" type="line"/>
      <point x="542" y="1278"/>
      <point x="563" y="1220"/>
      <point x="572" y="1195" type="qcurve" smooth="yes"/>
      <point x="1007" y="0" type="line"/>
      <point x="1065" y="0" type="line"/>
      <point x="532" y="1466" type="line"/>
      <point x="555" y="1466" type="line"/>
    </contour>
    <contour>
      <point x="190" y="414" type="line"/>
      <point x="864" y="414" type="line"/>
      <point x="843" y="468" type="line"/>
      <point x="201" y="468" type="line"/>
    </contour>
  </outline>
</glyph>
<glyph name="B" format="1">
  <advance width="993"/>
  <unicode hex="0042"/>
  <outline>
    <contour>
      <point x="170" y="0" type="line"/>
      <point x="539" y="0" type="line" smooth="yes"/>
      <point x="686" y="0"/>
      <point x="893" y="201"/>
      <point x="893" y="420" type="qcurve" smooth="yes"/>
      <point x="893" y="564"/>
      <point x="774" y="728"/>
      <point x="677" y="765" type="qcurve"/>
      <point x="677" y="767" type="line"/>
      <point x="747" y="792"/>
      <point x="860" y="935"/>
      <point x="860" y="1068" type="qcurve" smooth="yes"/>
      <point x="860" y="1285"/>
      <point x="662" y="1456"/>
      <point x="511" y="1456" type="qcurve" smooth="yes"/>
      <point x="170" y="1456" type="line"/>
    </contour>
    <contour>
      <point x="224" y="788" type="line"/>
      <point x="224" y="1402" type="line"/>
      <point x="508" y="1402" type="line" smooth="yes"/>
      <point x="654" y="1402"/>
      <point x="790" y="1251"/>
      <point x="790" y="1097" type="qcurve" smooth="yes"/>
      <point x="790" y="948"/>
      <point x="641" y="788"/>
      <point x="514" y="788" type="qcurve" smooth="yes"/>
    </contour>
    <contour>
      <point x="224" y="54" type="line"/>
      <point x="224" y="734" type="line"/>
      <point x="550" y="734" type="line" smooth="yes"/>
      <point x="699" y="734"/>
      <point x="830" y="551"/>
      <point x="830" y="394" type="qcurve" smooth="yes"/>
      <point x="830" y="238"/>
      <point x="686" y="54"/>
      <point x="541" y="54" type="qcurve" smooth="yes"/>
    </contour>
  </outline>
</glyph>
<glyph name="C" format="1">
  <advance width="1046"/>
  <unicode hex="0043"/>
  <outline>
    <contour>
      <point x="115" y="655" type="line" smooth="yes"/>
      <point x="115" y="327"/>
      <point x="391" y="-30"/>
      <point x="575" y="-30" type="qcurve" smooth="yes"/>
      <point x="753" y="-30"/>
      <point x="972" y="235"/>
      <point x="995" y="457" type="qcurve"/>
      <point x="996" y="463" type="line"/>
      <point x="944" y="463" type="line"/>
      <point x="943" y="454" type="line" smooth="yes"/>
      <point x="925" y="290"/>
      <point x="761" y="26"/>
      <point x="579" y="26" type="qcurve" smooth="yes"/>
      <point x="382" y="26"/>
      <point x="174" y="390"/>
      <point x="174" y="649" type="qcurve" smooth="yes"/>
      <point x="174" y="808" type="line" smooth="yes"/>
      <point x="174" y="1095"/>
      <point x="378" y="1430"/>
      <point x="581" y="1430" type="qcurve" smooth="yes"/>
      <point x="756" y="1430"/>
      <point x="924" y="1148"/>
      <point x="941" y="1006" type="qcurve" smooth="yes"/>
      <point x="943" y="989" type="line"/>
      <point x="996" y="989" type="line"/>
      <point x="995" y="1002" type="line" smooth="yes"/>
      <point x="973" y="1229"/>
      <point x="765" y="1486"/>
      <point x="578" y="1486" type="qcurve" smooth="yes"/>
      <point x="391" y="1486"/>
      <point x="115" y="1132"/>
      <point x="115" y="800" type="qcurve" smooth="yes"/>
    </contour>
  </outline>
</glyph>
<glyph name="D" format="1">
  <advance width="1094"/>
  <unicode hex="0044"/>
  <outline>
    <contour>
      <point x="170" y="0" type="line"/>
      <point x="464" y="0" type="line" smooth="yes"/>
      <point x="682" y="0"/>
      <point x="979" y="351"/>
      <point x="979" y="684" type="qcurve" smooth="yes"/>
      <point x="979" y="771" type="line" smooth="yes"/>
      <point x="979" y="1104"/>
      <point x="683" y="1456"/>
      <point x="480" y="1456" type="qcurve" smooth="yes"/>
      <point x="170" y="1456" type="line"/>
    </contour>
    <contour>
      <point x="224" y="54" type="line"/>
      <point x="224" y="1402" type="line"/>
      <point x="463" y="1402" type="line" smooth="yes"/>
      <point x="682" y="1402"/>
      <point x="924" y="1069"/>
      <point x="924" y="776" type="qcurve" smooth="yes"/>
      <point x="924" y="681" type="line" smooth="yes"/>
      <point x="924" y="400"/>
      <point x="691" y="54"/>
      <point x="445" y="54" type="qcurve" smooth="yes"/>
    </contour>
  </outline>
</glyph>
<glyph name="E" format="1">
  <advance width="904"/>
  <unicode hex="0045"/>
  <outline>
    <contour>
      <point x="170" y="0" type="line"/>
      <point x="836" y="0" type="line"/>
      <point x="836" y="54" type="line"/>
      <point x="224" y="54" type="line"/>
      <point x="224" y="726" type="line"/>
      <point x="749" y="726" type="line"/>
      <point x="749" y="780" type="line"/>
      <point x="224" y="780" type="line"/>
      <point x="224" y="1402" type="line"/>
      <point x="828" y="1402" type="line"/>
      <point x="828" y="1456" type="line"/>
      <point x="170" y="1456" type="line"/>
    </contour>
  </outline>
</glyph>
<glyph name="F" format="1">
  <advance width="886"/>
  <unicode hex="0046"/>
  <outline>
    <contour>
      <point x="170" y="0" type="line"/>
      <point x="224" y="0" type="line"/>
      <point x="224" y="695" type="line"/>
      <point x="742" y="695" type="line"/>
      <point x="742" y="749" type="line"/>
      <point x="224" y="749" type="line"/>
      <point x="224" y="1402" type="line"/>
      <point x="827" y="1402" type="line"/>
      <point x="827" y="1456" type="line"/>
      <point x="170" y="1456" type="line"/>
    </contour>
  </outline>
</glyph>
<glyph name="G" format="1">
  <advance width="1080"/>
  <unicode hex="0047"/>
  <outline>
    <contour>
      <point x="115" y="672" type="line" smooth="yes"/>
      <point x="115" y="327"/>
      <point x="400" y="-30"/>
      <point x="586" y="-30" type="qcurve" smooth="yes"/>
      <point x="742" y="-30"/>
      <point x="956" y="88"/>
      <point x="997" y="151" type="qcurve"/>
      <point x="997" y="678" type="line"/>
      <point x="637" y="678" type="line"/>
      <point x="637" y="624" type="line"/>
      <point x="944" y="624" type="line"/>
      <point x="944" y="142" type="line"/>
      <point x="902" y="106"/>
      <point x="714" y="24"/>
      <point x="584" y="24" type="qcurve" smooth="yes"/>
      <point x="391" y="24"/>
      <point x="161" y="358"/>
      <point x="161" y="668" type="qcurve" smooth="yes"/>
      <point x="161" y="792" type="line" smooth="yes"/>
      <point x="161" y="1093"/>
      <point x="392" y="1432"/>
      <point x="581" y="1432" type="qcurve" smooth="yes"/>
      <point x="728" y="1432"/>
      <point x="912" y="1205"/>
      <point x="934" y="1043" type="qcurve" smooth="yes"/>
      <point x="936" y="1028" type="line"/>
      <point x="1000" y="1028" type="line"/>
      <point x="998" y="1043" type="line" smooth="yes"/>
      <point x="973" y="1234"/>
      <point x="774" y="1486"/>
      <point x="584" y="1486" type="qcurve" smooth="yes"/>
      <point x="385" y="1486"/>
      <point x="115" y="1129"/>
      <point x="115" y="785" type="qcurve" smooth="yes"/>
    </contour>
  </outline>
</glyph>
<glyph name="H" format="1">
  <advance width="1182"/>
  <unicode hex="0048"/>
  <outline>
    <contour>
      <point x="170" y="0" type="line"/>
      <point x="224" y="0" type="line"/>
      <point x="224" y="726" type="line"/>
      <point x="958" y="726" type="line"/>
      <point x="958" y="0" type="line"/>
      <point x="1012" y="0" type="line"/>
      <point x="1012" y="1456" type="line"/>
      <point x="958" y="1456" type="line"/>
      <point x="958" y="780" type="line"/>
      <point x="224" y="780" type="line"/>
      <point x="224" y="1456" type="line"/>
      <point x="170" y="1456" type="line"/>
    </contour>
  </outline>
</glyph>
<glyph name="J" format="1">
  <advance width="824"/>
  <unicode hex="004A"/>
  <outline>
    <contour>
      <point x="24" y="390" type="line" smooth="yes"/>
      <point x="24" y="167"/>
      <point x="217" y="-30"/>
      <point x="346" y="-30" type="qcurve" smooth="yes"/>
      <point x="477" y="-30"/>
      <point x="668" y="191"/>
      <point x="668" y="401" type="qcurve" smooth="yes"/>
      <point x="668" y="1456" type="line"/>
      <point x="614" y="1456" type="line"/>
      <point x="614" y="401" type="line" smooth="yes"/>
      <point x="614" y="227"/>
      <point x="478" y="24"/>
      <point x="346" y="24" type="qcurve" smooth="yes"/>
      <point x="210" y="24"/>
      <point x="79" y="239"/>
      <point x="79" y="390" type="qcurve" smooth="yes"/>
      <point x="79" y="403" type="line"/>
      <point x="24" y="403" type="line"/>
    </contour>
  </outline>
</glyph>
<glyph name="K" format="1">
  <advance width="1126"/>
  <unicode hex="004B"/>
  <outline>
    <contour>
      <point x="1080" y="0" type="line"/>
      <point x="1146" y="0" type="line"/>
      <point x="474" y="863" type="line"/>
      <point x="454" y="827" type="line"/>
    </contour>
    <contour>
      <point x="170" y="0" type="line"/>
      <point x="224" y="0" type="line"/>
      <point x="224" y="565" type="line"/>
      <point x="1030" y="1456" type="line"/>
      <point x="954" y="1456" type="line"/>
      <point x="277" y="706" type="line"/>
      <point x="224" y="647" type="line"/>
      <point x="224" y="1456" type="line"/>
      <point x="170" y="1456" type="line"/>
    </contour>
  </outline>
</glyph>
<glyph name="M" format="1">
  <advance width="1540"/>
  <unicode hex="004D"/>
  <outline>
    <contour>
      <point x="170" y="0" type="line"/>
      <point x="224" y="0" type="line"/>
      <point x="224" y="920" type="line" smooth="yes"/>
      <point x="224" y="967"/>
      <point x="222" y="1155"/>
      <point x="224" y="1185" type="qcurve"/>
      <point x="232" y="1185" type="line"/>
      <point x="240" y="1156"/>
      <point x="277" y="1072"/>
      <point x="287" y="1046" type="qcurve" smooth="yes"/>
      <point x="693" y="0" type="line"/>
      <point x="855" y="0" type="line"/>
      <point x="1253" y="1046" type="line" smooth="yes"/>
      <point x="1265" y="1076"/>
      <point x="1297" y="1157"/>
      <point x="1306" y="1185" type="qcurve"/>
      <point x="1315" y="1185" type="line"/>
      <point x="1315" y="1158"/>
      <point x="1315" y="967"/>
      <point x="1315" y="919" type="qcurve" smooth="yes"/>
      <point x="1315" y="0" type="line"/>
      <point x="1370" y="0" type="line"/>
      <point x="1370" y="1456" type="line"/>
      <point x="1351" y="1456" type="line"/>
      <point x="815" y="73" type="line"/>
      <point x="806" y="53"/>
      <point x="780" y="-11"/>
      <point x="779" y="-23" type="qcurve"/>
      <point x="766" y="-23" type="line"/>
      <point x="764" y="-10"/>
      <point x="739" y="52"/>
      <point x="731" y="71" type="qcurve" smooth="yes"/>
      <point x="186" y="1456" type="line"/>
      <point x="170" y="1456" type="line"/>
    </contour>
  </outline>
</glyph>
<glyph name="N" format="1">
  <advance width="1310"/>
  <unicode hex="004E"/>
  <outline>
    <contour>
      <point x="170" y="0" type="line"/>
      <point x="224" y="0" type="line"/>
      <point x="224" y="1034" type="line" smooth="yes"/>
      <point x="224" y="1093"/>
      <point x="226" y="1269"/>
      <point x="228" y="1346" type="qcurve"/>
      <point x="239" y="1346" type="line"/>
      <point x="259" y="1316"/>
      <point x="417" y="1063"/>
      <point x="426" y="1049" type="qcurve" smooth="yes"/>
      <point x="1109" y="0" type="line"/>
      <point x="1140" y="0" type="line"/>
      <point x="1140" y="1456" type="line"/>
      <point x="1086" y="1456" type="line"/>
      <point x="1086" y="396" type="line" smooth="yes"/>
      <point x="1086" y="383"/>
      <point x="1083" y="154"/>
      <point x="1082" y="134" type="qcurve"/>
      <point x="1072" y="134" type="line"/>
      <point x="1058" y="154"/>
      <point x="937" y="362"/>
      <point x="927" y="377" type="qcurve" smooth="yes"/>
      <point x="222" y="1456" type="line"/>
      <point x="170" y="1456" type="line"/>
    </contour>
  </outline>
</glyph>
<glyph name="O" format="1">
  <advance width="1179"/>
  <unicode hex="004F"/>
  <outline>
    <contour>
      <point x="115" y="682" type="line" smooth="yes"/>
      <point x="115" y="346"/>
      <point x="383" y="-30"/>
      <point x="590" y="-30" type="qcurve" smooth="yes"/>
      <point x="797" y="-30"/>
      <point x="1064" y="346"/>
      <point x="1064" y="682" type="qcurve" smooth="yes"/>
      <point x="1064" y="774" type="line" smooth="yes"/>
      <point x="1064" y="1112"/>
      <point x="797" y="1486"/>
      <point x="589" y="1486" type="qcurve" smooth="yes"/>
      <point x="381" y="1486"/>
      <point x="115" y="1109"/>
      <point x="115" y="774" type="qcurve" smooth="yes"/>
    </contour>
    <contour>
      <point x="170" y="678" type="qcurve" smooth="yes"/>
      <point x="170" y="780" type="line" smooth="yes"/>
      <point x="170" y="1097"/>
      <point x="395" y="1432"/>
      <point x="589" y="1432" type="qcurve" smooth="yes"/>
      <point x="783" y="1432"/>
      <point x="1009" y="1094"/>
      <point x="1009" y="780" type="qcurve" smooth="yes"/>
      <point x="1009" y="678" type="line" smooth="yes"/>
      <point x="1009" y="359"/>
      <point x="790" y="24"/>
      <point x="591" y="24" type="qcurve" smooth="yes"/>
      <point x="392" y="24"/>
      <point x="170" y="361"/>
    </contour>
  </outline>
</glyph>
<glyph name="P" format="1">
  <advance width="923"/>
  <unicode hex="0050"/>
  <outline>
    <contour>
      <point x="170" y="0" type="line"/>
      <point x="224" y="0" type="line"/>
      <point x="224" y="615" type="line"/>
      <point x="504" y="615" type="line" smooth="yes"/>
      <point x="686" y="615"/>
      <point x="875" y="841"/>
      <point x="875" y="1045" type="qcurve" smooth="yes"/>
      <point x="875" y="1230"/>
      <point x="686" y="1456"/>
      <point x="504" y="1456" type="qcurve" smooth="yes"/>
      <point x="170" y="1456" type="line"/>
    </contour>
    <contour>
      <point x="224" y="669" type="line"/>
      <point x="224" y="1402" type="line"/>
      <point x="512" y="1402" type="line" smooth="yes"/>
      <point x="676" y="1402"/>
      <point x="820" y="1182"/>
      <point x="820" y="1043" type="qcurve" smooth="yes"/>
      <point x="820" y="892"/>
      <point x="676" y="669"/>
      <point x="512" y="669" type="qcurve" smooth="yes"/>
    </contour>
  </outline>
</glyph>
<glyph name="Q" format="1">
  <advance width="1179"/>
  <unicode hex="0051"/>
  <outline>
    <contour>
      <point x="1051" y="-246" type="line"/>
      <point x="1090" y="-210" type="line"/>
      <point x="760" y="51" type="line"/>
      <point x="727" y="10" type="line"/>
    </contour>
    <contour>
      <point x="115" y="682" type="line" smooth="yes"/>
      <point x="115" y="334"/>
      <point x="382" y="-25"/>
      <point x="596" y="-25" type="qcurve" smooth="yes"/>
      <point x="798" y="-25"/>
      <point x="1064" y="336"/>
      <point x="1064" y="682" type="qcurve" smooth="yes"/>
      <point x="1064" y="774" type="line" smooth="yes"/>
      <point x="1064" y="1129"/>
      <point x="798" y="1486"/>
      <point x="589" y="1486" type="qcurve" smooth="yes"/>
      <point x="380" y="1486"/>
      <point x="115" y="1127"/>
      <point x="115" y="774" type="qcurve" smooth="yes"/>
    </contour>
    <contour>
      <point x="170" y="678" type="qcurve" smooth="yes"/>
      <point x="170" y="780" type="line" smooth="yes"/>
      <point x="170" y="1106"/>
      <point x="425" y="1432"/>
      <point x="589" y="1432" type="qcurve" smooth="yes"/>
      <point x="764" y="1432"/>
      <point x="1009" y="1108"/>
      <point x="1009" y="780" type="qcurve" smooth="yes"/>
      <point x="1009" y="678" type="line" smooth="yes"/>
      <point x="1009" y="359"/>
      <point x="765" y="29"/>
      <point x="591" y="29" type="qcurve" smooth="yes"/>
      <point x="424" y="29"/>
      <point x="170" y="356"/>
    </contour>
  </outline>
</glyph>
<glyph name="R" format="1">
  <advance width="986"/>
  <unicode hex="0052"/>
  <outline>
    <contour>
      <point x="884" y="0" type="line"/>
      <point x="945" y="0" type="line"/>
      <point x="940" y="8" type="line"/>
      <point x="587" y="661" type="line"/>
      <point x="523" y="661" type="line"/>
    </contour>
    <contour>
      <point x="170" y="0" type="line"/>
      <point x="224" y="0" type="line"/>
      <point x="224" y="637" type="line"/>
      <point x="588" y="637" type="line"/>
      <point x="726" y="656"/>
      <point x="857" y="830"/>
      <point x="857" y="1035" type="qcurve" smooth="yes"/>
      <point x="857" y="1248"/>
      <point x="663" y="1456"/>
      <point x="493" y="1456" type="qcurve" smooth="yes"/>
      <point x="170" y="1456" type="line"/>
    </contour>
    <contour>
      <point x="224" y="691" type="line"/>
      <point x="224" y="1402" type="line"/>
      <point x="483" y="1402" type="line" smooth="yes"/>
      <point x="634" y="1402"/>
      <point x="801" y="1218"/>
      <point x="801" y="1019" type="qcurve" smooth="yes"/>
      <point x="801" y="868"/>
      <point x="639" y="691"/>
      <point x="489" y="691" type="qcurve" smooth="yes"/>
    </contour>
  </outline>
</glyph>
<glyph name="S" format="1">
  <advance width="939"/>
  <unicode hex="0053"/>
  <outline>
    <contour>
      <point x="88" y="394" type="line" smooth="yes"/>
      <point x="88" y="168"/>
      <point x="318" y="-30"/>
      <point x="486" y="-30" type="qcurve" smooth="yes"/>
      <point x="664" y="-30"/>
      <point x="864" y="198"/>
      <point x="864" y="369" type="qcurve" smooth="yes"/>
      <point x="864" y="535"/>
      <point x="691" y="704"/>
      <point x="505" y="767" type="qcurve" smooth="yes"/>
      <point x="311" y="833"/>
      <point x="174" y="984"/>
      <point x="174" y="1140" type="qcurve" smooth="yes"/>
      <point x="174" y="1276"/>
      <point x="343" y="1432"/>
      <point x="474" y="1432" type="qcurve" smooth="yes"/>
      <point x="606" y="1432"/>
      <point x="782" y="1261"/>
      <point x="782" y="1070" type="qcurve" smooth="yes"/>
      <point x="782" y="1056" type="line"/>
      <point x="843" y="1056" type="line"/>
      <point x="843" y="1071" type="line" smooth="yes"/>
      <point x="843" y="1255"/>
      <point x="647" y="1486"/>
      <point x="475" y="1486" type="qcurve" smooth="yes"/>
      <point x="323" y="1486"/>
      <point x="118" y="1266"/>
      <point x="118" y="1087" type="qcurve" smooth="yes"/>
      <point x="118" y="938"/>
      <point x="276" y="783"/>
      <point x="483" y="714" type="qcurve" smooth="yes"/>
      <point x="675" y="650"/>
      <point x="808" y="502"/>
      <point x="808" y="343" type="qcurve" smooth="yes"/>
      <point x="808" y="185"/>
      <point x="639" y="26"/>
      <point x="476" y="26" type="qcurve" smooth="yes"/>
      <point x="341" y="26"/>
      <point x="142" y="187"/>
      <point x="142" y="398" type="qcurve" smooth="yes"/>
      <point x="142" y="405" type="line"/>
      <point x="88" y="405" type="line"/>
    </contour>
  </outline>
</glyph>
<glyph name="T" format="1">
  <advance width="916"/>
  <unicode hex="0054"/>
  <outline>
    <contour>
      <point x="24" y="1402" type="line"/>
      <point x="432" y="1402" type="line"/>
      <point x="432" y="0" type="line"/>
      <point x="484" y="0" type="line"/>
      <point x="484" y="1402" type="line"/>
      <point x="892" y="1402" type="line"/>
      <point x="892" y="1456" type="line"/>
      <point x="24" y="1456" type="line"/>
    </contour>
  </outline>
</glyph>
<glyph name="U" format="1">
  <advance width="1043"/>
  <unicode hex="0055"/>
  <outline>
    <contour>
      <point x="132" y="471" type="line" smooth="yes"/>
      <point x="132" y="210"/>
      <point x="342" y="-30"/>
      <point x="520" y="-30" type="qcurve" smooth="yes"/>
      <point x="698" y="-30"/>
      <point x="911" y="210"/>
      <point x="911" y="471" type="qcurve" smooth="yes"/>
      <point x="911" y="1456" type="line"/>
      <point x="857" y="1456" type="line"/>
      <point x="857" y="451" type="line" smooth="yes"/>
      <point x="857" y="223"/>
      <point x="654" y="24"/>
      <point x="520" y="24" type="qcurve" smooth="yes"/>
      <point x="389" y="24"/>
      <point x="186" y="223"/>
      <point x="186" y="451" type="qcurve" smooth="yes"/>
      <point x="186" y="1456" type="line"/>
      <point x="132" y="1456" type="line"/>
    </contour>
  </outline>
</glyph>
<glyph name="V" format="1">
  <advance width="1141"/>
  <unicode hex="0056"/>
  <outline>
    <contour>
      <point x="28" y="1456" type="line"/>
      <point x="558" y="-10" type="line"/>
      <point x="568" y="-10" type="line"/>
      <point x="1113" y="1456" type="line"/>
      <point x="1055" y="1456" type="line"/>
      <point x="629" y="309" type="line" smooth="yes"/>
      <point x="618" y="279"/>
      <point x="571" y="171"/>
      <point x="558" y="128" type="qcurve"/>
      <point x="558" y="128" type="line"/>
      <point x="544" y="170"/>
      <point x="495" y="313"/>
      <point x="472" y="377" type="qcurve" smooth="yes"/>
      <point x="86" y="1456" type="line"/>
    </contour>
  </outline>
</glyph>
<glyph name="W" format="1">
  <advance width="1446"/>
  <unicode hex="0057"/>
  <outline>
    <contour>
      <point x="53" y="1456" type="line"/>
      <point x="401" y="-10" type="line"/>
      <point x="401" y="-10" type="line"/>
      <point x="677" y="1122" type="line" smooth="yes"/>
      <point x="684" y="1151"/>
      <point x="707" y="1235"/>
      <point x="715" y="1279" type="qcurve"/>
      <point x="724" y="1279" type="line"/>
      <point x="729" y="1236"/>
      <point x="760" y="1088"/>
      <point x="768" y="1058" type="qcurve" smooth="yes"/>
      <point x="1062" y="-10" type="line"/>
      <point x="1055" y="-10" type="line"/>
      <point x="1393" y="1456" type="line"/>
      <point x="1339" y="1456" type="line"/>
      <point x="1079" y="358" type="line" smooth="yes"/>
      <point x="1073" y="332"/>
      <point x="1054" y="254"/>
      <point x="1052" y="233" type="qcurve"/>
      <point x="1038" y="233" type="line"/>
      <point x="1035" y="255"/>
      <point x="1025" y="331"/>
      <point x="1018" y="358" type="qcurve" smooth="yes"/>
      <point x="725" y="1456" type="line"/>
      <point x="702" y="1456" type="line"/>
      <point x="438" y="369" type="line" smooth="yes"/>
      <point x="431" y="341"/>
      <point x="415" y="279"/>
      <point x="404" y="236" type="qcurve"/>
      <point x="396" y="236" type="line"/>
      <point x="388" y="269"/>
      <point x="373" y="341"/>
      <point x="367" y="369" type="qcurve" smooth="yes"/>
      <point x="108" y="1456" type="line"/>
    </contour>
  </outline>
</glyph>
<glyph name="X" format="1">
  <advance width="1188"/>
  <unicode hex="0058"/>
  <outline>
    <contour>
      <point x="64" y="1456" type="line"/>
      <point x="531" y="726" type="line"/>
      <point x="573" y="726" type="line"/>
      <point x="1048" y="0" type="line"/>
      <point x="1125" y="0" type="line"/>
      <point x="627" y="763" type="line"/>
      <point x="585" y="763" type="line"/>
      <point x="139" y="1456" type="line"/>
    </contour>
    <contour>
      <point x="32" y="3" type="line"/>
      <point x="97" y="3" type="line"/>
      <point x="575" y="729" type="line"/>
      <point x="633" y="729" type="line"/>
      <point x="1107" y="1456" type="line"/>
      <point x="1040" y="1456" type="line"/>
      <point x="600" y="786" type="line"/>
      <point x="546" y="786" type="line"/>
    </contour>
  </outline>
</glyph>
<glyph name="Y" format="1">
  <advance width="1048"/>
  <unicode hex="0059"/>
  <outline>
    <contour>
      <point x="16" y="1456" type="line"/>
      <point x="518" y="544" type="line"/>
      <point x="518" y="0" type="line"/>
      <point x="572" y="0" type="line"/>
      <point x="572" y="604" type="line"/>
      <point x="1032" y="1456" type="line"/>
      <point x="970" y="1456" type="line"/>
      <point x="619" y="817" type="line" smooth="yes"/>
      <point x="601" y="784"/>
      <point x="547" y="695"/>
      <point x="519" y="636" type="qcurve"/>
      <point x="517" y="636" type="line"/>
      <point x="510" y="655"/>
      <point x="454" y="773"/>
      <point x="439" y="801" type="qcurve" smooth="yes"/>
      <point x="78" y="1456" type="line"/>
    </contour>
  </outline>
</glyph>
<glyph name="Z" format="1">
  <advance width="1019"/>
  <unicode hex="005A"/>
  <outline>
    <contour>
      <point x="36" y="0" type="line"/>
      <point x="983" y="0" type="line"/>
      <point x="983" y="54" type="line"/>
      <point x="82" y="54" type="line"/>
      <point x="951" y="1382" type="line"/>
      <point x="951" y="1456" type="line"/>
      <point x="67" y="1456" type="line"/>
      <point x="67" y="1402" type="line"/>
      <point x="906" y="1402" type="line"/>
      <point x="36" y="71" type="line"/>
    </contour>
  </outline>
</glyph>
<glyph name="backslash" format="1">
  <advance width="373"/>
  <unicode hex="005C"/>
  <outline>
    <contour>
      <point x="442" y="-135" type="line"/>
      <point x="-35" y="1456" type="line"/>
      <point x="-69" y="1456" type="line"/>
      <point x="407" y="-135" type="line"/>
    </contour>
  </outline>
</glyph>
<glyph name="asciicircum" format="1">
  <advance width="874"/>
  <unicode hex="005E"/>
  <outline>
    <contour>
      <point x="81" y="811" type="line"/>
      <point x="117" y="811" type="line"/>
      <point x="437" y="1454" type="line"/>
      <point x="756" y="811" type="line"/>
      <point x="791" y="811" type="line"/>
      <point x="479" y="1502" type="line"/>
      <point x="395" y="1502" type="line"/>
    </contour>
  </outline>
</glyph>
<glyph name="underscore" format="1">
  <advance width="645"/>
  <unicode hex="005F"/>
  <outline>
    <contour>
      <point x="0" y="-296" type="line"/>
      <point x="152" y="-296" type="line"/>
      <point x="152" y="-230" type="line"/>
      <point x="0" y="-230" type="line"/>
    </contour>
    <contour>
      <point x="247" y="-296" type="line"/>
      <point x="398" y="-296" type="line"/>
      <point x="398" y="-230" type="line"/>
      <point x="247" y="-230" type="line"/>
    </contour>
    <contour>
      <point x="493" y="-296" type="line"/>
      <point x="645" y="-296" type="line"/>
      <point x="645" y="-230" type="line"/>
      <point x="493" y="-230" type="line"/>
    </contour>
  </outline>
</glyph>
<glyph name="grave" format="1">
  <advance width="855"/>
  <unicode hex="0060"/>
  <outline>
    <contour>
      <point x="389" y="1503" type="line"/>
      <point x="347" y="1503" type="line"/>
      <point x="467" y="1283" type="line"/>
      <point x="535" y="1283" type="line"/>
      <point x="535" y="1217" type="line"/>
    </contour>
  </outline>
</glyph>
<glyph name="a" format="1">
  <advance width="834"/>
  <unicode hex="0061"/>
  <outline>
    <contour>
      <point x="91" y="276" type="qcurve" smooth="yes"/>
      <point x="91" y="136"/>
      <point x="253" y="-20"/>
      <point x="362" y="-20" type="qcurve" smooth="yes"/>
      <point x="462" y="-20"/>
      <point x="586" y="69"/>
      <point x="648" y="148" type="qcurve"/>
      <point x="656" y="74"/>
      <point x="671" y="6"/>
      <point x="674" y="0" type="qcurve"/>
      <point x="732" y="0" type="line"/>
      <point x="732" y="12" type="line"/>
      <point x="718" y="52"/>
      <point x="702" y="181"/>
      <point x="702" y="236" type="qcurve" smooth="yes"/>
      <point x="702" y="721" type="line" smooth="yes"/>
      <point x="702" y="904"/>
      <point x="563" y="1082"/>
      <point x="436" y="1082" type="qcurve" smooth="yes"/>
      <point x="296" y="1082"/>
      <point x="154" y="893"/>
      <point x="154" y="771" type="qcurve" smooth="yes"/>
      <point x="154" y="762" type="line"/>
      <point x="206" y="762" type="line"/>
      <point x="206" y="784" type="line" smooth="yes"/>
      <point x="206" y="898"/>
      <point x="319" y="1032"/>
      <point x="432" y="1032" type="qcurve" smooth="yes"/>
      <point x="532" y="1032"/>
      <point x="651" y="892"/>
      <point x="651" y="744" type="qcurve" smooth="yes"/>
      <point x="651" y="613" type="line"/>
      <point x="401" y="613" type="line" smooth="yes"/>
      <point x="237" y="613"/>
      <point x="91" y="416"/>
    </contour>
    <contour>
      <point x="146" y="303" type="qcurve" smooth="yes"/>
      <point x="146" y="428"/>
      <point x="316" y="563"/>
      <point x="447" y="563" type="qcurve" smooth="yes"/>
      <point x="651" y="563" type="line"/>
      <point x="651" y="311" type="line"/>
      <point x="647" y="209"/>
      <point x="480" y="30"/>
      <point x="359" y="30" type="qcurve" smooth="yes"/>
      <point x="251" y="30"/>
      <point x="146" y="178"/>
    </contour>
  </outline>
</glyph>
<glyph name="b" format="1">
  <advance width="886"/>
  <unicode hex="0062"/>
  <outline>
    <contour>
      <point x="148" y="0" type="line"/>
      <point x="194" y="0" type="line"/>
      <point x="201" y="147" type="line"/>
      <point x="253" y="69"/>
      <point x="404" y="-15"/>
      <point x="494" y="-15" type="qcurve" smooth="yes"/>
      <point x="642" y="-15"/>
      <point x="801" y="267"/>
      <point x="801" y="529" type="qcurve" smooth="yes"/>
      <point x="801" y="550" type="line" smooth="yes"/>
      <point x="801" y="806"/>
      <point x="642" y="1082"/>
      <point x="494" y="1082" type="qcurve" smooth="yes"/>
      <point x="403" y="1082"/>
      <point x="252" y="996"/>
      <point x="202" y="916" type="qcurve"/>
      <point x="202" y="1536" type="line"/>
      <point x="148" y="1536" type="line"/>
    </contour>
    <contour>
      <point x="202" y="281" type="qcurve"/>
      <point x="202" y="767" type="line"/>
      <point x="225" y="870"/>
      <point x="384" y="1032"/>
      <point x="482" y="1032" type="qcurve" smooth="yes"/>
      <point x="600" y="1032"/>
      <point x="765" y="776"/>
      <point x="765" y="534" type="qcurve" smooth="yes"/>
      <point x="765" y="511" type="line" smooth="yes"/>
      <point x="765" y="256"/>
      <point x="604" y="35"/>
      <point x="487" y="35" type="qcurve" smooth="yes"/>
      <point x="391" y="35"/>
      <point x="236" y="185"/>
    </contour>
  </outline>
</glyph>
<glyph name="c" format="1">
  <advance width="770"/>
  <unicode hex="0063"/>
  <outline>
    <contour>
      <point x="85" y="511" type="line" smooth="yes"/>
      <point x="85" y="275"/>
      <point x="286" y="-30"/>
      <point x="433" y="-30" type="qcurve" smooth="yes"/>
      <point x="563" y="-30"/>
      <point x="734" y="171"/>
      <point x="734" y="327" type="qcurve" smooth="yes"/>
      <point x="734" y="332" type="line"/>
      <point x="688" y="332" type="line"/>
      <point x="688" y="305" type="line" smooth="yes"/>
      <point x="688" y="171"/>
      <point x="557" y="20"/>
      <point x="433" y="20" type="qcurve" smooth="yes"/>
      <point x="295" y="20"/>
      <point x="140" y="285"/>
      <point x="140" y="490" type="qcurve" smooth="yes"/>
      <point x="140" y="576" type="line" smooth="yes"/>
      <point x="140" y="782"/>
      <point x="299" y="1032"/>
      <point x="433" y="1032" type="qcurve" smooth="yes"/>
      <point x="567" y="1032"/>
      <point x="688" y="835"/>
      <point x="688" y="712" type="qcurve" smooth="yes"/>
      <point x="688" y="690" type="line"/>
      <point x="734" y="690" type="line"/>
      <point x="734" y="693" type="line" smooth="yes"/>
      <point x="734" y="863"/>
      <point x="563" y="1082"/>
      <point x="433" y="1082" type="qcurve" smooth="yes"/>
      <point x="286" y="1082"/>
      <point x="85" y="784"/>
      <point x="85" y="554" type="qcurve" smooth="yes"/>
    </contour>
  </outline>
</glyph>
<glyph name="d" format="1">
  <advance width="901"/>
  <unicode hex="0064"/>
  <outline>
    <contour>
      <point x="85" y="518" type="line" smooth="yes"/>
      <point x="85" y="259"/>
      <point x="265" y="-20"/>
      <point x="413" y="-20" type="qcurve" smooth="yes"/>
      <point x="503" y="-20"/>
      <point x="652" y="75"/>
      <point x="703" y="158" type="qcurve"/>
      <point x="707" y="0" type="line"/>
      <point x="753" y="0" type="line"/>
      <point x="753" y="1536" type="line"/>
      <point x="699" y="1536" type="line"/>
      <point x="699" y="923" type="line"/>
      <point x="647" y="997"/>
      <point x="509" y="1077"/>
      <point x="414" y="1077" type="qcurve" smooth="yes"/>
      <point x="265" y="1077"/>
      <point x="85" y="798"/>
      <point x="85" y="538" type="qcurve" smooth="yes"/>
    </contour>
    <contour>
      <point x="140" y="490" type="qcurve" smooth="yes"/>
      <point x="140" y="566" type="line" smooth="yes"/>
      <point x="140" y="746"/>
      <point x="292" y="1027"/>
      <point x="424" y="1027" type="qcurve" smooth="yes"/>
      <point x="526" y="1027"/>
      <point x="671" y="877"/>
      <point x="699" y="804" type="qcurve"/>
      <point x="699" y="267" type="line"/>
      <point x="675" y="185"/>
      <point x="530" y="30"/>
      <point x="422" y="30" type="qcurve" smooth="yes"/>
      <point x="290" y="30"/>
      <point x="140" y="265"/>
    </contour>
  </outline>
</glyph>
<glyph name="e" format="1">
  <advance width="781"/>
  <unicode hex="0065"/>
  <outline>
    <contour>
      <point x="85" y="504" type="line" smooth="yes"/>
      <point x="85" y="243"/>
      <point x="271" y="-30"/>
      <point x="423" y="-30" type="qcurve" smooth="yes"/>
      <point x="542" y="-30"/>
      <point x="690" y="119"/>
      <point x="722" y="214" type="qcurve" smooth="yes"/>
      <point x="727" y="229" type="line"/>
      <point x="674" y="277" type="line"/>
      <point x="669" y="263" type="line" smooth="yes"/>
      <point x="636" y="171"/>
      <point x="525" y="20"/>
      <point x="420" y="20" type="qcurve" smooth="yes"/>
      <point x="323" y="20"/>
      <point x="132" y="252"/>
      <point x="132" y="500" type="qcurve" smooth="yes"/>
      <point x="132" y="547" type="line" smooth="yes"/>
      <point x="132" y="787"/>
      <point x="310" y="1032"/>
      <point x="423" y="1032" type="qcurve" smooth="yes"/>
      <point x="553" y="1032"/>
      <point x="683" y="812"/>
      <point x="683" y="668" type="qcurve" smooth="yes"/>
      <point x="683" y="592" type="line"/>
      <point x="115" y="592" type="line"/>
      <point x="115" y="544" type="line"/>
      <point x="725" y="544" type="line"/>
      <point x="725" y="572" type="line" smooth="yes"/>
      <point x="725" y="804"/>
      <point x="568" y="1082"/>
      <point x="425" y="1082" type="qcurve" smooth="yes"/>
      <point x="279" y="1082"/>
      <point x="85" y="801"/>
      <point x="85" y="545" type="qcurve" smooth="yes"/>
    </contour>
  </outline>
</glyph>
<glyph name="f" format="1">
  <advance width="390"/>
  <unicode hex="0066"/>
  <outline>
    <contour>
      <point x="163" y="0" type="line"/>
      <point x="217" y="0" type="line"/>
      <point x="217" y="1019" type="line"/>
      <point x="217" y="1041" type="line"/>
      <point x="217" y="1227" type="line" smooth="yes"/>
      <point x="217" y="1373"/>
      <point x="318" y="1499"/>
      <point x="399" y="1499" type="qcurve"/>
      <point x="399" y="1499"/>
      <point x="417" y="1494"/>
      <point x="450" y="1485" type="qcurve"/>
      <point x="457" y="1541" type="line"/>
      <point x="449" y="1548"/>
      <point x="419" y="1557"/>
      <point x="400" y="1557" type="qcurve" smooth="yes"/>
      <point x="301" y="1557"/>
      <point x="163" y="1386"/>
      <point x="163" y="1196" type="qcurve" smooth="yes"/>
    </contour>
    <contour>
      <point x="26" y="1004" type="line"/>
      <point x="400" y="1004" type="line"/>
      <point x="400" y="1052" type="line"/>
      <point x="208" y="1052" type="line"/>
      <point x="182" y="1052" type="line"/>
      <point x="26" y="1052" type="line"/>
    </contour>
  </outline>
</glyph>
<glyph name="g" format="1">
  <advance width="892"/>
  <unicode hex="0067"/>
  <outline>
    <contour>
      <point x="113" y="-284" type="line"/>
      <point x="143" y="-327"/>
      <point x="323" y="-437"/>
      <point x="428" y="-437" type="qcurve" smooth="yes"/>
      <point x="555" y="-437"/>
      <point x="752" y="-208"/>
      <point x="752" y="23" type="qcurve" smooth="yes"/>
      <point x="752" y="1052" type="line"/>
      <point x="696" y="1052" type="line"/>
      <point x="698" y="878" type="line"/>
      <point x="657" y="968"/>
      <point x="496" y="1077"/>
      <point x="409" y="1077" type="qcurve" smooth="yes"/>
      <point x="278" y="1077"/>
      <point x="85" y="798"/>
      <point x="85" y="537" type="qcurve" smooth="yes"/>
      <point x="85" y="516" type="line" smooth="yes"/>
      <point x="85" y="273"/>
      <point x="262" y="-10"/>
      <point x="416" y="-10" type="qcurve" smooth="yes"/>
      <point x="516" y="-10"/>
      <point x="659" y="111"/>
      <point x="697" y="193" type="qcurve"/>
      <point x="697" y="14" type="line" smooth="yes"/>
      <point x="697" y="-166"/>
      <point x="555" y="-389"/>
      <point x="417" y="-389" type="qcurve" smooth="yes"/>
      <point x="318" y="-389"/>
      <point x="199" y="-273"/>
      <point x="175" y="-193" type="qcurve"/>
    </contour>
    <contour>
      <point x="144" y="518" type="qcurve" smooth="yes"/>
      <point x="144" y="542" type="line" smooth="yes"/>
      <point x="144" y="784"/>
      <point x="302" y="1027"/>
      <point x="420" y="1027" type="qcurve" smooth="yes"/>
      <point x="522" y="1027"/>
      <point x="674" y="844"/>
      <point x="698" y="736" type="qcurve"/>
      <point x="698" y="307" type="line"/>
      <point x="666" y="203"/>
      <point x="521" y="40"/>
      <point x="418" y="40" type="qcurve" smooth="yes"/>
      <point x="298" y="40"/>
      <point x="144" y="278"/>
    </contour>
  </outline>
</glyph>
<glyph name="h" format="1">
  <advance width="864"/>
  <unicode hex="0068"/>
  <outline>
    <contour>
      <point x="148" y="0" type="line"/>
      <point x="202" y="0" type="line"/>
      <point x="202" y="778" type="line"/>
      <point x="232" y="864"/>
      <point x="374" y="1022"/>
      <point x="477" y="1022" type="qcurve" smooth="yes"/>
      <point x="564" y="1022"/>
      <point x="681" y="875"/>
      <point x="681" y="675" type="qcurve" smooth="yes"/>
      <point x="681" y="0" type="line"/>
      <point x="735" y="0" type="line"/>
      <point x="735" y="724" type="line" smooth="yes"/>
      <point x="735" y="899"/>
      <point x="592" y="1072"/>
      <point x="478" y="1072" type="qcurve" smooth="yes"/>
      <point x="380" y="1072"/>
      <point x="235" y="974"/>
      <point x="202" y="924" type="qcurve"/>
      <point x="202" y="1536" type="line"/>
      <point x="148" y="1536" type="line"/>
    </contour>
  </outline>
</glyph>
<glyph name="i" format="1">
  <advance width="361"/>
  <unicode hex="0069"/>
  <outline>
    <contour>
      <point x="154" y="0" type="line"/>
      <point x="208" y="0" type="line"/>
      <point x="208" y="1052" type="line"/>
      <point x="154" y="1052" type="line"/>
    </contour>
    <contour>
      <point x="140" y="1369" type="qcurve" smooth="yes"/>
      <point x="140" y="1335"/>
      <point x="162" y="1313"/>
      <point x="180" y="1313" type="qcurve" smooth="yes"/>
      <point x="200" y="1313"/>
      <point x="221" y="1335"/>
      <point x="221" y="1369" type="qcurve" smooth="yes"/>
      <point x="221" y="1405"/>
      <point x="200" y="1429"/>
      <point x="180" y="1429" type="qcurve" smooth="yes"/>
      <point x="162" y="1429"/>
      <point x="140" y="1405"/>
    </contour>
  </outline>
</glyph>
<glyph name="j" format="1">
  <advance width="358"/>
  <unicode hex="006A"/>
  <outline>
    <contour>
      <point x="-82" y="-411" type="line"/>
      <point x="-60" y="-423"/>
      <point x="12" y="-437"/>
      <point x="35" y="-437" type="qcurve" smooth="yes"/>
      <point x="117" y="-437"/>
      <point x="200" y="-268"/>
      <point x="200" y="-76" type="qcurve" smooth="yes"/>
      <point x="200" y="1052" type="line"/>
      <point x="146" y="1052" type="line"/>
      <point x="146" y="-154" type="line" smooth="yes"/>
      <point x="146" y="-288"/>
      <point x="75" y="-387"/>
      <point x="23" y="-387" type="qcurve" smooth="yes"/>
      <point x="-21" y="-387"/>
      <point x="-61" y="-362"/>
      <point x="-82" y="-347" type="qcurve"/>
    </contour>
    <contour>
      <point x="131" y="1369" type="qcurve" smooth="yes"/>
      <point x="131" y="1335"/>
      <point x="152" y="1313"/>
      <point x="171" y="1313" type="qcurve" smooth="yes"/>
      <point x="189" y="1313"/>
      <point x="211" y="1335"/>
      <point x="211" y="1369" type="qcurve" smooth="yes"/>
      <point x="211" y="1405"/>
      <point x="189" y="1429"/>
      <point x="171" y="1429" type="qcurve" smooth="yes"/>
      <point x="152" y="1429"/>
      <point x="131" y="1405"/>
    </contour>
  </outline>
</glyph>
<glyph name="k" format="1">
  <advance width="874"/>
  <unicode hex="006B"/>
  <outline>
    <contour>
      <point x="825" y="0" type="line"/>
      <point x="890" y="0" type="line"/>
      <point x="430" y="602" type="line"/>
      <point x="395" y="563" type="line"/>
    </contour>
    <contour>
      <point x="146" y="0" type="line"/>
      <point x="200" y="0" type="line"/>
      <point x="200" y="351" type="line"/>
      <point x="863" y="1052" type="line"/>
      <point x="793" y="1052" type="line"/>
      <point x="265" y="492" type="line" smooth="yes"/>
      <point x="254" y="480"/>
      <point x="215" y="440"/>
      <point x="200" y="425" type="qcurve"/>
      <point x="200" y="1536" type="line"/>
      <point x="146" y="1536" type="line"/>
    </contour>
  </outline>
</glyph>
<glyph name="m" format="1">
  <advance width="1368"/>
  <unicode hex="006D"/>
  <outline>
    <contour>
      <point x="148" y="0" type="line"/>
      <point x="202" y="0" type="line"/>
      <point x="202" y="766" type="line"/>
      <point x="236" y="877"/>
      <point x="384" y="1022"/>
      <point x="474" y="1022" type="qcurve" smooth="yes"/>
      <point x="562" y="1022"/>
      <point x="662" y="882"/>
      <point x="662" y="700" type="qcurve" smooth="yes"/>
      <point x="662" y="0" type="line"/>
      <point x="716" y="0" type="line"/>
      <point x="716" y="764" type="line"/>
      <point x="740" y="875"/>
      <point x="890" y="1022"/>
      <point x="983" y="1022" type="qcurve" smooth="yes"/>
      <point x="1071" y="1022"/>
      <point x="1176" y="886"/>
      <point x="1176" y="701" type="qcurve" smooth="yes"/>
      <point x="1176" y="0" type="line"/>
      <point x="1230" y="0" type="line"/>
      <point x="1230" y="681" type="line" smooth="yes"/>
      <point x="1230" y="895"/>
      <point x="1105" y="1072"/>
      <point x="987" y="1072" type="qcurve" smooth="yes"/>
      <point x="884" y="1072"/>
      <point x="733" y="976"/>
      <point x="695" y="916" type="qcurve"/>
      <point x="673" y="970"/>
      <point x="571" y="1072"/>
      <point x="482" y="1072" type="qcurve" smooth="yes"/>
      <point x="393" y="1072"/>
      <point x="235" y="977"/>
      <point x="197" y="917" type="qcurve"/>
      <point x="194" y="917" type="line"/>
      <point x="194" y="1052" type="line"/>
      <point x="148" y="1052" type="line"/>
    </contour>
  </outline>
</glyph>
<glyph name="n" format="1">
  <advance width="873"/>
  <unicode hex="006E"/>
  <outline>
    <contour>
      <point x="148" y="0" type="line"/>
      <point x="202" y="0" type="line"/>
      <point x="202" y="860" type="line"/>
      <point x="238" y="925"/>
      <point x="374" y="1022"/>
      <point x="468" y="1022" type="qcurve" smooth="yes"/>
      <point x="568" y="1022"/>
      <point x="681" y="881"/>
      <point x="681" y="681" type="qcurve" smooth="yes"/>
      <point x="681" y="0" type="line"/>
      <point x="735" y="0" type="line"/>
      <point x="735" y="679" type="line" smooth="yes"/>
      <point x="735" y="891"/>
      <point x="591" y="1072"/>
      <point x="478" y="1072" type="qcurve" smooth="yes"/>
      <point x="384" y="1072"/>
      <point x="236" y="974"/>
      <point x="198" y="917" type="qcurve"/>
      <point x="194" y="917" type="line"/>
      <point x="194" y="1052" type="line"/>
      <point x="148" y="1052" type="line"/>
    </contour>
  </outline>
</glyph>
<glyph name="o" format="1">
  <advance width="892"/>
  <unicode hex="006F"/>
  <outline>
    <contour>
      <point x="85" y="509" type="line" smooth="yes"/>
      <point x="85" y="253"/>
      <point x="285" y="-30"/>
      <point x="447" y="-30" type="qcurve" smooth="yes"/>
      <point x="609" y="-30"/>
      <point x="807" y="253"/>
      <point x="807" y="509" type="qcurve" smooth="yes"/>
      <point x="807" y="542" type="line" smooth="yes"/>
      <point x="807" y="805"/>
      <point x="611" y="1082"/>
      <point x="445" y="1082" type="qcurve" smooth="yes"/>
      <point x="279" y="1082"/>
      <point x="85" y="798"/>
      <point x="85" y="542" type="qcurve" smooth="yes"/>
    </contour>
    <contour>
      <point x="140" y="542" type="line" smooth="yes"/>
      <point x="140" y="764"/>
      <point x="294" y="1032"/>
      <point x="445" y="1032" type="qcurve" smooth="yes"/>
      <point x="596" y="1032"/>
      <point x="752" y="764"/>
      <point x="752" y="542" type="qcurve" smooth="yes"/>
      <point x="752" y="509" type="line" smooth="yes"/>
      <point x="752" y="284"/>
      <point x="600" y="20"/>
      <point x="447" y="20" type="qcurve" smooth="yes"/>
      <point x="294" y="20"/>
      <point x="140" y="284"/>
      <point x="140" y="509" type="qcurve" smooth="yes"/>
    </contour>
  </outline>
</glyph>
<glyph name="p" format="1">
  <advance width="903"/>
  <unicode hex="0070"/>
  <outline>
    <contour>
      <point x="148" y="-416" type="line"/>
      <point x="202" y="-416" type="line"/>
      <point x="202" y="128" type="line"/>
      <point x="257" y="56"/>
      <point x="410" y="-15"/>
      <point x="483" y="-15" type="qcurve" smooth="yes"/>
      <point x="622" y="-15"/>
      <point x="818" y="273"/>
      <point x="818" y="529" type="qcurve" smooth="yes"/>
      <point x="818" y="550" type="line" smooth="yes"/>
      <point x="818" y="809"/>
      <point x="630" y="1082"/>
      <point x="482" y="1082" type="qcurve" smooth="yes"/>
      <point x="413" y="1082"/>
      <point x="250" y="994"/>
      <point x="202" y="929" type="qcurve"/>
      <point x="202" y="1052" type="line"/>
      <point x="148" y="1052" type="line"/>
    </contour>
    <contour>
      <point x="202" y="318" type="qcurve"/>
      <point x="202" y="743" type="line"/>
      <point x="227" y="869"/>
      <point x="385" y="1032"/>
      <point x="486" y="1032" type="qcurve" smooth="yes"/>
      <point x="614" y="1032"/>
      <point x="763" y="763"/>
      <point x="763" y="553" type="qcurve" smooth="yes"/>
      <point x="763" y="529" type="line" smooth="yes"/>
      <point x="763" y="301"/>
      <point x="614" y="35"/>
      <point x="491" y="35" type="qcurve" smooth="yes"/>
      <point x="383" y="35"/>
      <point x="226" y="201"/>
    </contour>
  </outline>
</glyph>
<glyph name="q" format="1">
  <advance width="891"/>
  <unicode hex="0071"/>
  <outline>
    <contour>
      <point x="85" y="519" type="line" smooth="yes"/>
      <point x="85" y="258"/>
      <point x="266" y="-20"/>
      <point x="413" y="-20" type="qcurve" smooth="yes"/>
      <point x="502" y="-20"/>
      <point x="636" y="71"/>
      <point x="685" y="164" type="qcurve"/>
      <point x="685" y="-416" type="line"/>
      <point x="753" y="-416" type="line"/>
      <point x="753" y="1052" type="line"/>
      <point x="695" y="1052" type="line"/>
      <point x="697" y="925" type="line"/>
      <point x="650" y="996"/>
      <point x="507" y="1077"/>
      <point x="414" y="1077" type="qcurve" smooth="yes"/>
      <point x="269" y="1077"/>
      <point x="85" y="801"/>
      <point x="85" y="539" type="qcurve" smooth="yes"/>
    </contour>
    <contour>
      <point x="140" y="517" type="qcurve" smooth="yes"/>
      <point x="140" y="540" type="line" smooth="yes"/>
      <point x="140" y="754"/>
      <point x="283" y="1030"/>
      <point x="408" y="1030" type="qcurve" smooth="yes"/>
      <point x="515" y="1030"/>
      <point x="665" y="871"/>
      <point x="699" y="763" type="qcurve"/>
      <point x="699" y="297" type="line"/>
      <point x="663" y="188"/>
      <point x="515" y="30"/>
      <point x="406" y="30" type="qcurve" smooth="yes"/>
      <point x="283" y="30"/>
      <point x="140" y="304"/>
    </contour>
  </outline>
</glyph>
<glyph name="r" format="1">
  <advance width="528"/>
  <unicode hex="0072"/>
  <outline>
    <contour>
      <point x="148" y="0" type="line"/>
      <point x="202" y="0" type="line"/>
      <point x="202" y="798" type="line"/>
      <point x="238" y="896"/>
      <point x="375" y="1012"/>
      <point x="436" y="1012" type="qcurve" smooth="yes"/>
      <point x="450" y="1012"/>
      <point x="494" y="1003"/>
      <point x="498" y="998" type="qcurve"/>
      <point x="498" y="1068" type="line"/>
      <point x="482" y="1074"/>
      <point x="424" y="1082"/>
      <point x="409" y="1082" type="qcurve" smooth="yes"/>
      <point x="352" y="1082"/>
      <point x="243" y="993"/>
      <point x="201" y="922" type="qcurve"/>
      <point x="198" y="922" type="line"/>
      <point x="199" y="1052" type="line"/>
      <point x="148" y="1052" type="line"/>
    </contour>
  </outline>
</glyph>
<glyph name="s" format="1">
  <advance width="746"/>
  <unicode hex="0073"/>
  <outline>
    <contour>
      <point x="80" y="312" type="line"/>
      <point x="80" y="309" type="line" smooth="yes"/>
      <point x="80" y="146"/>
      <point x="248" y="-30"/>
      <point x="378" y="-30" type="qcurve" smooth="yes"/>
      <point x="504" y="-30"/>
      <point x="666" y="135"/>
      <point x="666" y="270" type="qcurve" smooth="yes"/>
      <point x="666" y="394"/>
      <point x="511" y="519"/>
      <point x="397" y="565" type="qcurve" smooth="yes"/>
      <point x="285" y="609"/>
      <point x="164" y="727"/>
      <point x="164" y="839" type="qcurve" smooth="yes"/>
      <point x="164" y="928"/>
      <point x="281" y="1034"/>
      <point x="370" y="1034" type="qcurve" smooth="yes"/>
      <point x="473" y="1034"/>
      <point x="596" y="904"/>
      <point x="596" y="785" type="qcurve" smooth="yes"/>
      <point x="596" y="757" type="line"/>
      <point x="650" y="757" type="line"/>
      <point x="650" y="760" type="line" smooth="yes"/>
      <point x="650" y="916"/>
      <point x="495" y="1084"/>
      <point x="375" y="1084" type="qcurve" smooth="yes"/>
      <point x="259" y="1084"/>
      <point x="110" y="921"/>
      <point x="110" y="798" type="qcurve" smooth="yes"/>
      <point x="110" y="686"/>
      <point x="264" y="563"/>
      <point x="372" y="515" type="qcurve" smooth="yes"/>
      <point x="485" y="465"/>
      <point x="613" y="341"/>
      <point x="613" y="239" type="qcurve" smooth="yes"/>
      <point x="613" y="142"/>
      <point x="489" y="20"/>
      <point x="379" y="20" type="qcurve" smooth="yes"/>
      <point x="251" y="20"/>
      <point x="134" y="167"/>
      <point x="134" y="282" type="qcurve" smooth="yes"/>
      <point x="134" y="312" type="line"/>
    </contour>
  </outline>
</glyph>
<glyph name="t" format="1">
  <advance width="520"/>
  <unicode hex="0074"/>
  <outline>
    <contour>
      <point x="0" y="1002" type="line"/>
      <point x="472" y="1002" type="line"/>
      <point x="472" y="1052" type="line"/>
      <point x="0" y="1052" type="line"/>
    </contour>
    <contour>
      <point x="188" y="212" type="line" smooth="yes"/>
      <point x="188" y="67"/>
      <point x="276" y="-29"/>
      <point x="328" y="-29" type="qcurve" smooth="yes"/>
      <point x="356" y="-29"/>
      <point x="442" y="-10"/>
      <point x="469" y="2" type="qcurve"/>
      <point x="469" y="75" type="line"/>
      <point x="449" y="58"/>
      <point x="386" y="26"/>
      <point x="342" y="26" type="qcurve" smooth="yes"/>
      <point x="297" y="26"/>
      <point x="242" y="110"/>
      <point x="242" y="253" type="qcurve" smooth="yes"/>
      <point x="242" y="1345" type="line"/>
      <point x="188" y="1345" type="line"/>
      <point x="188" y="1053" type="line"/>
      <point x="188" y="1017" type="line"/>
    </contour>
  </outline>
</glyph>
<glyph name="u" format="1">
  <advance width="875"/>
  <unicode hex="0075"/>
  <outline>
    <contour>
      <point x="138" y="384" type="line" smooth="yes"/>
      <point x="138" y="152"/>
      <point x="281" y="-24"/>
      <point x="390" y="-24" type="qcurve" smooth="yes"/>
      <point x="482" y="-24"/>
      <point x="617" y="51"/>
      <point x="670" y="140" type="qcurve"/>
      <point x="676" y="0" type="line"/>
      <point x="727" y="0" type="line"/>
      <point x="727" y="1052" type="line"/>
      <point x="673" y="1052" type="line"/>
      <point x="673" y="275" type="line"/>
      <point x="636" y="161"/>
      <point x="490" y="26"/>
      <point x="390" y="26" type="qcurve" smooth="yes"/>
      <point x="281" y="26"/>
      <point x="192" y="184"/>
      <point x="192" y="343" type="qcurve" smooth="yes"/>
      <point x="192" y="1052" type="line"/>
      <point x="138" y="1052" type="line"/>
    </contour>
  </outline>
</glyph>
<glyph name="v" format="1">
  <advance width="810"/>
  <unicode hex="0076"/>
  <outline>
    <contour>
      <point x="0" y="1052" type="line"/>
      <point x="394" y="0" type="line"/>
      <point x="420" y="0" type="line"/>
      <point x="810" y="1052" type="line"/>
      <point x="756" y="1052" type="line"/>
      <point x="498" y="358" type="line" smooth="yes"/>
      <point x="482" y="313"/>
      <point x="427" y="192"/>
      <point x="412" y="152" type="qcurve"/>
      <point x="394" y="152" type="line"/>
      <point x="380" y="191"/>
      <point x="340" y="279"/>
      <point x="310" y="359" type="qcurve" smooth="yes"/>
      <point x="57" y="1052" type="line"/>
    </contour>
  </outline>
</glyph>
<glyph name="w" format="1">
  <advance width="1333"/>
  <unicode hex="0077"/>
  <outline>
    <contour>
      <point x="24" y="1052" type="line"/>
      <point x="363" y="0" type="line"/>
      <point x="383" y="0" type="line"/>
      <point x="629" y="734" type="line" smooth="yes"/>
      <point x="645" y="779"/>
      <point x="671" y="879"/>
      <point x="685" y="911" type="qcurve"/>
      <point x="689" y="911" type="line"/>
      <point x="699" y="880"/>
      <point x="737" y="758"/>
      <point x="765" y="678" type="qcurve" smooth="yes"/>
      <point x="998" y="0" type="line"/>
      <point x="1006" y="0" type="line"/>
      <point x="1309" y="1052" type="line"/>
      <point x="1256" y="1052" type="line"/>
      <point x="1044" y="300" type="line" smooth="yes"/>
      <point x="1031" y="254"/>
      <point x="1012" y="197"/>
      <point x="1004" y="159" type="qcurve"/>
      <point x="1001" y="159" type="line"/>
      <point x="981" y="218"/>
      <point x="944" y="316"/>
      <point x="929" y="359" type="qcurve" smooth="yes"/>
      <point x="698" y="1052" type="line"/>
      <point x="671" y="1052" type="line"/>
      <point x="442" y="350" type="line" smooth="yes"/>
      <point x="428" y="303"/>
      <point x="399" y="212"/>
      <point x="383" y="159" type="qcurve"/>
      <point x="369" y="159" type="line"/>
      <point x="355" y="212"/>
      <point x="325" y="313"/>
      <point x="310" y="360" type="qcurve" smooth="yes"/>
      <point x="81" y="1052" type="line"/>
    </contour>
  </outline>
</glyph>
<glyph name="x" format="1">
  <advance width="936"/>
  <unicode hex="0078"/>
  <outline>
    <contour>
      <point x="41" y="0" type="line"/>
      <point x="102" y="0" type="line"/>
      <point x="458" y="516" type="line"/>
      <point x="502" y="516" type="line"/>
      <point x="866" y="1052" type="line"/>
      <point x="806" y="1052" type="line"/>
      <point x="487" y="577" type="line"/>
      <point x="441" y="577" type="line"/>
    </contour>
    <contour>
      <point x="79" y="1052" type="line"/>
      <point x="462" y="471" type="line"/>
      <point x="504" y="471" type="line"/>
      <point x="815" y="0" type="line"/>
      <point x="880" y="0" type="line"/>
      <point x="473" y="610" type="line"/>
      <point x="430" y="610" type="line"/>
      <point x="143" y="1052" type="line"/>
    </contour>
  </outline>
</glyph>
<glyph name="y" format="1">
  <advance width="903"/>
  <unicode hex="0079"/>
  <outline>
    <contour>
      <point x="35" y="-413" type="line"/>
      <point x="56" y="-429"/>
      <point x="131" y="-437"/>
      <point x="178" y="-437" type="qcurve" smooth="yes"/>
      <point x="278" y="-437"/>
      <point x="419" y="-307"/>
      <point x="469" y="-167" type="qcurve" smooth="yes"/>
      <point x="903" y="1052" type="line"/>
      <point x="847" y="1052" type="line"/>
      <point x="602" y="358" type="line" smooth="yes"/>
      <point x="587" y="317"/>
      <point x="480" y="28"/>
      <point x="471" y="-5" type="qcurve"/>
      <point x="468" y="-5" type="line"/>
      <point x="459" y="26"/>
      <point x="340" y="316"/>
      <point x="324" y="357" type="qcurve" smooth="yes"/>
      <point x="58" y="1052" type="line"/>
      <point x="8" y="1052" type="line"/>
      <point x="440" y="-99" type="line"/>
      <point x="407" y="-184" type="line" smooth="yes"/>
      <point x="369" y="-282"/>
      <point x="227" y="-368"/>
      <point x="162" y="-368" type="qcurve" smooth="yes"/>
      <point x="126" y="-368"/>
      <point x="55" y="-356"/>
      <point x="35" y="-346" type="qcurve"/>
    </contour>
  </outline>
</glyph>
<glyph name="z" format="1">
  <advance width="830"/>
  <unicode hex="007A"/>
  <outline>
    <contour>
      <point x="68" y="0" type="line"/>
      <point x="768" y="0" type="line"/>
      <point x="768" y="48" type="line"/>
      <point x="75" y="48" type="line"/>
      <point x="745" y="901" type="line"/>
      <point x="745" y="1052" type="line"/>
      <point x="74" y="1052" type="line"/>
      <point x="74" y="1002" type="line"/>
      <point x="749" y="1002" type="line"/>
      <point x="68" y="135" type="line"/>
    </contour>
  </outline>
</glyph>
<glyph name="braceleft" format="1">
  <advance width="493"/>
  <unicode hex="007B"/>
  <outline>
    <contour>
      <point x="243" y="294" type="qcurve" smooth="yes"/>
      <point x="200" y="66" type="line" smooth="yes"/>
      <point x="176" y="-74"/>
      <point x="374" y="-336"/>
      <point x="471" y="-336" type="qcurve"/>
      <point x="471" y="-292" type="line"/>
      <point x="383" y="-292"/>
      <point x="222" y="-69"/>
      <point x="252" y="86" type="qcurve" smooth="yes"/>
      <point x="294" y="314" type="line" smooth="yes"/>
      <point x="308" y="388"/>
      <point x="266" y="493"/>
      <point x="11" y="562" type="qcurve"/>
      <point x="267" y="645"/>
      <point x="308" y="746"/>
      <point x="295" y="820" type="qcurve" smooth="yes"/>
      <point x="252" y="1033" type="line" smooth="yes"/>
      <point x="220" y="1192"/>
      <point x="383" y="1417"/>
      <point x="471" y="1417" type="qcurve"/>
      <point x="471" y="1460" type="line"/>
      <point x="374" y="1460"/>
      <point x="175" y="1197"/>
      <point x="200" y="1058" type="qcurve" smooth="yes"/>
      <point x="243" y="840" type="line" smooth="yes"/>
      <point x="274" y="688"/>
      <point x="120" y="582"/>
      <point x="64" y="582" type="qcurve"/>
      <point x="64" y="553" type="line"/>
      <point x="120" y="553"/>
      <point x="272" y="447"/>
    </contour>
  </outline>
</glyph>
<glyph name="braceright" format="1">
  <advance width="493"/>
  <unicode hex="007D"/>
  <outline>
    <contour>
      <point x="250" y="294" type="line" smooth="yes"/>
      <point x="221" y="447"/>
      <point x="373" y="553"/>
      <point x="429" y="553" type="qcurve"/>
      <point x="429" y="582" type="line"/>
      <point x="373" y="582"/>
      <point x="219" y="688"/>
      <point x="250" y="840" type="qcurve" smooth="yes"/>
      <point x="293" y="1058" type="line" smooth="yes"/>
      <point x="318" y="1197"/>
      <point x="119" y="1460"/>
      <point x="22" y="1460" type="qcurve"/>
      <point x="22" y="1417" type="line"/>
      <point x="110" y="1417"/>
      <point x="273" y="1192"/>
      <point x="241" y="1033" type="qcurve" smooth="yes"/>
      <point x="199" y="820" type="line" smooth="yes"/>
      <point x="185" y="746"/>
      <point x="226" y="645"/>
      <point x="482" y="562" type="qcurve"/>
      <point x="227" y="493"/>
      <point x="186" y="388"/>
      <point x="199" y="314" type="qcurve" smooth="yes"/>
      <point x="241" y="86" type="line" smooth="yes"/>
      <point x="271" y="-69"/>
      <point x="110" y="-292"/>
      <point x="22" y="-292" type="qcurve"/>
      <point x="22" y="-336" type="line"/>
      <point x="119" y="-336"/>
      <point x="317" y="-74"/>
      <point x="293" y="66" type="qcurve" smooth="yes"/>
    </contour>
  </outline>
</glyph>
<glyph name="asciitilde" format="1">
  <advance width="855"/>
  <unicode hex="007E"/>
  <outline>
    <contour>
      <point x="419" y="674" type="qcurve"/>
      <point x="368" y="738"/>
      <point x="295" y="779"/>
      <point x="231" y="779" type="qcurve" smooth="yes"/>
      <point x="138" y="779"/>
      <point x="20" y="577"/>
      <point x="20" y="485" type="qcurve"/>
      <point x="70" y="485" type="line"/>
      <point x="70" y="546"/>
      <point x="142" y="701"/>
      <point x="218" y="701" type="qcurve" smooth="yes"/>
      <point x="278" y="701"/>
      <point x="364" y="634"/>
      <point x="420" y="572" type="qcurve" smooth="yes"/>
      <point x="459" y="526"/>
      <point x="533" y="481"/>
      <point x="595" y="481" type="qcurve" smooth="yes"/>
      <point x="689" y="481"/>
      <point x="806" y="683"/>
      <point x="806" y="775" type="qcurve"/>
      <point x="756" y="775" type="line"/>
      <point x="756" y="714"/>
      <point x="684" y="561"/>
      <point x="609" y="561" type="qcurve" smooth="yes"/>
      <point x="550" y="561"/>
      <point x="467" y="622"/>
    </contour>
  </outline>
</glyph>
<glyph name="exclamdown" format="1">
  <advance width="475"/>
  <unicode hex="00A1"/>
  <outline>
    <contour>
      <point x="221" y="712" type="line"/>
      <point x="210" y="-301" type="line"/>
      <point x="264" y="-301" type="line"/>
      <point x="254" y="712" type="line"/>
    </contour>
    <contour>
      <point x="189" y="1111" type="qcurve" smooth="yes"/>
      <point x="189" y="1076"/>
      <point x="211" y="1040"/>
      <point x="237" y="1040" type="qcurve" smooth="yes"/>
      <point x="263" y="1040"/>
      <point x="286" y="1076"/>
      <point x="286" y="1110" type="qcurve" smooth="yes"/>
      <point x="286" y="1142"/>
      <point x="262" y="1179"/>
      <point x="237" y="1179" type="qcurve" smooth="yes"/>
      <point x="211" y="1179"/>
      <point x="189" y="1143"/>
    </contour>
  </outline>
</glyph>
<glyph name="cent" format="1">
  <advance width="874"/>
  <unicode hex="00A2"/>
  <outline>
    <contour>
      <point x="422" y="601" type="line"/>
      <point x="438" y="601" type="line"/>
      <point x="438" y="1038" type="line"/>
      <point x="442" y="1076" type="line"/>
      <point x="442" y="1348" type="line"/>
      <point x="417" y="1348" type="line"/>
      <point x="417" y="1074" type="line"/>
      <point x="422" y="1043" type="line"/>
    </contour>
    <contour>
      <point x="417" y="-273" type="line"/>
      <point x="442" y="-273" type="line"/>
      <point x="442" y="-22" type="line"/>
      <point x="438" y="17" type="line"/>
      <point x="438" y="482" type="line"/>
      <point x="422" y="482" type="line"/>
      <point x="422" y="18" type="line"/>
      <point x="417" y="-15" type="line"/>
    </contour>
    <contour>
      <point x="84" y="532" type="line" smooth="yes"/>
      <point x="84" y="312"/>
      <point x="258" y="-11"/>
      <point x="429" y="-11" type="qcurve" smooth="yes"/>
      <point x="601" y="-11"/>
      <point x="734" y="215"/>
      <point x="734" y="327" type="qcurve"/>
      <point x="734" y="279" type="line"/>
      <point x="688" y="279" type="line"/>
      <point x="688" y="327" type="line"/>
      <point x="688" y="220"/>
      <point x="567" y="39"/>
      <point x="429" y="39" type="qcurve" smooth="yes"/>
      <point x="286" y="39"/>
      <point x="139" y="329"/>
      <point x="139" y="532" type="qcurve" smooth="yes"/>
      <point x="139" y="556" type="line" smooth="yes"/>
      <point x="139" y="761"/>
      <point x="290" y="1035"/>
      <point x="429" y="1035" type="qcurve" smooth="yes"/>
      <point x="569" y="1035"/>
      <point x="688" y="815"/>
      <point x="688" y="712" type="qcurve"/>
      <point x="688" y="768" type="line"/>
      <point x="734" y="768" type="line"/>
      <point x="734" y="712" type="line"/>
      <point x="734" y="849"/>
      <point x="595" y="1085"/>
      <point x="429" y="1085" type="qcurve" smooth="yes"/>
      <point x="269" y="1085"/>
      <point x="84" y="784"/>
      <point x="84" y="556" type="qcurve" smooth="yes"/>
    </contour>
  </outline>
</glyph>
<glyph name="sterling" format="1">
  <advance width="935"/>
  <unicode hex="00A3"/>
  <outline>
    <contour>
      <point x="129" y="0" type="line"/>
      <point x="872" y="0" type="line"/>
      <point x="872" y="56" type="line"/>
      <point x="128" y="56" type="line"/>
      <point x="292" y="184"/>
      <point x="321" y="308"/>
      <point x="321" y="377" type="qcurve" smooth="yes"/>
      <point x="321" y="472"/>
      <point x="266" y="989"/>
      <point x="266" y="1108" type="qcurve" smooth="yes"/>
      <point x="266" y="1229"/>
      <point x="400" y="1422"/>
      <point x="521" y="1422" type="qcurve" smooth="yes"/>
      <point x="642" y="1422"/>
      <point x="777" y="1249"/>
      <point x="777" y="1115" type="qcurve"/>
      <point x="777" y="1122" type="line"/>
      <point x="831" y="1122" type="line"/>
      <point x="831" y="1115" type="line"/>
      <point x="831" y="1280"/>
      <point x="677" y="1478"/>
      <point x="535" y="1478" type="qcurve" smooth="yes"/>
      <point x="396" y="1478"/>
      <point x="216" y="1263"/>
      <point x="216" y="1117" type="qcurve" smooth="yes"/>
      <point x="216" y="952"/>
      <point x="282" y="478"/>
      <point x="282" y="359" type="qcurve" smooth="yes"/>
      <point x="282" y="239"/>
      <point x="199" y="56"/>
      <point x="91" y="56" type="qcurve"/>
      <point x="129" y="56" type="line"/>
    </contour>
    <contour>
      <point x="672" y="736" type="line"/>
      <point x="672" y="792" type="line"/>
      <point x="100" y="792" type="line"/>
      <point x="100" y="736" type="line"/>
    </contour>
  </outline>
</glyph>
<glyph name="currency" format="1">
  <advance width="1194"/>
  <unicode hex="00A4"/>
  <outline>
    <contour>
      <point x="195" y="614" type="qcurve" smooth="yes"/>
      <point x="195" y="845"/>
      <point x="424" y="1158"/>
      <point x="602" y="1158" type="qcurve" smooth="yes"/>
      <point x="775" y="1158"/>
      <point x="1007" y="835"/>
      <point x="1007" y="614" type="qcurve" smooth="yes"/>
      <point x="1007" y="386"/>
      <point x="781" y="69"/>
      <point x="602" y="69" type="qcurve" smooth="yes"/>
      <point x="430" y="69"/>
      <point x="195" y="394"/>
    </contour>
    <contour>
      <point x="156" y="614" type="qcurve" smooth="yes"/>
      <point x="156" y="352"/>
      <point x="420" y="1"/>
      <point x="602" y="1" type="qcurve" smooth="yes"/>
      <point x="775" y="1"/>
      <point x="1049" y="360"/>
      <point x="1049" y="614" type="qcurve" smooth="yes"/>
      <point x="1049" y="875"/>
      <point x="785" y="1224"/>
      <point x="602" y="1224" type="qcurve" smooth="yes"/>
      <point x="433" y="1224"/>
      <point x="156" y="862"/>
    </contour>
    <contour>
      <point x="1068" y="1175" type="line"/>
      <point x="1030" y="1235" type="line"/>
      <point x="933" y="1099" type="line"/>
      <point x="971" y="1039" type="line"/>
    </contour>
    <contour>
      <point x="275" y="153" type="line"/>
      <point x="238" y="211" type="line"/>
      <point x="141" y="77" type="line"/>
      <point x="178" y="17" type="line"/>
    </contour>
    <contour>
      <point x="1030" y="16" type="line"/>
      <point x="1068" y="77" type="line"/>
      <point x="971" y="211" type="line"/>
      <point x="933" y="152" type="line"/>
    </contour>
    <contour>
      <point x="238" y="1039" type="line"/>
      <point x="275" y="1098" type="line"/>
      <point x="178" y="1234" type="line"/>
      <point x="141" y="1175" type="line"/>
    </contour>
  </outline>
</glyph>
<glyph name="yen" format="1">
  <advance width="833"/>
  <unicode hex="00A5"/>
  <outline>
    <contour>
      <point x="56" y="627" type="line"/>
      <point x="777" y="627" type="line"/>
      <point x="777" y="670" type="line"/>
      <point x="56" y="670" type="line"/>
    </contour>
    <contour>
      <point x="56" y="293" type="line"/>
      <point x="777" y="293" type="line"/>
      <point x="777" y="335" type="line"/>
      <point x="56" y="335" type="line"/>
    </contour>
    <contour>
      <point x="57" y="1456" type="line"/>
      <point x="388" y="538" type="line"/>
      <point x="388" y="0" type="line"/>
      <point x="436" y="0" type="line"/>
      <point x="436" y="539" type="line"/>
      <point x="775" y="1456" type="line"/>
      <point x="716" y="1456" type="line"/>
      <point x="509" y="826" type="line" smooth="yes"/>
      <point x="496" y="787"/>
      <point x="473" y="727"/>
      <point x="455" y="669" type="qcurve"/>
      <point x="377" y="669" type="line"/>
      <point x="359" y="728"/>
      <point x="333" y="802"/>
      <point x="326" y="823" type="qcurve" smooth="yes"/>
      <point x="111" y="1456" type="line"/>
    </contour>
  </outline>
</glyph>
<glyph name="brokenbar" format="1">
  <advance width="458"/>
  <unicode hex="00A6"/>
  <outline>
    <contour>
      <point x="209" y="-454" type="line"/>
      <point x="249" y="-454" type="line"/>
      <point x="249" y="338" type="line"/>
      <point x="209" y="338" type="line"/>
    </contour>
    <contour>
      <point x="209" y="664" type="line"/>
      <point x="249" y="664" type="line"/>
      <point x="249" y="1456" type="line"/>
      <point x="209" y="1456" type="line"/>
    </contour>
  </outline>
</glyph>
<glyph name="section" format="1">
  <advance width="903"/>
  <unicode hex="00A7"/>
  <outline>
    <contour>
      <point x="769" y="-167" type="qcurve" smooth="yes"/>
      <point x="769" y="-70"/>
      <point x="705" y="64"/>
      <point x="480" y="219" type="qcurve"/>
      <point x="692" y="268"/>
      <point x="769" y="384"/>
      <point x="769" y="493" type="qcurve" smooth="yes"/>
      <point x="769" y="625"/>
      <point x="646" y="770"/>
      <point x="508" y="851" type="qcurve" smooth="yes"/>
      <point x="355" y="944"/>
      <point x="225" y="1081"/>
      <point x="225" y="1205" type="qcurve" smooth="yes"/>
      <point x="225" y="1331"/>
      <point x="347" y="1471"/>
      <point x="467" y="1471" type="qcurve" smooth="yes"/>
      <point x="584" y="1471"/>
      <point x="720" y="1312"/>
      <point x="720" y="1161" type="qcurve"/>
      <point x="720" y="1201" type="line"/>
      <point x="756" y="1201" type="line"/>
      <point x="756" y="1157" type="line"/>
      <point x="756" y="1336"/>
      <point x="608" y="1535"/>
      <point x="470" y="1535" type="qcurve" smooth="yes"/>
      <point x="344" y="1535"/>
      <point x="181" y="1322"/>
      <point x="181" y="1193" type="qcurve" smooth="yes"/>
      <point x="181" y="1108"/>
      <point x="224" y="988"/>
      <point x="349" y="878" type="qcurve"/>
      <point x="199" y="804"/>
      <point x="133" y="668"/>
      <point x="133" y="569" type="qcurve" smooth="yes"/>
      <point x="133" y="430"/>
      <point x="262" y="268"/>
      <point x="410" y="185" type="qcurve" smooth="yes"/>
      <point x="573" y="94"/>
      <point x="725" y="-50"/>
      <point x="725" y="-180" type="qcurve" smooth="yes"/>
      <point x="725" y="-313"/>
      <point x="571" y="-465"/>
      <point x="448" y="-465" type="qcurve" smooth="yes"/>
      <point x="326" y="-465"/>
      <point x="162" y="-292"/>
      <point x="162" y="-135" type="qcurve"/>
      <point x="162" y="-173" type="line"/>
      <point x="126" y="-173" type="line"/>
      <point x="126" y="-131" type="line"/>
      <point x="126" y="-315"/>
      <point x="296" y="-524"/>
      <point x="444" y="-524" type="qcurve" smooth="yes"/>
      <point x="602" y="-524"/>
      <point x="769" y="-326"/>
    </contour>
    <contour>
      <point x="418" y="244" type="qcurve" smooth="yes"/>
      <point x="309" y="293"/>
      <point x="162" y="447"/>
      <point x="162" y="589" type="qcurve" smooth="yes"/>
      <point x="162" y="771"/>
      <point x="336" y="901"/>
      <point x="439" y="831" type="qcurve" smooth="yes"/>
      <point x="572" y="735"/>
      <point x="733" y="617"/>
      <point x="733" y="474" type="qcurve" smooth="yes"/>
      <point x="733" y="343"/>
      <point x="535" y="192"/>
    </contour>
  </outline>
</glyph>
<glyph name="dieresis" format="1">
  <advance width="799"/>
  <unicode hex="00A8"/>
  <outline>
    <contour>
      <point x="187" y="1337" type="qcurve" smooth="yes"/>
      <point x="187" y="1308"/>
      <point x="204" y="1275"/>
      <point x="227" y="1275" type="qcurve" smooth="yes"/>
      <point x="250" y="1275"/>
      <point x="267" y="1308"/>
      <point x="267" y="1337" type="qcurve" smooth="yes"/>
      <point x="267" y="1367"/>
      <point x="250" y="1404"/>
      <point x="227" y="1404" type="qcurve" smooth="yes"/>
      <point x="205" y="1404"/>
      <point x="187" y="1367"/>
    </contour>
    <contour>
      <point x="532" y="1335" type="qcurve" smooth="yes"/>
      <point x="532" y="1306"/>
      <point x="549" y="1273"/>
      <point x="572" y="1273" type="qcurve" smooth="yes"/>
      <point x="595" y="1273"/>
      <point x="612" y="1306"/>
      <point x="612" y="1335" type="qcurve" smooth="yes"/>
      <point x="612" y="1365"/>
      <point x="594" y="1401"/>
      <point x="572" y="1401" type="qcurve" smooth="yes"/>
      <point x="549" y="1401"/>
      <point x="532" y="1365"/>
    </contour>
  </outline>
</glyph>
<glyph name="copyright" format="1">
  <advance width="1399"/>
  <unicode hex="00A9"/>
  <outline>
    <contour>
      <point x="114" y="697" type="qcurve" smooth="yes"/>
      <point x="114" y="997"/>
      <point x="439" y="1434"/>
      <point x="700" y="1434" type="qcurve" smooth="yes"/>
      <point x="950" y="1434"/>
      <point x="1284" y="985"/>
      <point x="1284" y="697" type="qcurve" smooth="yes"/>
      <point x="1284" y="380"/>
      <point x="961" y="-44"/>
      <point x="700" y="-44" type="qcurve" smooth="yes"/>
      <point x="449" y="-44"/>
      <point x="114" y="408"/>
    </contour>
    <contour>
      <point x="94" y="697" type="qcurve" smooth="yes"/>
      <point x="94" y="357"/>
      <point x="462" y="-88"/>
      <point x="700" y="-88" type="qcurve" smooth="yes"/>
      <point x="946" y="-88"/>
      <point x="1305" y="349"/>
      <point x="1305" y="697" type="qcurve" smooth="yes"/>
      <point x="1305" y="1034"/>
      <point x="938" y="1481"/>
      <point x="700" y="1481" type="qcurve" smooth="yes"/>
      <point x="462" y="1481"/>
      <point x="94" y="1034"/>
    </contour>
    <contour>
      <point x="400" y="664" type="line" smooth="yes"/>
      <point x="400" y="485"/>
      <point x="575" y="272"/>
      <point x="699" y="272" type="qcurve" smooth="yes"/>
      <point x="823" y="272"/>
      <point x="964" y="425"/>
      <point x="967" y="530" type="qcurve"/>
      <point x="966" y="512" type="line"/>
      <point x="939" y="512" type="line"/>
      <point x="941" y="532" type="line"/>
      <point x="932" y="408"/>
      <point x="799" y="320"/>
      <point x="700" y="320" type="qcurve" smooth="yes"/>
      <point x="578" y="320"/>
      <point x="442" y="520"/>
      <point x="442" y="664" type="qcurve" smooth="yes"/>
      <point x="442" y="760" type="line" smooth="yes"/>
      <point x="442" y="923"/>
      <point x="581" y="1107"/>
      <point x="702" y="1107" type="qcurve" smooth="yes"/>
      <point x="817" y="1107"/>
      <point x="944" y="984"/>
      <point x="944" y="883" type="qcurve"/>
      <point x="944" y="897" type="line"/>
      <point x="967" y="897" type="line"/>
      <point x="967" y="886" type="line"/>
      <point x="965" y="999"/>
      <point x="827" y="1152"/>
      <point x="697" y="1152" type="qcurve" smooth="yes"/>
      <point x="571" y="1152"/>
      <point x="400" y="942"/>
      <point x="400" y="759" type="qcurve" smooth="yes"/>
    </contour>
  </outline>
</glyph>
<glyph name="ordfeminine" format="1">
  <advance width="667"/>
  <unicode hex="00AA"/>
  <outline>
    <contour>
      <point x="91" y="898" type="qcurve" smooth="yes"/>
      <point x="91" y="797"/>
      <point x="195" y="679"/>
      <point x="271" y="679" type="qcurve" smooth="yes"/>
      <point x="356" y="679"/>
      <point x="453" y="758"/>
      <point x="546" y="940" type="qcurve"/>
      <point x="556" y="736"/>
      <point x="566" y="682"/>
      <point x="557" y="696" type="qcurve"/>
      <point x="612" y="696" type="line"/>
      <point x="612" y="637" type="line"/>
      <point x="602" y="670"/>
      <point x="588" y="789"/>
      <point x="588" y="842" type="qcurve" smooth="yes"/>
      <point x="588" y="1263" type="line" smooth="yes"/>
      <point x="588" y="1392"/>
      <point x="475" y="1519"/>
      <point x="353" y="1519" type="qcurve" smooth="yes"/>
      <point x="247" y="1519"/>
      <point x="125" y="1386"/>
      <point x="125" y="1306" type="qcurve"/>
      <point x="125" y="1337" type="line"/>
      <point x="171" y="1337" type="line"/>
      <point x="171" y="1308" type="line"/>
      <point x="171" y="1398"/>
      <point x="281" y="1487"/>
      <point x="360" y="1487" type="qcurve" smooth="yes"/>
      <point x="455" y="1487"/>
      <point x="553" y="1350"/>
      <point x="553" y="1243" type="qcurve" smooth="yes"/>
      <point x="553" y="1142" type="line"/>
      <point x="340" y="1142" type="line" smooth="yes"/>
      <point x="214" y="1142"/>
      <point x="91" y="1003"/>
    </contour>
    <contour>
      <point x="144" y="921" type="qcurve" smooth="yes"/>
      <point x="144" y="1036"/>
      <point x="288" y="1124"/>
      <point x="382" y="1124" type="qcurve" smooth="yes"/>
      <point x="553" y="1124" type="line"/>
      <point x="553" y="949" type="line"/>
      <point x="548" y="869"/>
      <point x="420" y="717"/>
      <point x="327" y="717" type="qcurve" smooth="yes"/>
      <point x="247" y="717"/>
      <point x="144" y="826"/>
    </contour>
  </outline>
</glyph>
<glyph name="guillemetleft" format="1">
  <advance width="837"/>
  <unicode hex="00AB"/>
  <outline>
    <contour>
      <point x="326" y="226" type="line"/>
      <point x="342" y="226" type="line"/>
      <point x="144" y="609" type="line"/>
      <point x="342" y="993" type="line"/>
      <point x="326" y="993" type="line"/>
      <point x="78" y="598" type="line"/>
      <point x="78" y="622" type="line"/>
    </contour>
    <contour>
      <point x="694" y="226" type="line"/>
      <point x="710" y="226" type="line"/>
      <point x="512" y="609" type="line"/>
      <point x="710" y="993" type="line"/>
      <point x="694" y="993" type="line"/>
      <point x="446" y="598" type="line"/>
      <point x="446" y="622" type="line"/>
    </contour>
  </outline>
</glyph>
<glyph name="logicalnot" format="1">
  <advance width="891"/>
  <unicode hex="00AC"/>
  <outline>
    <contour>
      <point x="137" y="773" type="line"/>
      <point x="137" y="693" type="line"/>
      <point x="734" y="693" type="line"/>
      <point x="734" y="418" type="line"/>
      <point x="779" y="418" type="line"/>
      <point x="779" y="773" type="line"/>
    </contour>
  </outline>
</glyph>
<glyph name="hyphensoft" format="1">
  <advance width="435"/>
  <unicode hex="00AD"/>
  <outline>
    <contour>
      <point x="38" y="604" type="line"/>
      <point x="397" y="604" type="line"/>
      <point x="397" y="677" type="line"/>
      <point x="38" y="677" type="line"/>
    </contour>
  </outline>
</glyph>
<glyph name="registered" format="1">
  <advance width="1399"/>
  <unicode hex="00AE"/>
  <outline>
    <contour>
      <point x="114" y="697" type="qcurve" smooth="yes"/>
      <point x="114" y="997"/>
      <point x="439" y="1434"/>
      <point x="700" y="1434" type="qcurve" smooth="yes"/>
      <point x="950" y="1434"/>
      <point x="1284" y="985"/>
      <point x="1284" y="697" type="qcurve" smooth="yes"/>
      <point x="1284" y="380"/>
      <point x="961" y="-44"/>
      <point x="700" y="-44" type="qcurve" smooth="yes"/>
      <point x="449" y="-44"/>
      <point x="114" y="408"/>
    </contour>
    <contour>
      <point x="94" y="697" type="qcurve" smooth="yes"/>
      <point x="94" y="357"/>
      <point x="462" y="-88"/>
      <point x="700" y="-88" type="qcurve" smooth="yes"/>
      <point x="946" y="-88"/>
      <point x="1305" y="349"/>
      <point x="1305" y="697" type="qcurve" smooth="yes"/>
      <point x="1305" y="1034"/>
      <point x="938" y="1480"/>
      <point x="700" y="1480" type="qcurve" smooth="yes"/>
      <point x="462" y="1480"/>
      <point x="94" y="1034"/>
    </contour>
    <contour>
      <point x="792" y="598" type="line"/>
      <point x="918" y="308" type="line"/>
      <point x="940" y="308" type="line"/>
      <point x="808" y="612" type="line"/>
    </contour>
    <contour>
      <point x="754" y="641" type="line"/>
      <point x="803" y="673" type="line"/>
      <point x="859" y="699"/>
      <point x="926" y="811"/>
      <point x="926" y="881" type="qcurve" smooth="yes"/>
      <point x="926" y="994"/>
      <point x="812" y="1110"/>
      <point x="707" y="1110" type="qcurve" smooth="yes"/>
      <point x="501" y="1110" type="line"/>
      <point x="501" y="309" type="line"/>
      <point x="526" y="309" type="line"/>
      <point x="526" y="641" type="line"/>
    </contour>
    <contour>
      <point x="526" y="1086" type="line"/>
      <point x="705" y="1086" type="line" smooth="yes"/>
      <point x="802" y="1088"/>
      <point x="899" y="977"/>
      <point x="899" y="875" type="qcurve" smooth="yes"/>
      <point x="899" y="792"/>
      <point x="804" y="667"/>
      <point x="727" y="666" type="qcurve" smooth="yes"/>
      <point x="526" y="666" type="line"/>
    </contour>
  </outline>
</glyph>
<glyph name="macron" format="1">
  <advance width="803"/>
  <unicode hex="00AF"/>
  <outline>
    <contour>
      <point x="606" y="1361" type="line"/>
      <point x="197" y="1361" type="line"/>
      <point x="197" y="1308" type="line"/>
      <point x="606" y="1308" type="line"/>
    </contour>
  </outline>
</glyph>
<glyph name="degree" format="1">
  <advance width="668"/>
  <unicode hex="00B0"/>
  <outline>
    <contour>
      <point x="128" y="1222" type="qcurve" smooth="yes"/>
      <point x="128" y="1094"/>
      <point x="244" y="923"/>
      <point x="336" y="923" type="qcurve" smooth="yes"/>
      <point x="425" y="923"/>
      <point x="540" y="1093"/>
      <point x="540" y="1222" type="qcurve" smooth="yes"/>
      <point x="540" y="1354"/>
      <point x="425" y="1525"/>
      <point x="336" y="1525" type="qcurve" smooth="yes"/>
      <point x="245" y="1525"/>
      <point x="128" y="1353"/>
    </contour>
    <contour>
      <point x="152" y="1223" type="qcurve" smooth="yes"/>
      <point x="152" y="1328"/>
      <point x="260" y="1471"/>
      <point x="336" y="1471" type="qcurve" smooth="yes"/>
      <point x="411" y="1471"/>
      <point x="516" y="1327"/>
      <point x="516" y="1223" type="qcurve" smooth="yes"/>
      <point x="516" y="1118"/>
      <point x="410" y="976"/>
      <point x="336" y="976" type="qcurve" smooth="yes"/>
      <point x="260" y="976"/>
      <point x="152" y="1117"/>
    </contour>
  </outline>
</glyph>
<glyph name="plusminus" format="1">
  <advance width="892"/>
  <unicode hex="00B1"/>
  <outline>
    <contour>
      <point x="127" y="682" type="line"/>
      <point x="765" y="682" type="line"/>
      <point x="765" y="744" type="line"/>
      <point x="127" y="744" type="line"/>
    </contour>
    <contour>
      <point x="423" y="255" type="line"/>
      <point x="467" y="255" type="line"/>
      <point x="467" y="1224" type="line"/>
      <point x="423" y="1224" type="line"/>
    </contour>
    <contour>
      <point x="141" y="1" type="line"/>
      <point x="747" y="1" type="line"/>
      <point x="747" y="63" type="line"/>
      <point x="141" y="63" type="line"/>
    </contour>
  </outline>
</glyph>
<glyph name="acute" format="1">
  <advance width="855"/>
  <unicode hex="00B4"/>
  <outline>
    <contour>
      <point x="463" y="1503" type="line"/>
      <point x="317" y="1217" type="line"/>
      <point x="317" y="1283" type="line"/>
      <point x="385" y="1283" type="line"/>
      <point x="505" y="1503" type="line"/>
    </contour>
  </outline>
</glyph>
<glyph name="mu.math" format="1">
  <advance width="882"/>
  <unicode hex="00B5"/>
  <outline>
    <contour>
      <point x="431" y="-23" type="qcurve" smooth="yes"/>
      <point x="493" y="-23"/>
      <point x="575" y="43"/>
      <point x="679" y="245" type="qcurve"/>
      <point x="692" y="0" type="line"/>
      <point x="734" y="0" type="line"/>
      <point x="734" y="1052" type="line"/>
      <point x="681" y="1052" type="line"/>
      <point x="681" y="245" type="line"/>
      <point x="648" y="138"/>
      <point x="523" y="27"/>
      <point x="424" y="27" type="qcurve" smooth="yes"/>
      <point x="334" y="27"/>
      <point x="200" y="199"/>
      <point x="200" y="453" type="qcurve" smooth="yes"/>
      <point x="200" y="1052" type="line"/>
      <point x="148" y="1052" type="line"/>
      <point x="148" y="-463" type="line"/>
      <point x="195" y="-463" type="line"/>
      <point x="195" y="133" type="line"/>
      <point x="299" y="11"/>
      <point x="377" y="-23"/>
    </contour>
  </outline>
</glyph>
<glyph name="paragraph" format="1">
  <advance width="1094"/>
  <unicode hex="00B6"/>
  <outline>
    <contour>
      <point x="811" y="-216" type="line"/>
      <point x="860" y="-216" type="line"/>
      <point x="860" y="1360" type="line"/>
      <point x="1019" y="1360" type="line"/>
      <point x="1019" y="1454" type="line"/>
      <point x="860" y="1454" type="line"/>
      <point x="860" y="1456" type="line"/>
      <point x="398" y="1456" type="line" smooth="yes"/>
      <point x="271" y="1456"/>
      <point x="94" y="1204"/>
      <point x="94" y="1008" type="qcurve" smooth="yes"/>
      <point x="94" y="811"/>
      <point x="271" y="560"/>
      <point x="398" y="560" type="qcurve" smooth="yes"/>
      <point x="501" y="560" type="line"/>
      <point x="501" y="-216" type="line"/>
      <point x="550" y="-216" type="line"/>
      <point x="550" y="1360" type="line"/>
      <point x="811" y="1360" type="line"/>
    </contour>
  </outline>
</glyph>
<glyph name="periodcentered" format="1">
  <advance width="434"/>
  <unicode hex="00B7"/>
  <outline>
    <contour>
      <point x="161" y="752" type="qcurve" smooth="yes"/>
      <point x="161" y="719"/>
      <point x="186" y="674"/>
      <point x="217" y="674" type="qcurve" smooth="yes"/>
      <point x="248" y="674"/>
      <point x="273" y="719"/>
      <point x="273" y="752" type="qcurve" smooth="yes"/>
      <point x="273" y="786"/>
      <point x="248" y="831"/>
      <point x="217" y="831" type="qcurve" smooth="yes"/>
      <point x="186" y="831"/>
      <point x="161" y="786"/>
    </contour>
  </outline>
</glyph>
<glyph name="cedilla" format="1">
  <advance width="839"/>
  <unicode hex="00B8"/>
  <outline>
    <contour>
      <point x="419" y="-119" type="line"/>
      <point x="400" y="-239" type="line"/>
      <point x="436" y="-239"/>
      <point x="546" y="-322"/>
      <point x="546" y="-399" type="qcurve" smooth="yes"/>
      <point x="546" y="-486"/>
      <point x="387" y="-573"/>
      <point x="307" y="-573" type="qcurve"/>
      <point x="307" y="-595" type="line"/>
      <point x="458" y="-595"/>
      <point x="579" y="-463"/>
      <point x="579" y="-389" type="qcurve" smooth="yes"/>
      <point x="579" y="-329"/>
      <point x="521" y="-260"/>
      <point x="391" y="-232" type="qcurve"/>
      <point x="419" y="-119" type="line"/>
    </contour>
  </outline>
</glyph>
<glyph name="ordmasculine" format="1">
  <advance width="718"/>
  <unicode hex="00BA"/>
  <outline>
    <contour>
      <point x="78" y="1076" type="line" smooth="yes"/>
      <point x="78" y="903"/>
      <point x="222" y="671"/>
      <point x="358" y="671" type="qcurve" smooth="yes"/>
      <point x="493" y="671"/>
      <point x="640" y="898"/>
      <point x="640" y="1046" type="qcurve" smooth="yes"/>
      <point x="640" y="1128" type="line" smooth="yes"/>
      <point x="640" y="1294"/>
      <point x="497" y="1521"/>
      <point x="357" y="1521" type="qcurve" smooth="yes"/>
      <point x="224" y="1521"/>
      <point x="78" y="1293"/>
      <point x="78" y="1148" type="qcurve" smooth="yes"/>
    </contour>
    <contour>
      <point x="127" y="1156" type="line" smooth="yes"/>
      <point x="127" y="1264"/>
      <point x="236" y="1476"/>
      <point x="358" y="1476" type="qcurve" smooth="yes"/>
      <point x="481" y="1476"/>
      <point x="591" y="1260"/>
      <point x="591" y="1136" type="qcurve" smooth="yes"/>
      <point x="591" y="1056" type="line" smooth="yes"/>
      <point x="591" y="941"/>
      <point x="482" y="716"/>
      <point x="359" y="716" type="qcurve" smooth="yes"/>
      <point x="234" y="716"/>
      <point x="127" y="950"/>
      <point x="127" y="1086" type="qcurve" smooth="yes"/>
    </contour>
  </outline>
</glyph>
<glyph name="guillemetright" format="1">
  <advance width="837"/>
  <unicode hex="00BB"/>
  <outline>
    <contour>
      <point x="511" y="993" type="line"/>
      <point x="495" y="993" type="line"/>
      <point x="693" y="609" type="line"/>
      <point x="495" y="226" type="line"/>
      <point x="511" y="226" type="line"/>
      <point x="759" y="621" type="line"/>
      <point x="759" y="597" type="line"/>
    </contour>
    <contour>
      <point x="143" y="993" type="line"/>
      <point x="127" y="993" type="line"/>
      <point x="325" y="609" type="line"/>
      <point x="127" y="226" type="line"/>
      <point x="143" y="226" type="line"/>
      <point x="391" y="621" type="line"/>
      <point x="391" y="597" type="line"/>
    </contour>
  </outline>
</glyph>
<glyph name="questiondown" format="1">
  <advance width="737"/>
  <unicode hex="00BF"/>
  <outline>
    <contour>
      <point x="389" y="712" type="line"/>
      <point x="389" y="767" type="line"/>
      <point x="389" y="685"/>
      <point x="347" y="516"/>
      <point x="264" y="421" type="qcurve" smooth="yes"/>
      <point x="207" y="356"/>
      <point x="96" y="159"/>
      <point x="96" y="30" type="qcurve" smooth="yes"/>
      <point x="96" y="-137"/>
      <point x="244" y="-323"/>
      <point x="382" y="-323" type="qcurve" smooth="yes"/>
      <point x="521" y="-323"/>
      <point x="677" y="-148"/>
      <point x="677" y="7" type="qcurve"/>
      <point x="677" y="-28" type="line"/>
      <point x="629" y="-28" type="line"/>
      <point x="629" y="7" type="line"/>
      <point x="629" y="-117"/>
      <point x="491" y="-262"/>
      <point x="382" y="-262" type="qcurve" smooth="yes"/>
      <point x="270" y="-262"/>
      <point x="145" y="-108"/>
      <point x="145" y="24" type="qcurve" smooth="yes"/>
      <point x="145" y="150"/>
      <point x="245" y="316"/>
      <point x="318" y="410" type="qcurve" smooth="yes"/>
      <point x="392" y="500"/>
      <point x="438" y="636"/>
      <point x="438" y="764" type="qcurve"/>
      <point x="438" y="712" type="line"/>
    </contour>
    <contour>
      <point x="454" y="1110" type="qcurve" smooth="yes"/>
      <point x="454" y="1142"/>
      <point x="430" y="1178"/>
      <point x="406" y="1178" type="qcurve" smooth="yes"/>
      <point x="381" y="1178"/>
      <point x="358" y="1142"/>
      <point x="358" y="1110" type="qcurve" smooth="yes"/>
      <point x="358" y="1076"/>
      <point x="381" y="1040"/>
      <point x="406" y="1040" type="qcurve" smooth="yes"/>
      <point x="430" y="1040"/>
      <point x="454" y="1076"/>
    </contour>
  </outline>
</glyph>
<glyph name="AE" format="1">
  <advance width="1422"/>
  <unicode hex="00C6"/>
  <outline>
    <contour>
      <point x="254" y="417" type="line"/>
      <point x="672" y="417" type="line"/>
      <point x="672" y="468" type="line"/>
      <point x="264" y="468" type="line"/>
    </contour>
    <contour>
      <point x="741" y="0" type="line"/>
      <point x="1354" y="0" type="line"/>
      <point x="1354" y="56" type="line"/>
      <point x="792" y="56" type="line"/>
      <point x="792" y="725" type="line"/>
      <point x="1268" y="725" type="line"/>
      <point x="1268" y="781" type="line"/>
      <point x="792" y="781" type="line"/>
      <point x="792" y="1399" type="line"/>
      <point x="1346" y="1399" type="line"/>
      <point x="1346" y="1456" type="line"/>
      <point x="611" y="1456" type="line"/>
      <point x="-30" y="0" type="line"/>
      <point x="13" y="0" type="line"/>
      <point x="741" y="1617" type="line"/>
    </contour>
  </outline>
</glyph>
<glyph name="Eth" format="1">
  <advance width="1078"/>
  <unicode hex="00D0"/>
  <outline>
    <contour>
      <point x="151" y="0" type="line"/>
      <point x="448" y="0" type="line" smooth="yes"/>
      <point x="681" y="0"/>
      <point x="963" y="363"/>
      <point x="963" y="681" type="qcurve" smooth="yes"/>
      <point x="963" y="774" type="line" smooth="yes"/>
      <point x="963" y="1092"/>
      <point x="682" y="1456"/>
      <point x="464" y="1456" type="qcurve" smooth="yes"/>
      <point x="151" y="1456" type="line"/>
    </contour>
    <contour>
      <point x="206" y="56" type="line"/>
      <point x="206" y="1399" type="line"/>
      <point x="464" y="1399" type="line" smooth="yes"/>
      <point x="671" y="1399"/>
      <point x="910" y="1064"/>
      <point x="910" y="776" type="qcurve" smooth="yes"/>
      <point x="910" y="681" type="line" smooth="yes"/>
      <point x="910" y="406"/>
      <point x="671" y="56"/>
      <point x="448" y="56" type="qcurve" smooth="yes"/>
    </contour>
    <contour>
      <point x="42" y="753" type="line"/>
      <point x="42" y="705" type="line"/>
      <point x="490" y="705" type="line"/>
      <point x="490" y="753" type="line"/>
    </contour>
  </outline>
</glyph>
<glyph name="multiply" format="1">
  <advance width="924"/>
  <unicode hex="00D7"/>
  <outline>
    <contour>
      <point x="174" y="302" type="line"/>
      <point x="194" y="257" type="line"/>
      <point x="748" y="1056" type="line"/>
      <point x="726" y="1102" type="line"/>
    </contour>
    <contour>
      <point x="175" y="1057" type="line"/>
      <point x="728" y="258" type="line"/>
      <point x="750" y="305" type="line"/>
      <point x="198" y="1106" type="line"/>
    </contour>
  </outline>
</glyph>
<glyph name="Oslash" format="1">
  <advance width="1190"/>
  <unicode hex="00D8"/>
  <outline>
    <contour>
      <point x="126" y="678" type="line" smooth="yes"/>
      <point x="126" y="342"/>
      <point x="393" y="-32"/>
      <point x="596" y="-32" type="qcurve" smooth="yes"/>
      <point x="802" y="-32"/>
      <point x="1064" y="346"/>
      <point x="1064" y="678" type="qcurve" smooth="yes"/>
      <point x="1064" y="778" type="line" smooth="yes"/>
      <point x="1064" y="1112"/>
      <point x="802" y="1488"/>
      <point x="595" y="1488" type="qcurve" smooth="yes"/>
      <point x="394" y="1488"/>
      <point x="126" y="1108"/>
      <point x="126" y="778" type="qcurve" smooth="yes"/>
    </contour>
    <contour>
      <point x="184" y="678" type="qcurve" smooth="yes"/>
      <point x="184" y="780" type="line" smooth="yes"/>
      <point x="184" y="1076"/>
      <point x="410" y="1425"/>
      <point x="595" y="1425" type="qcurve" smooth="yes"/>
      <point x="786" y="1425"/>
      <point x="1006" y="1072"/>
      <point x="1006" y="780" type="qcurve" smooth="yes"/>
      <point x="1006" y="678" type="line" smooth="yes"/>
      <point x="1006" y="381"/>
      <point x="789" y="30"/>
      <point x="596" y="30" type="qcurve" smooth="yes"/>
      <point x="413" y="30"/>
      <point x="184" y="382"/>
    </contour>
    <contour>
      <point x="156" y="-89" type="line"/>
      <point x="201" y="-89" type="line"/>
      <point x="299" y="104" type="line"/>
      <point x="301" y="130" type="line"/>
      <point x="574" y="664" type="line"/>
      <point x="551" y="689" type="line"/>
      <point x="306" y="191" type="line"/>
      <point x="283" y="180" type="line"/>
    </contour>
    <contour>
      <point x="977" y="1531" type="line"/>
      <point x="885" y="1350" type="line"/>
      <point x="885" y="1326" type="line"/>
      <point x="608" y="789" type="line"/>
      <point x="632" y="763" type="line"/>
      <point x="893" y="1285" type="line"/>
      <point x="909" y="1302" type="line"/>
      <point x="1018" y="1531" type="line"/>
    </contour>
  </outline>
</glyph>
<glyph name="Thorn" format="1">
  <advance width="942"/>
  <unicode hex="00DE"/>
  <outline>
    <contour>
      <point x="225" y="313" type="line"/>
      <point x="523" y="312" type="line" smooth="yes"/>
      <point x="705" y="311"/>
      <point x="894" y="537"/>
      <point x="894" y="741" type="qcurve" smooth="yes"/>
      <point x="894" y="926"/>
      <point x="705" y="1152"/>
      <point x="523" y="1152" type="qcurve" smooth="yes"/>
      <point x="225" y="1152" type="line"/>
      <point x="225" y="1456" type="line"/>
      <point x="170" y="1456" type="line"/>
      <point x="170" y="0" type="line"/>
      <point x="225" y="0" type="line"/>
    </contour>
    <contour>
      <point x="224" y="369" type="line"/>
      <point x="224" y="1096" type="line"/>
      <point x="523" y="1096" type="line" smooth="yes"/>
      <point x="687" y="1095"/>
      <point x="839" y="880"/>
      <point x="839" y="740" type="qcurve" smooth="yes"/>
      <point x="839" y="589"/>
      <point x="687" y="369"/>
      <point x="523" y="369" type="qcurve" smooth="yes"/>
    </contour>
  </outline>
</glyph>
<glyph name="germandbls" format="1">
  <advance width="926"/>
  <unicode hex="00DF"/>
  <outline>
    <contour>
      <point x="193" y="1137" type="line" smooth="yes"/>
      <point x="193" y="1316"/>
      <point x="311" y="1506"/>
      <point x="415" y="1506" type="qcurve" smooth="yes"/>
      <point x="519" y="1506"/>
      <point x="616" y="1338"/>
      <point x="616" y="1233" type="qcurve" smooth="yes"/>
      <point x="616" y="1166"/>
      <point x="581" y="1063"/>
      <point x="560" y="1019" type="qcurve" smooth="yes"/>
      <point x="539" y="973"/>
      <point x="505" y="884"/>
      <point x="505" y="826" type="qcurve" smooth="yes"/>
      <point x="505" y="745"/>
      <point x="567" y="630"/>
      <point x="612" y="581" type="qcurve"/>
      <point x="665" y="517"/>
      <point x="784" y="382"/>
      <point x="784" y="274" type="qcurve" smooth="yes"/>
      <point x="784" y="173"/>
      <point x="673" y="28"/>
      <point x="562" y="28" type="qcurve" smooth="yes"/>
      <point x="500" y="28"/>
      <point x="378" y="92"/>
      <point x="400" y="74" type="qcurve"/>
      <point x="393" y="21" type="line"/>
      <point x="387" y="21"/>
      <point x="516" y="-21"/>
      <point x="577" y="-21" type="qcurve" smooth="yes"/>
      <point x="696" y="-21"/>
      <point x="838" y="129"/>
      <point x="838" y="284" type="qcurve" smooth="yes"/>
      <point x="838" y="391"/>
      <point x="727" y="539"/>
      <point x="667" y="606" type="qcurve" smooth="yes"/>
      <point x="629" y="649"/>
      <point x="558" y="748"/>
      <point x="558" y="824" type="qcurve" smooth="yes"/>
      <point x="558" y="885"/>
      <point x="591" y="977"/>
      <point x="610" y="1019" type="qcurve" smooth="yes"/>
      <point x="629" y="1062"/>
      <point x="661" y="1166"/>
      <point x="661" y="1250" type="qcurve" smooth="yes"/>
      <point x="661" y="1387"/>
      <point x="536" y="1555"/>
      <point x="407" y="1555" type="qcurve" smooth="yes"/>
      <point x="286" y="1555"/>
      <point x="140" y="1350"/>
      <point x="140" y="1137" type="qcurve" smooth="yes"/>
      <point x="140" y="0" type="line"/>
      <point x="193" y="0" type="line"/>
    </contour>
  </outline>
</glyph>
<glyph name="eth" format="1">
  <advance width="861"/>
  <unicode hex="00F0"/>
  <outline>
    <contour>
      <point x="748" y="1487" type="line"/>
      <point x="736" y="1528" type="line"/>
      <point x="393" y="1210" type="line"/>
      <point x="407" y="1167" type="line"/>
    </contour>
    <contour>
      <point x="703" y="625" type="line"/>
      <point x="703" y="518" type="line" smooth="yes"/>
      <point x="703" y="317"/>
      <point x="560" y="29"/>
      <point x="433" y="29" type="qcurve" smooth="yes"/>
      <point x="297" y="29"/>
      <point x="150" y="297"/>
      <point x="150" y="446" type="qcurve" smooth="yes"/>
      <point x="150" y="641"/>
      <point x="304" y="886"/>
      <point x="442" y="886" type="qcurve" smooth="yes"/>
      <point x="566" y="886"/>
      <point x="703" y="687"/>
      <point x="704" y="649" type="qcurve"/>
      <point x="680" y="639" type="line"/>
      <point x="680" y="724"/>
      <point x="524" y="937"/>
      <point x="407" y="937" type="qcurve" smooth="yes"/>
      <point x="273" y="937"/>
      <point x="96" y="672"/>
      <point x="96" y="446" type="qcurve" smooth="yes"/>
      <point x="96" y="250"/>
      <point x="280" y="-21"/>
      <point x="430" y="-21" type="qcurve" smooth="yes"/>
      <point x="588" y="-21"/>
      <point x="757" y="296"/>
      <point x="757" y="678" type="qcurve" smooth="yes"/>
      <point x="757" y="874" type="line" smooth="yes"/>
      <point x="757" y="1183"/>
      <point x="590" y="1559"/>
      <point x="439" y="1559" type="qcurve" smooth="yes"/>
      <point x="320" y="1559"/>
      <point x="165" y="1454"/>
      <point x="152" y="1419" type="qcurve"/>
      <point x="170" y="1370" type="line"/>
      <point x="167" y="1368"/>
      <point x="320" y="1508"/>
      <point x="425" y="1508" type="qcurve" smooth="yes"/>
      <point x="540" y="1508"/>
      <point x="703" y="1212"/>
      <point x="703" y="968" type="qcurve" smooth="yes"/>
    </contour>
  </outline>
</glyph>
<glyph name="divide" format="1">
  <advance width="876"/>
  <unicode hex="00F7"/>
  <outline>
    <contour>
      <point x="86" y="658" type="line"/>
      <point x="790" y="658" type="line"/>
      <point x="790" y="724" type="line"/>
      <point x="86" y="724" type="line"/>
    </contour>
    <contour>
      <point x="385" y="1117" type="qcurve" smooth="yes"/>
      <point x="385" y="1084"/>
      <point x="407" y="1043"/>
      <point x="438" y="1043" type="qcurve" smooth="yes"/>
      <point x="468" y="1043"/>
      <point x="491" y="1085"/>
      <point x="491" y="1117" type="qcurve" smooth="yes"/>
      <point x="491" y="1151"/>
      <point x="468" y="1194"/>
      <point x="438" y="1194" type="qcurve" smooth="yes"/>
      <point x="408" y="1194"/>
      <point x="385" y="1152"/>
    </contour>
    <contour>
      <point x="385" y="267" type="qcurve" smooth="yes"/>
      <point x="385" y="232"/>
      <point x="407" y="191"/>
      <point x="438" y="191" type="qcurve" smooth="yes"/>
      <point x="468" y="191"/>
      <point x="491" y="234"/>
      <point x="491" y="268" type="qcurve" smooth="yes"/>
      <point x="491" y="301"/>
      <point x="468" y="344"/>
      <point x="438" y="344" type="qcurve" smooth="yes"/>
      <point x="409" y="344"/>
      <point x="385" y="301"/>
    </contour>
  </outline>
</glyph>
<glyph name="oslash" format="1">
  <advance width="869"/>
  <unicode hex="00F8"/>
  <outline>
    <contour>
      <point x="85" y="507" type="line" smooth="yes"/>
      <point x="85" y="266"/>
      <point x="274" y="-33"/>
      <point x="436" y="-33" type="qcurve" smooth="yes"/>
      <point x="596" y="-33"/>
      <point x="784" y="266"/>
      <point x="784" y="507" type="qcurve" smooth="yes"/>
      <point x="784" y="544" type="line" smooth="yes"/>
      <point x="784" y="793"/>
      <point x="601" y="1085"/>
      <point x="434" y="1085" type="qcurve" smooth="yes"/>
      <point x="274" y="1085"/>
      <point x="85" y="785"/>
      <point x="85" y="544" type="qcurve" smooth="yes"/>
    </contour>
    <contour>
      <point x="143" y="544" type="line" smooth="yes"/>
      <point x="143" y="742"/>
      <point x="289" y="1035"/>
      <point x="434" y="1035" type="qcurve" smooth="yes"/>
      <point x="580" y="1035"/>
      <point x="727" y="742"/>
      <point x="727" y="544" type="qcurve" smooth="yes"/>
      <point x="727" y="507" type="line" smooth="yes"/>
      <point x="727" y="306"/>
      <point x="580" y="17"/>
      <point x="436" y="17" type="qcurve" smooth="yes"/>
      <point x="289" y="17"/>
      <point x="143" y="306"/>
      <point x="143" y="507" type="qcurve" smooth="yes"/>
    </contour>
    <contour>
      <point x="410" y="485" type="line"/>
      <point x="404" y="498" type="line"/>
      <point x="247" y="71" type="line"/>
      <point x="230" y="45" type="line"/>
      <point x="171" y="-138" type="line"/>
      <point x="190" y="-138" type="line"/>
      <point x="254" y="42" type="line"/>
      <point x="255" y="67" type="line"/>
    </contour>
    <contour>
      <point x="687" y="1218" type="line"/>
      <point x="668" y="1218" type="line"/>
      <point x="597" y="1020" type="line"/>
      <point x="597" y="998" type="line"/>
      <point x="452" y="602" type="line"/>
      <point x="458" y="590" type="line"/>
      <point x="601" y="982" type="line"/>
      <point x="618" y="1007" type="line"/>
    </contour>
  </outline>
</glyph>
<glyph name="thorn" format="1">
  <advance width="886"/>
  <unicode hex="00FE"/>
  <outline>
    <contour>
      <point x="148" y="-446" type="line"/>
      <point x="201" y="-446" type="line"/>
      <point x="201" y="284" type="line"/>
      <point x="323" y="53"/>
      <point x="429" y="-16"/>
      <point x="512" y="-16" type="qcurve" smooth="yes"/>
      <point x="648" y="-16"/>
      <point x="801" y="278"/>
      <point x="801" y="511" type="qcurve" smooth="yes"/>
      <point x="801" y="534" type="line" smooth="yes"/>
      <point x="801" y="773"/>
      <point x="649" y="1049"/>
      <point x="510" y="1049" type="qcurve" smooth="yes"/>
      <point x="430" y="1049"/>
      <point x="323" y="978"/>
      <point x="202" y="767" type="qcurve"/>
      <point x="202" y="1536" type="line"/>
      <point x="148" y="1536" type="line"/>
    </contour>
    <contour>
      <point x="202" y="309" type="qcurve"/>
      <point x="202" y="739" type="line"/>
      <point x="232" y="847"/>
      <point x="365" y="994"/>
      <point x="473" y="994" type="qcurve" smooth="yes"/>
      <point x="625" y="994"/>
      <point x="747" y="712"/>
      <point x="747" y="534" type="qcurve" smooth="yes"/>
      <point x="747" y="511" type="line" smooth="yes"/>
      <point x="747" y="328"/>
      <point x="620" y="40"/>
      <point x="475" y="40" type="qcurve" smooth="yes"/>
      <point x="368" y="40"/>
      <point x="235" y="195"/>
    </contour>
  </outline>
</glyph>
<glyph name="OE" format="1">
  <advance width="1556"/>
  <unicode hex="0152"/>
  <outline>
    <contour>
      <point x="874" y="0" type="line"/>
      <point x="1488" y="0" type="line"/>
      <point x="1488" y="56" type="line"/>
      <point x="925" y="56" type="line"/>
      <point x="925" y="725" type="line"/>
      <point x="1401" y="725" type="line"/>
      <point x="1401" y="781" type="line"/>
      <point x="925" y="781" type="line"/>
      <point x="925" y="1399" type="line"/>
      <point x="1479" y="1399" type="line"/>
      <point x="1479" y="1456" type="line"/>
      <point x="874" y="1456" type="line"/>
    </contour>
    <contour>
      <point x="115" y="678" type="line" smooth="yes"/>
      <point x="115" y="350"/>
      <point x="372" y="-22"/>
      <point x="551" y="-22" type="qcurve" smooth="yes"/>
      <point x="648" y="-22"/>
      <point x="764" y="41"/>
      <point x="798" y="90" type="qcurve"/>
      <point x="852" y="214" type="line"/>
      <point x="842" y="138"/>
      <point x="685" y="41"/>
      <point x="567" y="41" type="qcurve" smooth="yes"/>
      <point x="403" y="41"/>
      <point x="173" y="382"/>
      <point x="173" y="678" type="qcurve" smooth="yes"/>
      <point x="173" y="780" type="line" smooth="yes"/>
      <point x="173" y="1076"/>
      <point x="399" y="1425"/>
      <point x="584" y="1425" type="qcurve" smooth="yes"/>
      <point x="685" y="1425"/>
      <point x="848" y="1319"/>
      <point x="802" y="1394" type="qcurve"/>
      <point x="802" y="1404" type="line"/>
      <point x="778" y="1427"/>
      <point x="650" y="1488"/>
      <point x="584" y="1488" type="qcurve" smooth="yes"/>
      <point x="383" y="1488"/>
      <point x="115" y="1108"/>
      <point x="115" y="778" type="qcurve" smooth="yes"/>
    </contour>
  </outline>
</glyph>
<glyph name="circumflex" format="1">
  <advance width="801"/>
  <unicode hex="02C6"/>
  <outline>
    <contour>
      <point x="440" y="1502" type="line"/>
      <point x="359" y="1502" type="line"/>
      <point x="190" y="1214" type="line"/>
      <point x="190" y="1283" type="line"/>
      <point x="254" y="1283" type="line"/>
      <point x="400" y="1498" type="line"/>
      <point x="546" y="1283" type="line"/>
      <point x="611" y="1283" type="line"/>
      <point x="611" y="1213" type="line"/>
    </contour>
  </outline>
</glyph>
<glyph name="ring" format="1">
  <advance width="833"/>
  <unicode hex="02DA"/>
  <outline>
    <contour>
      <point x="272" y="1453" type="qcurve" smooth="yes"/>
      <point x="272" y="1370"/>
      <point x="353" y="1260"/>
      <point x="417" y="1260" type="qcurve" smooth="yes"/>
      <point x="480" y="1260"/>
      <point x="561" y="1370"/>
      <point x="561" y="1453" type="qcurve" smooth="yes"/>
      <point x="561" y="1534"/>
      <point x="480" y="1651"/>
      <point x="417" y="1651" type="qcurve" smooth="yes"/>
      <point x="353" y="1651"/>
      <point x="272" y="1534"/>
    </contour>
    <contour>
      <point x="276" y="1453" type="qcurve" smooth="yes"/>
      <point x="276" y="1527"/>
      <point x="357" y="1644"/>
      <point x="417" y="1644" type="qcurve" smooth="yes"/>
      <point x="476" y="1644"/>
      <point x="557" y="1527"/>
      <point x="557" y="1453" type="qcurve" smooth="yes"/>
      <point x="557" y="1378"/>
      <point x="476" y="1266"/>
      <point x="417" y="1266" type="qcurve" smooth="yes"/>
      <point x="357" y="1266"/>
      <point x="276" y="1381"/>
    </contour>
  </outline>
</glyph>
<glyph name="tilde" format="1">
  <advance width="787"/>
  <unicode hex="02DC"/>
  <outline>
    <contour>
      <point x="624" y="1452" type="line"/>
      <point x="624" y="1443"/>
      <point x="550" y="1334"/>
      <point x="497" y="1334" type="qcurve" smooth="yes"/>
      <point x="417" y="1334"/>
      <point x="334" y="1439"/>
      <point x="282" y="1439" type="qcurve" smooth="yes"/>
      <point x="229" y="1439"/>
      <point x="158" y="1323"/>
      <point x="158" y="1280" type="qcurve"/>
      <point x="163" y="1280" type="line"/>
      <point x="163" y="1292"/>
      <point x="236" y="1400"/>
      <point x="290" y="1400" type="qcurve" smooth="yes"/>
      <point x="376" y="1400"/>
      <point x="443" y="1294"/>
      <point x="504" y="1294" type="qcurve" smooth="yes"/>
      <point x="557" y="1294"/>
      <point x="629" y="1407"/>
      <point x="629" y="1451" type="qcurve"/>
    </contour>
  </outline>
</glyph>
<glyph name="Germandbls" format="1">
  <advance width="1081"/>
  <unicode hex="1E9E"/>
  <outline>
    <contour>
      <point x="971" y="364" type="qcurve" smooth="yes"/>
      <point x="971" y="427" type="line" smooth="yes"/>
      <point x="971" y="561"/>
      <point x="810" y="734"/>
      <point x="635" y="770" type="qcurve"/>
      <point x="635" y="851" type="line"/>
      <point x="888" y="1107" type="line"/>
      <point x="888" y="1098" type="line"/>
      <point x="888" y="1256"/>
      <point x="729" y="1488"/>
      <point x="560" y="1488" type="qcurve" smooth="yes"/>
      <point x="390" y="1488"/>
      <point x="169" y="1264"/>
      <point x="169" y="1056" type="qcurve" smooth="yes"/>
      <point x="169" y="0" type="line"/>
      <point x="224" y="0" type="line"/>
      <point x="224" y="1069" type="line" smooth="yes"/>
      <point x="224" y="1256"/>
      <point x="402" y="1424"/>
      <point x="552" y="1424" type="qcurve" smooth="yes"/>
      <point x="680" y="1424"/>
      <point x="821" y="1272"/>
      <point x="834" y="1117" type="qcurve"/>
      <point x="568" y="827" type="line"/>
      <point x="588" y="736" type="line"/>
      <point x="745" y="699"/>
      <point x="916" y="534"/>
      <point x="916" y="408" type="qcurve" smooth="yes"/>
      <point x="916" y="351" type="line" smooth="yes"/>
      <point x="916" y="210"/>
      <point x="724" y="36"/>
      <point x="569" y="36" type="qcurve" smooth="yes"/>
      <point x="540" y="36"/>
      <point x="452" y="42"/>
      <point x="483" y="35" type="qcurve"/>
      <point x="478" y="-22" type="line"/>
      <point x="452" y="-17"/>
      <point x="548" y="-24"/>
      <point x="580" y="-24" type="qcurve" smooth="yes"/>
      <point x="759" y="-24"/>
      <point x="971" y="188"/>
    </contour>
  </outline>
</glyph>
<glyph name="endash" format="1">
  <advance width="1030"/>
  <unicode hex="2013"/>
  <outline>
    <contour>
      <point x="124" y="599" type="line"/>
      <point x="906" y="599" type="line"/>
      <point x="906" y="671" type="line"/>
      <point x="124" y="671" type="line"/>
    </contour>
  </outline>
</glyph>
<glyph name="emdash" format="1">
  <advance width="1217"/>
  <unicode hex="2014"/>
  <outline>
    <contour>
      <point x="80" y="599" type="line"/>
      <point x="1137" y="599" type="line"/>
      <point x="1137" y="671" type="line"/>
      <point x="80" y="671" type="line"/>
    </contour>
  </outline>
</glyph>
<glyph name="quoteleft" format="1">
  <advance width="289"/>
  <unicode hex="2018"/>
  <outline>
    <contour>
      <point x="126" y="1194" type="line"/>
      <point x="177" y="1194" type="line"/>
      <point x="177" y="1273" type="line" smooth="yes"/>
      <point x="177" y="1376"/>
      <point x="231" y="1547"/>
      <point x="239" y="1574" type="qcurve"/>
      <point x="222" y="1599" type="line"/>
      <point x="190" y="1560"/>
      <point x="126" y="1357"/>
      <point x="126" y="1269" type="qcurve" smooth="yes"/>
    </contour>
  </outline>
</glyph>
<glyph name="quotesinglbase" format="1">
  <advance width="289"/>
  <unicode hex="201A"/>
  <outline>
    <contour>
      <point x="132" y="-254" type="qcurve"/>
      <point x="149" y="-279" type="line"/>
      <point x="181" y="-240"/>
      <point x="245" y="-36"/>
      <point x="245" y="51" type="qcurve" smooth="yes"/>
      <point x="245" y="126" type="line"/>
      <point x="194" y="126" type="line"/>
      <point x="194" y="47" type="line" smooth="yes"/>
      <point x="194" y="-56"/>
      <point x="140" y="-227"/>
    </contour>
  </outline>
</glyph>
<glyph name="quotedblleft" format="1">
  <advance width="609"/>
  <unicode hex="201C"/>
  <outline>
    <contour>
      <point x="126" y="1194" type="line"/>
      <point x="177" y="1194" type="line"/>
      <point x="177" y="1273" type="line" smooth="yes"/>
      <point x="177" y="1376"/>
      <point x="231" y="1547"/>
      <point x="239" y="1574" type="qcurve"/>
      <point x="222" y="1599" type="line"/>
      <point x="190" y="1560"/>
      <point x="126" y="1357"/>
      <point x="126" y="1269" type="qcurve" smooth="yes"/>
    </contour>
    <contour>
      <point x="446" y="1194" type="line"/>
      <point x="497" y="1194" type="line"/>
      <point x="497" y="1273" type="line" smooth="yes"/>
      <point x="497" y="1376"/>
      <point x="551" y="1547"/>
      <point x="559" y="1574" type="qcurve"/>
      <point x="542" y="1599" type="line"/>
      <point x="510" y="1560"/>
      <point x="446" y="1357"/>
      <point x="446" y="1269" type="qcurve" smooth="yes"/>
    </contour>
  </outline>
</glyph>
<glyph name="quotedblright" format="1">
  <advance width="609"/>
  <unicode hex="201D"/>
  <outline>
    <contour>
      <point x="132" y="1122" type="qcurve"/>
      <point x="149" y="1097" type="line"/>
      <point x="181" y="1136"/>
      <point x="245" y="1339"/>
      <point x="245" y="1426" type="qcurve" smooth="yes"/>
      <point x="245" y="1502" type="line"/>
      <point x="194" y="1502" type="line"/>
      <point x="194" y="1423" type="line" smooth="yes"/>
      <point x="194" y="1320"/>
      <point x="140" y="1149"/>
    </contour>
    <contour>
      <point x="452" y="1122" type="qcurve"/>
      <point x="469" y="1097" type="line"/>
      <point x="501" y="1136"/>
      <point x="565" y="1339"/>
      <point x="565" y="1426" type="qcurve" smooth="yes"/>
      <point x="565" y="1502" type="line"/>
      <point x="514" y="1502" type="line"/>
      <point x="514" y="1423" type="line" smooth="yes"/>
      <point x="514" y="1320"/>
      <point x="460" y="1149"/>
    </contour>
  </outline>
</glyph>
<glyph name="dagger" format="1">
  <advance width="872"/>
  <unicode hex="2020"/>
  <outline>
    <contour>
      <point x="802" y="1093" type="line"/>
      <point x="434" y="1074" type="line"/>
      <point x="70" y="1093" type="line"/>
      <point x="70" y="1004" type="line"/>
      <point x="436" y="1023" type="line"/>
      <point x="802" y="1004" type="line"/>
    </contour>
    <contour>
      <point x="423" y="-242" type="line"/>
      <point x="462" y="508" type="line"/>
      <point x="437" y="1045" type="line"/>
      <point x="467" y="1521" type="line"/>
      <point x="405" y="1521" type="line"/>
      <point x="434" y="1045" type="line"/>
      <point x="409" y="509" type="line"/>
      <point x="448" y="-242" type="line"/>
    </contour>
  </outline>
</glyph>
<glyph name="bullet" format="1">
  <advance width="575"/>
  <unicode hex="2022"/>
  <outline>
    <contour>
      <point x="164" y="755" type="line" smooth="yes"/>
      <point x="164" y="687"/>
      <point x="229" y="596"/>
      <point x="287" y="596" type="qcurve" smooth="yes"/>
      <point x="345" y="596"/>
      <point x="411" y="687"/>
      <point x="411" y="755" type="qcurve" smooth="yes"/>
      <point x="411" y="801" type="line" smooth="yes"/>
      <point x="411" y="870"/>
      <point x="345" y="962"/>
      <point x="287" y="962" type="qcurve" smooth="yes"/>
      <point x="229" y="962"/>
      <point x="164" y="871"/>
      <point x="164" y="801" type="qcurve" smooth="yes"/>
    </contour>
  </outline>
</glyph>
<glyph name="ellipsis" format="1">
  <advance width="1362"/>
  <unicode hex="2026"/>
  <outline>
    <contour>
      <point x="625" y="53" type="qcurve" smooth="yes"/>
      <point x="625" y="20"/>
      <point x="650" y="-24"/>
      <point x="681" y="-24" type="qcurve" smooth="yes"/>
      <point x="712" y="-24"/>
      <point x="737" y="20"/>
      <point x="737" y="53" type="qcurve" smooth="yes"/>
      <point x="737" y="87"/>
      <point x="712" y="132"/>
      <point x="681" y="132" type="qcurve" smooth="yes"/>
      <point x="650" y="132"/>
      <point x="625" y="87"/>
    </contour>
    <contour>
      <point x="1089" y="53" type="qcurve" smooth="yes"/>
      <point x="1089" y="20"/>
      <point x="1114" y="-24"/>
      <point x="1145" y="-24" type="qcurve" smooth="yes"/>
      <point x="1176" y="-24"/>
      <point x="1201" y="20"/>
      <point x="1201" y="53" type="qcurve" smooth="yes"/>
      <point x="1201" y="87"/>
      <point x="1176" y="132"/>
      <point x="1145" y="132" type="qcurve" smooth="yes"/>
      <point x="1114" y="132"/>
      <point x="1089" y="87"/>
    </contour>
    <contour>
      <point x="161" y="53" type="qcurve" smooth="yes"/>
      <point x="161" y="20"/>
      <point x="186" y="-24"/>
      <point x="217" y="-24" type="qcurve" smooth="yes"/>
      <point x="248" y="-24"/>
      <point x="273" y="20"/>
      <point x="273" y="53" type="qcurve" smooth="yes"/>
      <point x="273" y="87"/>
      <point x="248" y="132"/>
      <point x="217" y="132" type="qcurve" smooth="yes"/>
      <point x="186" y="132"/>
      <point x="161" y="87"/>
    </contour>
  </outline>
</glyph>
<glyph name="perthousand" format="1">
  <advance width="1931"/>
  <unicode hex="2030"/>
  <outline>
    <contour>
      <point x="72" y="1002" type="line" smooth="yes"/>
      <point x="72" y="885"/>
      <point x="195" y="720"/>
      <point x="286" y="720" type="qcurve" smooth="yes"/>
      <point x="377" y="720"/>
      <point x="497" y="885"/>
      <point x="497" y="1002" type="qcurve" smooth="yes"/>
      <point x="497" y="1203" type="line" smooth="yes"/>
      <point x="497" y="1322"/>
      <point x="377" y="1487"/>
      <point x="284" y="1487" type="qcurve" smooth="yes"/>
      <point x="194" y="1487"/>
      <point x="72" y="1321"/>
      <point x="72" y="1203" type="qcurve" smooth="yes"/>
    </contour>
    <contour>
      <point x="105" y="1000" type="qcurve" smooth="yes"/>
      <point x="105" y="1205" type="line" smooth="yes"/>
      <point x="105" y="1280"/>
      <point x="196" y="1436"/>
      <point x="284" y="1436" type="qcurve" smooth="yes"/>
      <point x="372" y="1436"/>
      <point x="464" y="1280"/>
      <point x="464" y="1205" type="qcurve" smooth="yes"/>
      <point x="464" y="1000" type="line" smooth="yes"/>
      <point x="464" y="926"/>
      <point x="375" y="772"/>
      <point x="286" y="772" type="qcurve" smooth="yes"/>
      <point x="197" y="772"/>
      <point x="105" y="926"/>
    </contour>
    <contour>
      <point x="995" y="1450" type="line"/>
      <point x="989" y="1462" type="line"/>
      <point x="272" y="-13" type="line"/>
      <point x="278" y="-25" type="line"/>
    </contour>
    <contour>
      <point x="802" y="257" type="line" smooth="yes"/>
      <point x="802" y="139"/>
      <point x="917" y="-25"/>
      <point x="1016" y="-25" type="qcurve" smooth="yes"/>
      <point x="1114" y="-25"/>
      <point x="1227" y="139"/>
      <point x="1227" y="257" type="qcurve" smooth="yes"/>
      <point x="1227" y="459" type="line" smooth="yes"/>
      <point x="1227" y="578"/>
      <point x="1114" y="743"/>
      <point x="1014" y="743" type="qcurve" smooth="yes"/>
      <point x="917" y="743"/>
      <point x="802" y="578"/>
      <point x="802" y="459" type="qcurve" smooth="yes"/>
    </contour>
    <contour>
      <point x="835" y="255" type="qcurve" smooth="yes"/>
      <point x="835" y="461" type="line" smooth="yes"/>
      <point x="835" y="533"/>
      <point x="916" y="691"/>
      <point x="1014" y="691" type="qcurve" smooth="yes"/>
      <point x="1113" y="691"/>
      <point x="1194" y="533"/>
      <point x="1194" y="461" type="qcurve" smooth="yes"/>
      <point x="1194" y="255" type="line" smooth="yes"/>
      <point x="1194" y="184"/>
      <point x="1115" y="27"/>
      <point x="1016" y="27" type="qcurve" smooth="yes"/>
      <point x="917" y="27"/>
      <point x="835" y="183"/>
    </contour>
    <contour>
      <point x="1434" y="257" type="line" smooth="yes"/>
      <point x="1434" y="139"/>
      <point x="1548" y="-25"/>
      <point x="1648" y="-25" type="qcurve" smooth="yes"/>
      <point x="1746" y="-25"/>
      <point x="1859" y="139"/>
      <point x="1859" y="257" type="qcurve" smooth="yes"/>
      <point x="1859" y="459" type="line" smooth="yes"/>
      <point x="1859" y="578"/>
      <point x="1746" y="743"/>
      <point x="1646" y="743" type="qcurve" smooth="yes"/>
      <point x="1549" y="743"/>
      <point x="1434" y="578"/>
      <point x="1434" y="459" type="qcurve" smooth="yes"/>
    </contour>
    <contour>
      <point x="1466" y="255" type="qcurve" smooth="yes"/>
      <point x="1466" y="461" type="line" smooth="yes"/>
      <point x="1466" y="533"/>
      <point x="1547" y="691"/>
      <point x="1646" y="691" type="qcurve" smooth="yes"/>
      <point x="1744" y="691"/>
      <point x="1825" y="533"/>
      <point x="1825" y="461" type="qcurve" smooth="yes"/>
      <point x="1825" y="255" type="line" smooth="yes"/>
      <point x="1825" y="184"/>
      <point x="1747" y="27"/>
      <point x="1648" y="27" type="qcurve" smooth="yes"/>
      <point x="1548" y="27"/>
      <point x="1466" y="183"/>
    </contour>
  </outline>
</glyph>
<glyph name="guilsinglleft" format="1">
  <advance width="469"/>
  <unicode hex="2039"/>
  <outline>
    <contour>
      <point x="326" y="226" type="line"/>
      <point x="342" y="226" type="line"/>
      <point x="144" y="609" type="line"/>
      <point x="342" y="993" type="line"/>
      <point x="326" y="993" type="line"/>
      <point x="78" y="598" type="line"/>
      <point x="78" y="622" type="line"/>
    </contour>
  </outline>
</glyph>
<glyph name="guilsinglright" format="1">
  <advance width="469"/>
  <unicode hex="203A"/>
  <outline>
    <contour>
      <point x="127" y="993" type="line"/>
      <point x="325" y="609" type="line"/>
      <point x="127" y="226" type="line"/>
      <point x="143" y="226" type="line"/>
      <point x="391" y="621" type="line"/>
      <point x="391" y="597" type="line"/>
      <point x="143" y="993" type="line"/>
    </contour>
  </outline>
</glyph>
<glyph name="fraction" format="1">
  <advance width="698"/>
  <unicode hex="2044"/>
  <outline>
    <contour>
      <point x="63" y="175" type="line"/>
      <point x="87" y="147" type="line"/>
      <point x="635" y="1274" type="line"/>
      <point x="610" y="1301" type="line"/>
    </contour>
  </outline>
</glyph>
<glyph name="won" format="1">
  <advance width="1096"/>
  <unicode hex="20A9"/>
  <outline>
    <contour>
      <point x="278" y="0" type="line"/>
      <point x="350" y="0" type="line"/>
      <point x="482" y="482" type="line" smooth="yes"/>
      <point x="489" y="504"/>
      <point x="492" y="535"/>
      <point x="501" y="612" type="qcurve"/>
      <point x="609" y="612" type="line"/>
      <point x="609" y="537"/>
      <point x="616" y="506"/>
      <point x="622" y="480" type="qcurve" smooth="yes"/>
      <point x="741" y="0" type="line"/>
      <point x="820" y="0" type="line"/>
      <point x="1011" y="1456" type="line"/>
      <point x="973" y="1456" type="line"/>
      <point x="825" y="291" type="line" smooth="yes"/>
      <point x="822" y="266"/>
      <point x="823" y="240"/>
      <point x="816" y="161" type="qcurve"/>
      <point x="714" y="161" type="line"/>
      <point x="705" y="230"/>
      <point x="697" y="256"/>
      <point x="690" y="284" type="qcurve" smooth="yes"/>
      <point x="582" y="705" type="line"/>
      <point x="517" y="705" type="line"/>
      <point x="411" y="276" type="line" smooth="yes"/>
      <point x="405" y="255"/>
      <point x="400" y="233"/>
      <point x="391" y="161" type="qcurve"/>
      <point x="289" y="161" type="line"/>
      <point x="283" y="241"/>
      <point x="282" y="264"/>
      <point x="278" y="291" type="qcurve" smooth="yes"/>
      <point x="125" y="1456" type="line"/>
      <point x="85" y="1456" type="line"/>
    </contour>
    <contour>
      <point x="10" y="1249" type="line"/>
      <point x="1086" y="1249" type="line"/>
      <point x="1086" y="1299" type="line"/>
      <point x="10" y="1299" type="line"/>
    </contour>
    <contour>
      <point x="28" y="898" type="line"/>
      <point x="1069" y="898" type="line"/>
      <point x="1069" y="947" type="line"/>
      <point x="28" y="947" type="line"/>
    </contour>
  </outline>
</glyph>
<glyph name="Euro" format="1">
  <advance width="882"/>
  <unicode hex="20AC"/>
  <outline>
    <contour>
      <point x="651" y="907" type="line"/>
      <point x="25" y="907" type="line"/>
      <point x="25" y="859" type="line"/>
      <point x="651" y="859" type="line"/>
    </contour>
    <contour>
      <point x="651" y="561" type="line"/>
      <point x="25" y="561" type="line"/>
      <point x="25" y="514" type="line"/>
      <point x="651" y="514" type="line"/>
    </contour>
    <contour>
      <point x="541" y="-22" type="qcurve" smooth="yes"/>
      <point x="702" y="-22"/>
      <point x="851" y="199"/>
      <point x="851" y="351" type="qcurve"/>
      <point x="851" y="310" type="line"/>
      <point x="809" y="310" type="line"/>
      <point x="805" y="356" type="line"/>
      <point x="815" y="211"/>
      <point x="670" y="37"/>
      <point x="536" y="37" type="qcurve" smooth="yes"/>
      <point x="360" y="37"/>
      <point x="197" y="298"/>
      <point x="197" y="547" type="qcurve" smooth="yes"/>
      <point x="197" y="885" type="line" smooth="yes"/>
      <point x="197" y="1134"/>
      <point x="359" y="1399"/>
      <point x="522" y="1399" type="qcurve" smooth="yes"/>
      <point x="674" y="1399"/>
      <point x="797" y="1222"/>
      <point x="797" y="1083" type="qcurve"/>
      <point x="797" y="1124" type="line"/>
      <point x="842" y="1124" type="line"/>
      <point x="842" y="1084" type="line"/>
      <point x="842" y="1235"/>
      <point x="694" y="1455"/>
      <point x="520" y="1455" type="qcurve" smooth="yes"/>
      <point x="343" y="1455"/>
      <point x="151" y="1176"/>
      <point x="151" y="883" type="qcurve" smooth="yes"/>
      <point x="151" y="547" type="line" smooth="yes"/>
      <point x="151" y="256"/>
      <point x="351" y="-22"/>
    </contour>
  </outline>
</glyph>
<glyph name="indianrupee" format="1">
  <advance width="909"/>
  <unicode hex="20B9"/>
  <outline>
    <contour>
      <point x="835" y="1072" type="line"/>
      <point x="137" y="1072" type="line"/>
      <point x="130" y="1015" type="line"/>
      <point x="826" y="1015" type="line"/>
    </contour>
    <contour>
      <point x="111" y="1399" type="line"/>
      <point x="314" y="1399" type="line" smooth="yes"/>
      <point x="480" y="1399"/>
      <point x="641" y="1202"/>
      <point x="641" y="1044" type="qcurve" smooth="yes"/>
      <point x="641" y="903"/>
      <point x="503" y="708"/>
      <point x="344" y="708" type="qcurve" smooth="yes"/>
      <point x="157" y="708" type="line"/>
      <point x="145" y="616" type="line"/>
      <point x="603" y="0" type="line"/>
      <point x="717" y="0" type="line"/>
      <point x="717" y="-65" type="line"/>
      <point x="161" y="651" type="line"/>
      <point x="505" y="651"/>
      <point x="687" y="867"/>
      <point x="687" y="1042" type="qcurve" smooth="yes"/>
      <point x="687" y="1144"/>
      <point x="642" y="1267"/>
      <point x="490" y="1399" type="qcurve"/>
      <point x="826" y="1399" type="line"/>
      <point x="835" y="1456" type="line"/>
      <point x="119" y="1456" type="line"/>
    </contour>
  </outline>
</glyph>
<glyph name="numero" format="1">
  <advance width="2043"/>
  <unicode hex="2116"/>
  <outline>
    <contour>
      <point x="170" y="0" type="line"/>
      <point x="219" y="0" type="line"/>
      <point x="219" y="1034" type="line" smooth="yes"/>
      <point x="219" y="1054"/>
      <point x="222" y="1137"/>
      <point x="219" y="1215" type="qcurve"/>
      <point x="314" y="1215" type="line"/>
      <point x="335" y="1163"/>
      <point x="372" y="1093"/>
      <point x="380" y="1076" type="qcurve" smooth="yes"/>
      <point x="899" y="0" type="line"/>
      <point x="979" y="0" type="line"/>
      <point x="979" y="1456" type="line"/>
      <point x="930" y="1456" type="line"/>
      <point x="930" y="419" type="line" smooth="yes"/>
      <point x="930" y="392"/>
      <point x="932" y="314"/>
      <point x="936" y="238" type="qcurve"/>
      <point x="830" y="238" type="line"/>
      <point x="810" y="292"/>
      <point x="778" y="361"/>
      <point x="771" y="376" type="qcurve" smooth="yes"/>
      <point x="249" y="1456" type="line"/>
      <point x="170" y="1456" type="line"/>
    </contour>
    <contour>
      <point x="1212" y="980" type="line" smooth="yes"/>
      <point x="1212" y="766"/>
      <point x="1400" y="508"/>
      <point x="1569" y="508" type="qcurve" smooth="yes"/>
      <point x="1737" y="508"/>
      <point x="1927" y="766"/>
      <point x="1927" y="980" type="qcurve" smooth="yes"/>
      <point x="1927" y="1001" type="line" smooth="yes"/>
      <point x="1927" y="1221"/>
      <point x="1742" y="1476"/>
      <point x="1567" y="1476" type="qcurve" smooth="yes"/>
      <point x="1400" y="1476"/>
      <point x="1212" y="1215"/>
      <point x="1212" y="1001" type="qcurve" smooth="yes"/>
    </contour>
    <contour>
      <point x="1259" y="1003" type="line" smooth="yes"/>
      <point x="1259" y="1171"/>
      <point x="1410" y="1426"/>
      <point x="1567" y="1426" type="qcurve" smooth="yes"/>
      <point x="1726" y="1426"/>
      <point x="1874" y="1171"/>
      <point x="1874" y="1003" type="qcurve" smooth="yes"/>
      <point x="1874" y="982" type="line" smooth="yes"/>
      <point x="1874" y="812"/>
      <point x="1726" y="557"/>
      <point x="1569" y="557" type="qcurve" smooth="yes"/>
      <point x="1410" y="557"/>
      <point x="1259" y="812"/>
      <point x="1259" y="982" type="qcurve" smooth="yes"/>
    </contour>
    <contour>
      <point x="1245" y="139" type="line"/>
      <point x="1899" y="139" type="line"/>
      <point x="1899" y="205" type="line"/>
      <point x="1245" y="205" type="line"/>
    </contour>
  </outline>
</glyph>
<glyph name="trademark" format="1">
  <advance width="1216"/>
  <unicode hex="2122"/>
  <outline>
    <contour>
      <point x="1090" y="915" type="line"/>
      <point x="1106" y="915" type="line"/>
      <point x="1106" y="1502" type="line"/>
      <point x="1030" y="1502" type="line"/>
      <point x="846" y="877" type="line"/>
      <point x="665" y="1502" type="line"/>
      <point x="584" y="1502" type="line"/>
      <point x="584" y="914" type="line"/>
      <point x="591" y="914" type="line"/>
      <point x="591" y="1690" type="line"/>
      <point x="815" y="914" type="line"/>
      <point x="865" y="914" type="line"/>
      <point x="1090" y="1691" type="line"/>
    </contour>
    <contour>
      <point x="430" y="1502" type="line"/>
      <point x="68" y="1502" type="line"/>
      <point x="68" y="1458" type="line"/>
      <point x="237" y="1458" type="line"/>
      <point x="237" y="914" type="line"/>
      <point x="268" y="914" type="line"/>
      <point x="268" y="1458" type="line"/>
      <point x="430" y="1458" type="line"/>
    </contour>
  </outline>
</glyph>
<glyph name="minus" format="1">
  <advance width="892"/>
  <unicode hex="2212"/>
  <outline>
    <contour>
      <point x="128" y="654" type="line"/>
      <point x="764" y="654" type="line"/>
      <point x="764" y="727" type="line"/>
      <point x="128" y="727" type="line"/>
    </contour>
  </outline>
</glyph>
<glyph name="divisionslash" format="1">
  <advance width="527"/>
  <unicode hex="2215"/>
  <outline>
    <contour>
      <point x="-17" y="-135" type="line"/>
      <point x="18" y="-135" type="line"/>
      <point x="494" y="1456" type="line"/>
      <point x="460" y="1456" type="line"/>
    </contour>
  </outline>
</glyph>
<glyph name="fi" format="1">
  <advance width="846"/>
  <unicode hex="FB01"/>
  <outline>
    <contour>
      <point x="217" y="0" type="line"/>
      <point x="217" y="1206" type="line" smooth="yes"/>
      <point x="217" y="1342"/>
      <point x="329" y="1498"/>
      <point x="443" y="1498" type="qcurve" smooth="yes"/>
      <point x="505" y="1498"/>
      <point x="611" y="1455"/>
      <point x="599" y="1460" type="qcurve"/>
      <point x="603" y="1513" type="line"/>
      <point x="589" y="1523"/>
      <point x="487" y="1559"/>
      <point x="432" y="1559" type="qcurve" smooth="yes"/>
      <point x="303" y="1559"/>
      <point x="163" y="1379"/>
      <point x="163" y="1206" type="qcurve" smooth="yes"/>
      <point x="163" y="0" type="line"/>
    </contour>
    <contour>
      <point x="441" y="1017" type="line"/>
      <point x="26" y="1017" type="line"/>
      <point x="26" y="977" type="line"/>
      <point x="441" y="977" type="line"/>
    </contour>
    <contour>
      <point x="689" y="1017" type="line"/>
      <point x="635" y="1017" type="line"/>
      <point x="635" y="0" type="line"/>
      <point x="689" y="0" type="line"/>
    </contour>
  </outline>
</glyph>
<glyph name="fl" format="1">
  <advance width="868"/>
  <unicode hex="FB02"/>
  <outline>
    <contour>
      <point x="659" y="0" type="line"/>
      <point x="712" y="0" type="line"/>
      <point x="712" y="1493" type="line"/>
      <point x="659" y="1493" type="line"/>
    </contour>
    <contour>
      <point x="217" y="0" type="line"/>
      <point x="217" y="1206" type="line" smooth="yes"/>
      <point x="217" y="1342"/>
      <point x="329" y="1498"/>
      <point x="443" y="1498" type="qcurve" smooth="yes"/>
      <point x="505" y="1498"/>
      <point x="611" y="1455"/>
      <point x="599" y="1460" type="qcurve"/>
      <point x="603" y="1513" type="line"/>
      <point x="589" y="1523"/>
      <point x="487" y="1559"/>
      <point x="432" y="1559" type="qcurve" smooth="yes"/>
      <point x="303" y="1559"/>
      <point x="163" y="1379"/>
      <point x="163" y="1206" type="qcurve" smooth="yes"/>
      <point x="163" y="0" type="line"/>
    </contour>
    <contour>
      <point x="441" y="1017" type="line"/>
      <point x="26" y="1017" type="line"/>
      <point x="26" y="977" type="line"/>
      <point x="441" y="977" type="line"/>
    </contour>
  </outline>
</glyph>
<glyph name="f_f_i" format="1">
  <advance width="1318"/>
  <unicode hex="FB03"/>
  <outline>
    <contour>
      <point x="689" y="0" type="line"/>
      <point x="689" y="1206" type="line" smooth="yes"/>
      <point x="689" y="1342"/>
      <point x="801" y="1498"/>
      <point x="915" y="1498" type="qcurve" smooth="yes"/>
      <point x="977" y="1498"/>
      <point x="1083" y="1455"/>
      <point x="1071" y="1460" type="qcurve"/>
      <point x="1075" y="1513" type="line"/>
      <point x="1061" y="1523"/>
      <point x="959" y="1559"/>
      <point x="904" y="1559" type="qcurve" smooth="yes"/>
      <point x="775" y="1559"/>
      <point x="635" y="1379"/>
      <point x="635" y="1206" type="qcurve" smooth="yes"/>
      <point x="635" y="0" type="line"/>
    </contour>
    <contour>
      <point x="913" y="1017" type="line"/>
      <point x="498" y="1017" type="line"/>
      <point x="498" y="977" type="line"/>
      <point x="913" y="977" type="line"/>
    </contour>
    <contour>
      <point x="1161" y="1017" type="line"/>
      <point x="1107" y="1017" type="line"/>
      <point x="1107" y="0" type="line"/>
      <point x="1161" y="0" type="line"/>
    </contour>
    <contour>
      <point x="217" y="0" type="line"/>
      <point x="217" y="1206" type="line" smooth="yes"/>
      <point x="217" y="1342"/>
      <point x="329" y="1498"/>
      <point x="443" y="1498" type="qcurve" smooth="yes"/>
      <point x="503" y="1498"/>
      <point x="575" y="1478"/>
      <point x="568" y="1481" type="qcurve"/>
      <point x="571" y="1530" type="line"/>
      <point x="568" y="1535"/>
      <point x="488" y="1559"/>
      <point x="432" y="1559" type="qcurve" smooth="yes"/>
      <point x="303" y="1559"/>
      <point x="163" y="1379"/>
      <point x="163" y="1206" type="qcurve" smooth="yes"/>
      <point x="163" y="0" type="line"/>
    </contour>
    <contour>
      <point x="441" y="1017" type="line"/>
      <point x="26" y="1017" type="line"/>
      <point x="26" y="977" type="line"/>
      <point x="441" y="977" type="line"/>
    </contour>
  </outline>
</glyph>
<glyph name="bitcoin" format="1">
  <advance width="903"/>
  <outline>
    <contour>
      <point x="156" y="0" type="line"/>
      <point x="484" y="0" type="line" smooth="yes"/>
      <point x="648" y="0"/>
      <point x="838" y="202"/>
      <point x="838" y="396" type="qcurve" smooth="yes"/>
      <point x="838" y="531"/>
      <point x="727" y="692"/>
      <point x="622" y="726" type="qcurve"/>
      <point x="622" y="812" type="line"/>
      <point x="724" y="853"/>
      <point x="805" y="992"/>
      <point x="805" y="1094" type="qcurve" smooth="yes"/>
      <point x="805" y="1285"/>
      <point x="627" y="1456"/>
      <point x="456" y="1456" type="qcurve" smooth="yes"/>
      <point x="156" y="1456" type="line"/>
    </contour>
    <contour>
      <point x="209" y="788" type="line"/>
      <point x="209" y="1399" type="line"/>
      <point x="488" y="1399" type="line" smooth="yes"/>
      <point x="616" y="1399"/>
      <point x="753" y="1249"/>
      <point x="753" y="1097" type="qcurve" smooth="yes"/>
      <point x="753" y="956"/>
      <point x="607" y="788"/>
      <point x="493" y="788" type="qcurve" smooth="yes"/>
    </contour>
    <contour>
      <point x="209" y="56" type="line"/>
      <point x="209" y="734" type="line"/>
      <point x="519" y="734" type="line" smooth="yes"/>
      <point x="656" y="734"/>
      <point x="787" y="542"/>
      <point x="787" y="394" type="qcurve" smooth="yes"/>
      <point x="787" y="245"/>
      <point x="641" y="56"/>
      <point x="512" y="56" type="qcurve" smooth="yes"/>
    </contour>
    <contour>
      <point x="450" y="398" type="line"/>
      <point x="450" y="445" type="line"/>
      <point x="227" y="445" type="line"/>
      <point x="181" y="452" type="line"/>
      <point x="42" y="452" type="line"/>
      <point x="42" y="394" type="line"/>
      <point x="185" y="394" type="line"/>
      <point x="225" y="398" type="line"/>
    </contour>
  </outline>
</glyph>
<glyph name="eight.pnum" format="1">
  <advance width="870"/>
  <outline>
    <contour>
      <point x="90" y="387" type="qcurve" smooth="yes"/>
      <point x="90" y="187"/>
      <point x="284" y="-32"/>
      <point x="435" y="-32" type="qcurve" smooth="yes"/>
      <point x="585" y="-32"/>
      <point x="780" y="187"/>
      <point x="780" y="387" type="qcurve" smooth="yes"/>
      <point x="780" y="514"/>
      <point x="674" y="710"/>
      <point x="545" y="753" type="qcurve"/>
      <point x="545" y="840" type="line"/>
      <point x="639" y="899"/>
      <point x="716" y="1042"/>
      <point x="716" y="1133" type="qcurve" smooth="yes"/>
      <point x="716" y="1300"/>
      <point x="555" y="1479"/>
      <point x="434" y="1479" type="qcurve" smooth="yes"/>
      <point x="314" y="1479"/>
      <point x="154" y="1300"/>
      <point x="154" y="1133" type="qcurve" smooth="yes"/>
      <point x="154" y="1042"/>
      <point x="230" y="900"/>
      <point x="324" y="841" type="qcurve"/>
      <point x="324" y="755" type="line"/>
      <point x="198" y="712"/>
      <point x="90" y="515"/>
    </contour>
    <contour>
      <point x="194" y="1125" type="qcurve" smooth="yes"/>
      <point x="194" y="1257"/>
      <point x="328" y="1426"/>
      <point x="434" y="1426" type="qcurve" smooth="yes"/>
      <point x="541" y="1426"/>
      <point x="677" y="1249"/>
      <point x="677" y="1125" type="qcurve" smooth="yes"/>
      <point x="677" y="995"/>
      <point x="542" y="823"/>
      <point x="435" y="823" type="qcurve" smooth="yes"/>
      <point x="327" y="823"/>
      <point x="194" y="995"/>
    </contour>
    <contour>
      <point x="136" y="400" type="qcurve" smooth="yes"/>
      <point x="136" y="565"/>
      <point x="296" y="770"/>
      <point x="433" y="770" type="qcurve" smooth="yes"/>
      <point x="567" y="770"/>
      <point x="734" y="565"/>
      <point x="734" y="400" type="qcurve" smooth="yes"/>
      <point x="734" y="231"/>
      <point x="567" y="20"/>
      <point x="435" y="20" type="qcurve" smooth="yes"/>
      <point x="303" y="20"/>
      <point x="136" y="231"/>
    </contour>
  </outline>
</glyph>
<glyph name="five.pnum" format="1">
  <advance width="789"/>
  <outline>
    <contour>
      <point x="40" y="289" type="line"/>
      <point x="40" y="343" type="line"/>
      <point x="40" y="155"/>
      <point x="252" y="-32"/>
      <point x="401" y="-32" type="qcurve" smooth="yes"/>
      <point x="556" y="-32"/>
      <point x="739" y="237"/>
      <point x="739" y="443" type="qcurve" smooth="yes"/>
      <point x="739" y="652"/>
      <point x="566" y="913"/>
      <point x="411" y="913" type="qcurve" smooth="yes"/>
      <point x="346" y="913"/>
      <point x="240" y="863"/>
      <point x="117" y="764" type="qcurve"/>
      <point x="171" y="1385" type="line"/>
      <point x="678" y="1385" type="line"/>
      <point x="678" y="1456" type="line"/>
      <point x="139" y="1456" type="line"/>
      <point x="85" y="764" type="line"/>
      <point x="128" y="735" type="line"/>
      <point x="160" y="776"/>
      <point x="286" y="849"/>
      <point x="392" y="849" type="qcurve" smooth="yes"/>
      <point x="530" y="849"/>
      <point x="692" y="626"/>
      <point x="692" y="441" type="qcurve" smooth="yes"/>
      <point x="692" y="254"/>
      <point x="537" y="18"/>
      <point x="387" y="18" type="qcurve" smooth="yes"/>
      <point x="261" y="18"/>
      <point x="87" y="186"/>
      <point x="87" y="343" type="qcurve"/>
      <point x="87" y="289" type="line"/>
    </contour>
  </outline>
</glyph>
<glyph name="four.pnum" format="1">
  <advance width="773"/>
  <outline>
    <contour>
      <point x="542" y="0" type="line"/>
      <point x="590" y="0" type="line"/>
      <point x="590" y="1456" type="line"/>
      <point x="539" y="1456" type="line"/>
      <point x="-23" y="431" type="line"/>
      <point x="-23" y="375" type="line"/>
      <point x="765" y="375" type="line"/>
      <point x="765" y="426" type="line"/>
      <point x="574" y="426" type="line"/>
      <point x="550" y="426" type="line"/>
      <point x="5" y="426" type="line"/>
      <point x="455" y="1238" type="line"/>
      <point x="542" y="1238" type="line"/>
      <point x="542" y="394" type="line"/>
      <point x="542" y="376" type="line"/>
    </contour>
  </outline>
</glyph>
<glyph name="nine.pnum" format="1">
  <advance width="827"/>
  <outline>
    <contour>
      <point x="23" y="1016" type="qcurve" smooth="yes"/>
      <point x="23" y="832"/>
      <point x="190" y="577"/>
      <point x="349" y="577" type="qcurve" smooth="yes"/>
      <point x="455" y="577"/>
      <point x="590" y="710"/>
      <point x="604" y="782" type="qcurve"/>
      <point x="659" y="984" type="line"/>
      <point x="693" y="830"/>
      <point x="505" y="629"/>
      <point x="375" y="629" type="qcurve" smooth="yes"/>
      <point x="237" y="629"/>
      <point x="72" y="852"/>
      <point x="72" y="1025" type="qcurve" smooth="yes"/>
      <point x="72" y="1199"/>
      <point x="232" y="1429"/>
      <point x="378" y="1429" type="qcurve" smooth="yes"/>
      <point x="529" y="1429"/>
      <point x="709" y="1145"/>
      <point x="709" y="854" type="qcurve" smooth="yes"/>
      <point x="709" y="801" type="line" smooth="yes"/>
      <point x="709" y="359"/>
      <point x="395" y="24"/>
      <point x="170" y="24" type="qcurve"/>
      <point x="199" y="24" type="line"/>
      <point x="199" y="-32" type="line"/>
      <point x="158" y="-32" type="line"/>
      <point x="446" y="-32"/>
      <point x="759" y="406"/>
      <point x="759" y="797" type="qcurve" smooth="yes"/>
      <point x="759" y="828" type="line" smooth="yes"/>
      <point x="759" y="1204"/>
      <point x="525" y="1480"/>
      <point x="375" y="1480" type="qcurve" smooth="yes"/>
      <point x="216" y="1480"/>
      <point x="23" y="1209"/>
    </contour>
  </outline>
</glyph>
<glyph name="one.pnum" format="1">
  <advance width="670"/>
  <outline>
    <contour>
      <point x="412" y="1465" type="line"/>
      <point x="452" y="1465" type="line"/>
      <point x="47" y="1267" type="line"/>
      <point x="47" y="1213" type="line"/>
      <point x="359" y="1367" type="line"/>
      <point x="359" y="0" type="line"/>
      <point x="412" y="0" type="line"/>
    </contour>
  </outline>
</glyph>
<glyph name="seven.pnum" format="1">
  <advance width="655"/>
  <outline>
    <contour>
      <point x="655" y="1456" type="line"/>
      <point x="0" y="1456" type="line"/>
      <point x="0" y="1405" type="line"/>
      <point x="629" y="1405" type="line"/>
      <point x="158" y="0" type="line"/>
      <point x="199" y="0" type="line"/>
      <point x="655" y="1408" type="line"/>
    </contour>
  </outline>
</glyph>
<glyph name="six.pnum" format="1">
  <advance width="818"/>
  <outline>
    <contour>
      <point x="66" y="619" type="line" smooth="yes"/>
      <point x="66" y="253"/>
      <point x="288" y="-32"/>
      <point x="447" y="-32" type="qcurve" smooth="yes"/>
      <point x="607" y="-32"/>
      <point x="795" y="233"/>
      <point x="795" y="422" type="qcurve" smooth="yes"/>
      <point x="795" y="602"/>
      <point x="632" y="851"/>
      <point x="473" y="851" type="qcurve" smooth="yes"/>
      <point x="365" y="851"/>
      <point x="218" y="725"/>
      <point x="188" y="627" type="qcurve"/>
      <point x="188" y="418" type="line"/>
      <point x="98" y="405" type="line"/>
      <point x="119" y="595"/>
      <point x="318" y="796"/>
      <point x="447" y="796" type="qcurve" smooth="yes"/>
      <point x="582" y="796"/>
      <point x="747" y="587"/>
      <point x="747" y="411" type="qcurve" smooth="yes"/>
      <point x="747" y="242"/>
      <point x="590" y="18"/>
      <point x="444" y="18" type="qcurve" smooth="yes"/>
      <point x="293" y="18"/>
      <point x="116" y="284"/>
      <point x="116" y="539" type="qcurve" smooth="yes"/>
      <point x="116" y="646" type="line" smooth="yes"/>
      <point x="116" y="1064"/>
      <point x="467" y="1411"/>
      <point x="678" y="1411" type="qcurve"/>
      <point x="657" y="1411" type="line"/>
      <point x="657" y="1480" type="line"/>
      <point x="681" y="1480" type="line"/>
      <point x="414" y="1480"/>
      <point x="66" y="1003"/>
      <point x="66" y="650" type="qcurve" smooth="yes"/>
    </contour>
  </outline>
</glyph>
<glyph name="three.pnum" format="1">
  <advance width="801"/>
  <outline>
    <contour>
      <point x="39" y="310" type="line"/>
      <point x="39" y="359" type="line"/>
      <point x="39" y="176"/>
      <point x="235" y="-32"/>
      <point x="389" y="-32" type="qcurve" smooth="yes"/>
      <point x="549" y="-32"/>
      <point x="745" y="180"/>
      <point x="745" y="379" type="qcurve" smooth="yes"/>
      <point x="745" y="529"/>
      <point x="619" y="690"/>
      <point x="385" y="753" type="qcurve"/>
      <point x="618" y="867"/>
      <point x="687" y="1034"/>
      <point x="687" y="1130" type="qcurve" smooth="yes"/>
      <point x="687" y="1298"/>
      <point x="519" y="1481"/>
      <point x="378" y="1481" type="qcurve" smooth="yes"/>
      <point x="245" y="1481"/>
      <point x="78" y="1272"/>
      <point x="78" y="1122" type="qcurve"/>
      <point x="78" y="1169" type="line"/>
      <point x="122" y="1169" type="line"/>
      <point x="122" y="1119" type="line"/>
      <point x="122" y="1255"/>
      <point x="258" y="1427"/>
      <point x="378" y="1427" type="qcurve" smooth="yes"/>
      <point x="501" y="1427"/>
      <point x="641" y="1258"/>
      <point x="641" y="1105" type="qcurve" smooth="yes"/>
      <point x="641" y="951"/>
      <point x="491" y="788"/>
      <point x="346" y="788" type="qcurve" smooth="yes"/>
      <point x="310" y="788" type="line"/>
      <point x="310" y="734" type="line"/>
      <point x="360" y="734" type="line" smooth="yes"/>
      <point x="507" y="734"/>
      <point x="696" y="556"/>
      <point x="696" y="374" type="qcurve" smooth="yes"/>
      <point x="696" y="211"/>
      <point x="534" y="22"/>
      <point x="389" y="22" type="qcurve" smooth="yes"/>
      <point x="254" y="22"/>
      <point x="83" y="204"/>
      <point x="83" y="360" type="qcurve"/>
      <point x="83" y="310" type="line"/>
    </contour>
  </outline>
</glyph>
<glyph name="two.pnum" format="1">
  <advance width="750"/>
  <outline>
    <contour>
      <point x="50" y="0" type="line"/>
      <point x="717" y="0" type="line"/>
      <point x="717" y="51" type="line"/>
      <point x="71" y="51" type="line"/>
      <point x="475" y="623" type="line" smooth="yes"/>
      <point x="563" y="748"/>
      <point x="692" y="983"/>
      <point x="692" y="1125" type="qcurve" smooth="yes"/>
      <point x="692" y="1266"/>
      <point x="528" y="1478"/>
      <point x="374" y="1478" type="qcurve" smooth="yes"/>
      <point x="224" y="1478"/>
      <point x="41" y="1233"/>
      <point x="41" y="1059" type="qcurve"/>
      <point x="41" y="1108" type="line"/>
      <point x="90" y="1108" type="line"/>
      <point x="90" y="1061" type="line"/>
      <point x="90" y="1216"/>
      <point x="248" y="1427"/>
      <point x="374" y="1427" type="qcurve" smooth="yes"/>
      <point x="513" y="1427"/>
      <point x="645" y="1228"/>
      <point x="645" y="1099" type="qcurve" smooth="yes"/>
      <point x="645" y="974"/>
      <point x="537" y="782"/>
      <point x="451" y="655" type="qcurve" smooth="yes"/>
      <point x="50" y="68" type="line"/>
    </contour>
  </outline>
</glyph>
<glyph name="zero.pnum" format="1">
  <advance width="910"/>
  <outline>
    <contour>
      <point x="112" y="418" type="line" smooth="yes"/>
      <point x="112" y="202"/>
      <point x="296" y="-32"/>
      <point x="456" y="-32" type="qcurve" smooth="yes"/>
      <point x="614" y="-32"/>
      <point x="798" y="202"/>
      <point x="798" y="418" type="qcurve" smooth="yes"/>
      <point x="798" y="1029" type="line" smooth="yes"/>
      <point x="798" y="1245"/>
      <point x="613" y="1481"/>
      <point x="454" y="1481" type="qcurve" smooth="yes"/>
      <point x="297" y="1481"/>
      <point x="112" y="1245"/>
      <point x="112" y="1029" type="qcurve" smooth="yes"/>
    </contour>
    <contour>
      <point x="167" y="405" type="qcurve" smooth="yes"/>
      <point x="167" y="1042" type="line" smooth="yes"/>
      <point x="167" y="1168"/>
      <point x="288" y="1426"/>
      <point x="454" y="1426" type="qcurve" smooth="yes"/>
      <point x="619" y="1426"/>
      <point x="743" y="1174"/>
      <point x="743" y="1042" type="qcurve" smooth="yes"/>
      <point x="743" y="405" type="line" smooth="yes"/>
      <point x="743" y="279"/>
      <point x="622" y="20"/>
      <point x="456" y="20" type="qcurve" smooth="yes"/>
      <point x="291" y="20"/>
      <point x="167" y="272"/>
    </contour>
  </outline>
</glyph>
